<svg width="32" height="32" viewBox="0 0 32 32" fill="none" xmlns="http://www.w3.org/2000/svg">
<path fill-rule="evenodd" clip-rule="evenodd" d="M16 5.99995C14.5705 5.99995 13.8 7.01205 13.8 7.79995V9.59992H18.2V7.79995C18.2 7.01205 17.4294 5.99995 16 5.99995ZM20.2 9.59992V7.79995C20.2 5.78785 18.4105 3.99995 16 3.99995C13.5894 3.99995 11.8 5.78785 11.8 7.79995V9.59992H9.99331M12.807 11.5999H9.99307C9.78811 11.5999 9.56224 11.6872 9.36823 11.8926C9.17066 12.1017 9.02912 12.4129 9.00395 12.7726L8.2039 24.2011C8.19025 24.3963 8.21222 24.5913 8.26666 24.7721C8.32111 24.9529 8.40519 25.1105 8.50731 25.2374C8.60922 25.3641 8.72496 25.4555 8.84199 25.5143C8.95821 25.5727 9.07689 25.5998 9.19202 25.5999M12.8 11.5999C12.8023 11.5999 12.8047 11.5999 12.807 11.5999C12.8094 11.5999 12.7976 11.5999 12.8 11.5999ZM12.807 11.5999H19.1929C19.1953 11.5999 19.1976 11.5999 19.2 11.5999C19.2023 11.5999 19.2047 11.5999 19.207 11.5999H22.0068C22.2118 11.5999 22.4377 11.6872 22.6317 11.8926C22.8292 12.1017 22.9708 12.4129 22.9959 12.7726L23.796 24.2011C23.8097 24.3963 23.7877 24.5913 23.7332 24.7721C23.6788 24.9529 23.5947 25.1105 23.4926 25.2374C23.3907 25.3641 23.2749 25.4555 23.1579 25.5143C23.0417 25.5727 22.923 25.5998 22.8079 25.5999H9.19202M20.2 9.59992H22.0066C22.8035 9.5998 23.5432 9.94511 24.0855 10.5191C24.6242 11.0893 24.9361 11.847 24.9911 12.6329L25.7911 24.0615C25.8215 24.4953 25.7735 24.9331 25.6483 25.3487C25.5232 25.7644 25.3219 26.1542 25.051 26.491C24.7798 26.8281 24.4429 27.1069 24.056 27.3013C23.6684 27.4961 23.2431 27.5998 22.8082 27.5999H9.19202C8.75713 27.5998 8.33145 27.4961 7.9439 27.3013C7.55705 27.1069 7.22006 26.8281 6.94891 26.491C6.67798 26.1542 6.47675 25.7644 6.3516 25.3487C6.22644 24.9331 6.17842 24.4954 6.20878 24.0616L7.00883 12.633C7.06383 11.8471 7.37568 11.0893 7.91443 10.5191C8.45669 9.94511 9.19644 9.5998 9.99331 9.59992M12.8 12.7999C13.3522 12.7999 13.8 13.2477 13.8 13.7999C13.8 14.9138 14.6961 15.9999 16 15.9999C17.3038 15.9999 18.2 14.9138 18.2 13.7999C18.2 13.2477 18.6477 12.7999 19.2 12.7999C19.7522 12.7999 20.2 13.2477 20.2 13.7999C20.2 15.8861 18.5361 17.9999 16 17.9999C13.4638 17.9999 11.8 15.8861 11.8 13.7999C11.8 13.2477 12.2477 12.7999 12.8 12.7999Z" fill="#161616"/>
</svg>
