<svg width="32" height="32" viewBox="0 0 32 32" fill="none" xmlns="http://www.w3.org/2000/svg">
<path fill-rule="evenodd" clip-rule="evenodd" d="M14.625 12H17.375V14H21.5C24.5376 14 27 15.7909 27 18V18.7947C26.3783 19.1663 25.4654 19.5 24.25 19.5C22.7039 19.5 21.5898 18.3655 20.949 17.4335C20.7625 17.1621 20.4543 17 20.125 17C19.7957 17 19.4875 17.1621 19.301 17.4335C19.2099 17.5659 19.1277 17.6906 19.0499 17.8087L19.0498 17.8088C18.776 18.2241 18.5565 18.5569 18.1967 18.856C17.7965 19.1886 17.1715 19.5 16 19.5C14.8285 19.5 14.2035 19.1886 13.8033 18.856C13.4435 18.5569 13.224 18.2241 12.9502 17.8088L12.9502 17.8088L12.9501 17.8087C12.8723 17.6906 12.7901 17.5659 12.699 17.4335C12.5125 17.1621 12.2043 17 11.875 17C11.5457 17 11.2375 17.1621 11.051 17.4335C10.4102 18.3655 9.29607 19.5 7.75 19.5C6.53461 19.5 5.62172 19.1663 5 18.7947V18C5 15.7909 7.46243 14 10.5 14H14.625V12ZM5 21.009V25C5 25.5523 5.61561 26 6.375 26H25.625C26.3844 26 27 25.5523 27 25V21.009C26.2364 21.3026 25.3186 21.5 24.25 21.5C22.4344 21.5 21.0861 20.5753 20.1909 19.6553C19.9882 19.9077 19.7514 20.1644 19.4751 20.394C18.6722 21.0614 17.5785 21.5 16 21.5C14.4215 21.5 13.3278 21.0614 12.5249 20.394C12.2486 20.1644 12.0118 19.9077 11.8091 19.6553C10.9139 20.5753 9.56565 21.5 7.75 21.5C6.68142 21.5 5.76363 21.3026 5 21.009Z" fill="#161616"/>
<path d="M14 9.2C14 10.4 14.6667 11 16 11C17.3333 11 18 10.4 18 9.2C18 7.4 16 5 16 5C16 5 14 7.4 14 9.2Z" fill="#161616"/>
</svg>
