<svg width="32" height="32" viewBox="0 0 32 32" fill="none" xmlns="http://www.w3.org/2000/svg">
<path d="M16 6C12.1404 6 9 9.06485 9 12.8306C9 14.624 9.80106 17.0089 11.3809 19.9193C12.6496 22.256 14.1174 24.369 14.8809 25.4204C15.0099 25.6 15.1786 25.7461 15.3732 25.8468C15.5679 25.9475 15.7831 26 16.0013 26C16.2196 26 16.4347 25.9475 16.6294 25.8468C16.8241 25.7461 16.9927 25.6 17.1218 25.4204C17.8839 24.369 19.353 22.256 20.6218 19.9193C22.1989 17.0098 23 14.6249 23 12.8306C23 9.06485 19.8596 6 16 6ZM16 16.0004C15.4462 16.0004 14.9049 15.8328 14.4444 15.5188C13.9839 15.2049 13.6251 14.7586 13.4131 14.2365C13.2012 13.7145 13.1458 13.14 13.2538 12.5857C13.3618 12.0315 13.6285 11.5223 14.0201 11.1227C14.4117 10.7231 14.9106 10.451 15.4537 10.3408C15.9969 10.2305 16.5599 10.2871 17.0715 10.5034C17.5831 10.7196 18.0204 11.0858 18.3281 11.5557C18.6358 12.0256 18.8 12.578 18.8 13.1431C18.7992 13.9007 18.5039 14.6269 17.979 15.1626C17.4541 15.6983 16.7424 15.9995 16 16.0004Z" fill="black"/>
</svg>
