<svg width="32" height="32" viewBox="0 0 32 32" fill="none" xmlns="http://www.w3.org/2000/svg">
<path d="M15.6623 4C12.3885 4 9.72539 6.66273 9.72539 9.93616C9.72539 13.2093 12.3885 15.8709 15.6623 15.8709C18.9359 15.8709 21.5977 13.2093 21.5977 9.93616C21.5977 6.66273 18.9359 4 15.6623 4ZM15.6623 7.47804C17.0172 7.47804 18.119 8.58128 18.119 9.93616C18.119 11.2905 17.0172 12.3929 15.6623 12.3929C14.3071 12.3929 13.2041 11.2905 13.2041 9.93616C13.2041 8.58128 14.3071 7.47804 15.6623 7.47804ZM10.7676 16.0728C10.1802 16.0637 9.60261 16.3532 9.26755 16.8872C8.7555 17.7006 9.0008 18.774 9.81237 19.2856C10.8859 19.9591 12.0508 20.437 13.2588 20.7124L9.94104 24.0316C9.26185 24.7111 9.26242 25.8116 9.94175 26.4911C10.2822 26.8303 10.7263 27 11.1715 27C11.6163 27 12.0619 26.83 12.4013 26.4904L15.6609 23.2294L18.9233 26.4904C19.6019 27.1697 20.7023 27.1697 21.3821 26.4904C22.0616 25.8113 22.0616 24.7096 21.3821 24.0316L18.0629 20.7131C19.2713 20.4377 20.4366 19.9596 21.5093 19.2857C22.3225 18.774 22.5682 17.6995 22.0563 16.8872C21.5438 16.0736 20.4709 15.8285 19.6571 16.3409C17.2266 17.8697 14.095 17.8687 11.6653 16.3409C11.3856 16.1648 11.0753 16.0776 10.7676 16.0729V16.0728Z" fill="#161616"/>
</svg>
