<svg width="32" height="32" viewBox="0 0 32 32" fill="none" xmlns="http://www.w3.org/2000/svg">
<path fill-rule="evenodd" clip-rule="evenodd" d="M8 8C6.89543 8 6 8.89543 6 10V21C6 22.1046 6.89543 23 8 23H25C26.1046 23 27 22.1046 27 21V10C27 8.89543 26.1046 8 25 8H8ZM10 12C9.44771 12 9 12.4477 9 13V14C9 14.5523 9.44771 15 10 15H13C13.5523 15 14 14.5523 14 14V13C14 12.4477 13.5523 12 13 12H10ZM9.5 18C9.22386 18 9 18.2239 9 18.5C9 18.7761 9.22386 19 9.5 19H11.5C11.7761 19 12 18.7761 12 18.5C12 18.2239 11.7761 18 11.5 18H9.5ZM13 18.5C13 18.2239 13.2239 18 13.5 18H15.5C15.7761 18 16 18.2239 16 18.5C16 18.7761 15.7761 19 15.5 19H13.5C13.2239 19 13 18.7761 13 18.5ZM17.5 18C17.2239 18 17 18.2239 17 18.5C17 18.7761 17.2239 19 17.5 19H19.5C19.7761 19 20 18.7761 20 18.5C20 18.2239 19.7761 18 19.5 18H17.5ZM21 18.5C21 18.2239 21.2239 18 21.5 18H23.5C23.7761 18 24 18.2239 24 18.5C24 18.7761 23.7761 19 23.5 19H21.5C21.2239 19 21 18.7761 21 18.5Z" fill="#161616"/>
</svg>
