<svg width="32" height="32" viewBox="0 0 32 32" fill="none" xmlns="http://www.w3.org/2000/svg">
<path fill-rule="evenodd" clip-rule="evenodd" d="M7.63826 3.06899C7.20655 3.17598 6.88338 3.35869 6.55785 3.67987C6.22258 4.01071 6.01991 4.375 5.92654 4.81471C5.8445 5.201 5.84543 26.7986 5.92751 27.1785C6.11604 28.0509 6.82401 28.7521 7.70486 28.9388C8.08725 29.0198 23.6416 29.0207 24.03 28.9397C24.9001 28.7582 25.6267 28.0387 25.8086 27.1785C25.849 26.9874 25.8655 24.4116 25.8655 18.3021C25.8655 10.5227 25.8576 9.67916 25.7836 9.53226C25.6707 9.30811 19.5279 3.21676 19.2919 3.09498C19.1071 2.99962 18.9417 2.99693 13.4981 3.00114C9.1959 3.00444 7.83509 3.02024 7.63826 3.06899ZM18.1747 6.52357C18.1747 7.82497 18.195 8.62116 18.2328 8.79599C18.4213 9.6684 19.1293 10.3696 20.0102 10.5563C20.1867 10.5937 20.9906 10.6139 22.3046 10.6139H24.3273V18.7408C24.3273 26.7855 24.3263 26.8697 24.2241 27.068C24.1577 27.1971 24.0488 27.3049 23.9185 27.3707C23.7183 27.4719 23.6324 27.473 15.8636 27.473H8.01111L7.80658 27.3591C7.68656 27.2923 7.56186 27.1673 7.5048 27.0565C7.41015 26.8728 7.40758 26.5723 7.40969 15.9859C7.41174 5.60495 7.4161 5.09629 7.50418 4.93257C7.55494 4.83817 7.68666 4.70691 7.79684 4.64084L7.99716 4.52074L13.0859 4.52049L18.1747 4.52024V6.52357ZM21.7596 9.07858C20.3469 9.09179 20.3153 9.08986 20.1133 8.97743C19.7289 8.76344 19.7128 8.68615 19.7128 7.04884V5.61257L21.4564 7.33885L23.2 9.06508L21.7596 9.07858Z" fill="#161616"/>
<path d="M9.33215 21.8933C9.26859 21.8933 9.21659 21.8731 9.17615 21.8327C9.1357 21.7922 9.11548 21.7402 9.11548 21.6767V15.9567C9.11548 15.8931 9.1357 15.8411 9.17615 15.8007C9.21659 15.7602 9.26859 15.74 9.33215 15.74H10.1555C10.219 15.74 10.271 15.7602 10.3115 15.8007C10.3519 15.8411 10.3721 15.8931 10.3721 15.9567V16.286C10.5108 16.1011 10.6899 15.9509 10.9095 15.8353C11.129 15.714 11.4035 15.6533 11.7328 15.6533C12.0333 15.6533 12.2933 15.7024 12.5128 15.8007C12.7381 15.8931 12.9259 16.0289 13.0761 16.208C13.2321 16.3813 13.3506 16.5922 13.4315 16.8407C13.5181 17.0891 13.5673 17.3693 13.5788 17.6813C13.5846 17.7911 13.5875 17.8951 13.5875 17.9933C13.5875 18.0916 13.5846 18.1984 13.5788 18.314C13.573 18.6087 13.5268 18.8802 13.4401 19.1287C13.3593 19.3771 13.2408 19.5909 13.0848 19.77C12.9288 19.9491 12.7381 20.0878 12.5128 20.186C12.2933 20.2842 12.0333 20.3333 11.7328 20.3333C11.4381 20.3333 11.181 20.2813 10.9615 20.1773C10.7477 20.0676 10.5715 19.9202 10.4328 19.7353V21.6767C10.4328 21.7402 10.4126 21.7922 10.3721 21.8327C10.3317 21.8731 10.2826 21.8933 10.2248 21.8933H9.33215ZM11.3428 19.2933C11.5624 19.2933 11.7357 19.2471 11.8628 19.1547C11.9899 19.0564 12.0795 18.9293 12.1315 18.7733C12.1893 18.6173 12.2239 18.4469 12.2355 18.262C12.247 18.0829 12.247 17.9038 12.2355 17.7247C12.2239 17.5398 12.1893 17.3693 12.1315 17.2133C12.0795 17.0573 11.9899 16.9331 11.8628 16.8407C11.7357 16.7424 11.5624 16.6933 11.3428 16.6933C11.129 16.6933 10.9557 16.7424 10.8228 16.8407C10.6899 16.9389 10.5946 17.0631 10.5368 17.2133C10.479 17.3636 10.4444 17.5253 10.4328 17.6987C10.427 17.8027 10.4241 17.9096 10.4241 18.0193C10.4241 18.1291 10.427 18.2389 10.4328 18.3487C10.4386 18.5104 10.4733 18.6636 10.5368 18.808C10.6061 18.9467 10.7044 19.0622 10.8315 19.1547C10.9644 19.2471 11.1348 19.2933 11.3428 19.2933Z" fill="#161616"/>
<path d="M16.2661 20.3333C15.9772 20.3333 15.7201 20.2871 15.4948 20.1947C15.2694 20.0964 15.0788 19.9578 14.9228 19.7787C14.7668 19.5938 14.6483 19.3771 14.5674 19.1287C14.4865 18.8744 14.4374 18.5942 14.4201 18.288C14.4143 18.1782 14.4114 18.08 14.4114 17.9933C14.4114 17.9009 14.4143 17.8027 14.4201 17.6987C14.4316 17.3982 14.4779 17.1238 14.5588 16.8753C14.6454 16.6269 14.7639 16.4131 14.9141 16.234C15.0701 16.0491 15.2608 15.9076 15.4861 15.8093C15.7172 15.7053 15.9772 15.6533 16.2661 15.6533C16.5665 15.6533 16.8236 15.7053 17.0374 15.8093C17.2512 15.9076 17.4274 16.0376 17.5661 16.1993V14.31C17.5661 14.2464 17.5863 14.1944 17.6268 14.154C17.6672 14.1136 17.7192 14.0933 17.7828 14.0933H18.6754C18.7332 14.0933 18.7823 14.1136 18.8228 14.154C18.8632 14.1944 18.8834 14.2464 18.8834 14.31V20.03C18.8834 20.0936 18.8632 20.1456 18.8228 20.186C18.7823 20.2264 18.7332 20.2467 18.6754 20.2467H17.8434C17.7856 20.2467 17.7365 20.2264 17.6961 20.186C17.6556 20.1456 17.6354 20.0936 17.6354 20.03V19.7353C17.491 19.9087 17.309 20.0531 17.0894 20.1687C16.8699 20.2784 16.5954 20.3333 16.2661 20.3333ZM16.6648 19.2933C16.8785 19.2933 17.049 19.2442 17.1761 19.146C17.309 19.0478 17.4043 18.9236 17.4621 18.7733C17.5256 18.6231 17.5603 18.4613 17.5661 18.288C17.5776 18.1782 17.5834 18.0684 17.5834 17.9587C17.5834 17.8489 17.5776 17.742 17.5661 17.638C17.5603 17.4762 17.5256 17.326 17.4621 17.1873C17.3985 17.0429 17.3003 16.9244 17.1674 16.832C17.0403 16.7396 16.8728 16.6933 16.6648 16.6933C16.4452 16.6933 16.2719 16.7424 16.1448 16.8407C16.0176 16.9331 15.9252 17.0573 15.8674 17.2133C15.8154 17.3693 15.7836 17.5398 15.7721 17.7247C15.7548 17.9038 15.7548 18.0829 15.7721 18.262C15.7836 18.4469 15.8154 18.6173 15.8674 18.7733C15.9252 18.9293 16.0176 19.0564 16.1448 19.1547C16.2719 19.2471 16.4452 19.2933 16.6648 19.2933Z" fill="#161616"/>
<path d="M20.782 20.2467C20.7185 20.2467 20.6665 20.2264 20.626 20.186C20.5856 20.1456 20.5654 20.0936 20.5654 20.03V16.7627H19.8894C19.8258 16.7627 19.7738 16.7424 19.7334 16.702C19.6929 16.6616 19.6727 16.6096 19.6727 16.546V15.9567C19.6727 15.8931 19.6929 15.8411 19.7334 15.8007C19.7738 15.7602 19.8258 15.74 19.8894 15.74H20.5654V15.428C20.5654 15.0582 20.6347 14.7549 20.7734 14.518C20.912 14.2811 21.1143 14.1078 21.38 13.998C21.6458 13.8882 21.9723 13.8333 22.3594 13.8333H22.992C23.0556 13.8333 23.1076 13.8536 23.148 13.894C23.1885 13.9344 23.2087 13.9864 23.2087 14.05V14.6393C23.2087 14.7029 23.1885 14.7549 23.148 14.7953C23.1076 14.8358 23.0556 14.856 22.992 14.856H22.4114C22.1976 14.856 22.0474 14.908 21.9607 15.012C21.8798 15.116 21.8394 15.2691 21.8394 15.4713V15.74H22.9054C22.9689 15.74 23.0209 15.7602 23.0614 15.8007C23.1018 15.8411 23.122 15.8931 23.122 15.9567V16.546C23.122 16.6096 23.1018 16.6616 23.0614 16.702C23.0209 16.7424 22.9689 16.7627 22.9054 16.7627H21.8394V20.03C21.8394 20.0936 21.8191 20.1456 21.7787 20.186C21.7383 20.2264 21.6891 20.2467 21.6314 20.2467H20.782Z" fill="#161616"/>
</svg>
