<svg width="32" height="32" viewBox="0 0 32 32" fill="none" xmlns="http://www.w3.org/2000/svg">
<path d="M24.4382 21.1047C23.751 20.4124 22.0869 19.4021 21.2794 18.9949C20.228 18.4653 20.1414 18.4221 19.315 19.036C18.7637 19.4458 18.3972 19.8118 17.752 19.6742C17.1069 19.5366 15.7049 18.7609 14.4774 17.5373C13.2498 16.3137 12.4289 14.8711 12.2909 14.2282C12.1529 13.5852 12.525 13.2231 12.9309 12.6705C13.5029 11.8917 13.4596 11.7619 12.9707 10.7105C12.5895 9.89278 11.5497 8.2443 10.8548 7.56067C10.1114 6.82642 10.1114 6.95623 9.63238 7.15526C9.24241 7.31932 8.8683 7.51875 8.51471 7.75105C7.82238 8.21098 7.43814 8.59303 7.16943 9.16719C6.90073 9.74135 6.78 11.0874 8.16768 13.6082C9.55536 16.1289 10.5289 17.4178 12.544 19.4272C14.5591 21.4365 16.1086 22.5169 18.3738 23.7872C21.176 25.3565 22.2509 25.0506 22.8268 24.7824C23.4027 24.5141 23.7865 24.1334 24.2474 23.4411C24.4803 23.0881 24.6802 22.7144 24.8445 22.3248C25.044 21.8476 25.1738 21.8476 24.4382 21.1047Z" fill="black"/>
</svg>
