<svg width="32" height="32" viewBox="0 0 32 32" fill="none" xmlns="http://www.w3.org/2000/svg">
<path fill-rule="evenodd" clip-rule="evenodd" d="M27.4495 9.948C27.6155 9.402 27.4495 9 26.6545 9H24.0296C23.3616 9 23.0536 9.347 22.8866 9.73C22.8866 9.73 21.5516 12.926 19.6607 15.002C19.0487 15.604 18.7707 15.795 18.4367 15.795C18.2697 15.795 18.0187 15.604 18.0187 15.057V9.948C18.0187 9.292 17.8347 9 17.2787 9H13.1508C12.7338 9 12.4828 9.304 12.4828 9.593C12.4828 10.214 13.4288 10.358 13.5258 12.106V15.904C13.5258 16.737 13.3728 16.888 13.0388 16.888C12.1488 16.888 9.98387 13.677 8.6989 10.003C8.44991 9.288 8.19791 9 7.52693 9H4.89998C4.15 9 4 9.347 4 9.73C4 10.412 4.88998 13.8 8.14491 18.281C10.3149 21.341 13.3698 23 16.1527 23C17.8217 23 18.0277 22.632 18.0277 21.997V19.684C18.0277 18.947 18.1857 18.8 18.7147 18.8C19.1047 18.8 19.7717 18.992 21.3296 20.467C23.1096 22.216 23.4026 23 24.4046 23H27.0295C27.7795 23 28.1555 22.632 27.9395 21.904C27.7015 21.18 26.8515 20.129 25.7245 18.882C25.1126 18.172 24.1946 17.407 23.9156 17.024C23.5266 16.533 23.6376 16.314 23.9156 15.877C23.9156 15.877 27.1155 11.451 27.4485 9.948H27.4495Z" fill="#161616"/>
</svg>
