<svg width="132" height="132" viewBox="0 0 132 132" fill="none" xmlns="http://www.w3.org/2000/svg">
<path fill-rule="evenodd" clip-rule="evenodd" d="M66 0C79.0536 0 91.814 3.87083 102.668 11.123C113.521 18.3752 121.981 28.683 126.976 40.7429C131.971 52.8028 133.278 66.0732 130.732 78.876C128.185 91.6787 121.899 103.439 112.669 112.669C103.439 121.899 91.6787 128.185 78.876 130.732C66.0732 133.278 52.8028 131.971 40.7429 126.976C28.683 121.981 18.3752 113.521 11.123 102.668C3.87083 91.814 0 79.0536 0 66C0 48.4957 6.95355 31.7084 19.331 19.331C31.7084 6.95355 48.4957 0 66 0Z" fill="white"/>
<path fill-rule="evenodd" clip-rule="evenodd" d="M66 4.19107C78.226 4.19015 90.1777 7.81479 100.344 14.6066C110.509 21.3984 118.433 31.0523 123.112 42.3475C127.791 53.6426 129.016 66.0717 126.631 78.0628C124.246 90.0538 118.359 101.068 109.713 109.713C101.068 118.359 90.0538 124.246 78.0628 126.631C66.0717 129.016 53.6426 127.791 42.3475 123.112C31.0523 118.433 21.3984 110.509 14.6066 100.344C7.81479 90.1777 4.19015 78.226 4.19107 66C4.19231 49.6076 10.7047 33.887 22.2959 22.2959C33.887 10.7047 49.6076 4.19231 66 4.19107ZM65.8696 5.58809C77.8157 5.58717 89.4937 9.1291 99.4265 15.7659C109.359 22.4027 117.101 31.8361 121.672 42.8731C126.243 53.9101 127.438 66.0547 125.106 77.771C122.774 89.4872 117.019 100.249 108.571 108.694C100.122 117.14 89.3581 122.89 77.641 125.217C65.9239 127.545 53.7797 126.345 42.7445 121.77C31.7093 117.195 22.2788 109.45 15.6458 99.5142C9.01289 89.5788 5.47546 77.8995 5.48099 65.9534C5.48716 49.9414 11.8522 34.5873 23.1766 23.2673C34.501 11.9473 49.8576 5.58809 65.8696 5.58809Z" fill="#157EB9"/>
<path fill-rule="evenodd" clip-rule="evenodd" d="M65.702 72.8408C66.1071 72.8082 66.4098 72.4077 66.3353 71.0479L59.732 68.0816H59.7041L58.7448 67.6159C56.8542 66.6613 54.917 65.6833 54.1765 63.4248C54.0119 62.8913 53.8858 62.3466 53.7993 61.795C53.6897 61.0207 53.4734 60.2654 53.1567 59.5504C52.7063 58.6914 52.07 57.9437 51.294 57.3618C50.2414 56.5386 49.09 55.8502 47.8667 55.3128C47.6059 55.1917 46.8422 54.9356 46.0831 54.6795C45.3859 54.4837 44.7079 54.225 44.0574 53.9065L43.1261 53.017L44.4207 53.166C46.8702 53.4503 49.236 54.2315 51.3732 55.4618C53.1288 56.5142 54.5863 57.9252 55.2476 59.7181C55.4822 60.3675 55.6675 61.0338 55.8017 61.7112C56.0765 62.9778 56.2674 63.83 58.0603 64.8312C58.9916 65.3713 60.3653 66.0373 61.7856 66.6939C63.4574 67.4762 65.2084 68.2539 66.4796 68.7801L66.8522 68.9338C68.2492 69.4926 68.5985 69.6369 68.5519 71.5974C68.5522 72.2724 68.3926 72.9378 68.0862 73.5393C67.8101 74.0708 67.3524 74.4856 66.7963 74.7081L66.5728 74.7919C66.4983 74.7919 66.4796 74.7919 66.4703 74.8199C66.3911 74.9694 66.3242 75.1252 66.2701 75.2856L66.1304 75.6348C65.6038 76.9136 64.8914 78.1077 64.0162 79.1786C63.2459 80.1547 62.2979 80.9764 61.2222 81.6001C60.084 82.2259 58.8427 82.6422 57.5573 82.8295C56.4044 83.0048 55.2265 82.9107 54.116 82.5547L53.343 82.2939C52.8123 82.2957 52.2824 82.2505 51.7597 82.1589C51.1862 82.054 50.62 81.9124 50.0646 81.7351C48.3945 81.1637 46.8234 80.3357 45.4079 79.281C44.0417 78.359 42.8564 77.1942 41.9107 75.8444L40.8815 74.1726L42.5161 75.2576L43.1587 75.686C45.5848 77.3112 48.0296 78.9457 50.7631 79.933C51.2191 80.0912 51.686 80.2157 52.1602 80.3055C52.6077 80.4034 53.0625 80.4641 53.5199 80.4871C55.4152 80.5477 56.4304 79.6489 57.2127 78.9551C57.4377 78.7448 57.6757 78.5488 57.9252 78.3683L58.973 77.6558L58.5772 78.8619C58.2308 79.858 57.5622 80.7101 56.6772 81.2834L56.5002 81.3952C57.089 81.298 57.6707 81.1627 58.2419 80.9901C59.5164 80.6321 60.6692 79.9334 61.5761 78.969C62.3742 78.0414 63.0807 77.0386 63.6856 75.9747C64.0861 75.2576 64.3655 74.5777 64.2956 74.2797C64.1999 74.0692 64.0727 73.8745 63.9184 73.7023C63.7772 73.5103 63.6095 73.3394 63.4202 73.1947L61.6227 72.3611H63.6064C63.9166 72.3896 64.221 72.4634 64.5098 72.58C64.8803 72.7302 65.2745 72.8137 65.674 72.8268L65.702 72.8408ZM49.0727 65.5297C49.0166 65.4786 48.9651 65.4224 48.9191 65.362L48.4301 64.7287L49.2311 64.6821C49.5012 64.6821 50.9401 64.6821 52.0251 64.7194C52.5418 64.6944 53.0567 64.7968 53.5246 65.0174C53.6292 65.1377 53.7043 65.2808 53.7439 65.4352C53.7835 65.5896 53.7866 65.7511 53.7528 65.9069C53.7152 66.192 53.5936 66.4595 53.4035 66.6752L53.2871 66.7777C52.7888 67.1456 51.8901 66.9919 51.0053 66.652C50.2952 66.3878 49.6342 66.0069 49.0495 65.525L49.0727 65.5297ZM35.5961 54.6096C35.053 54.7984 34.5265 55.032 34.0222 55.3081C32.9959 55.8797 32.0553 56.593 31.2281 57.4269C29.8567 58.7564 28.8291 60.3992 28.2338 62.2141C27.9495 63.0604 27.8412 63.9559 27.9157 64.8457C27.9901 65.7354 28.2458 66.6005 28.6669 67.3877C28.995 67.9772 29.4059 68.5167 29.887 68.9896C30.7764 69.8837 31.9127 71.02 33.1141 71.616C34.2177 72.1609 35.4052 72.2354 36.5228 71.1504C37.5287 70.1678 37.5054 69.2085 37.4542 68.0397C37.4542 67.709 37.4542 67.3644 37.4542 66.9965C37.5309 64.5149 37.903 62.0512 38.5625 59.6575C39.1346 57.5027 40.0245 55.4451 41.2029 53.5525L41.2355 53.506C40.8543 53.5781 40.4682 53.6216 40.0806 53.6364C39.1462 53.6713 38.2193 53.8167 37.3191 54.0694C36.7231 54.2464 36.1363 54.4233 35.5961 54.6189V54.6096ZM41.3658 52.6212L41.743 52.705L41.9107 52.7469L42.842 52.9611L41.9433 53.2638L41.9852 53.7295C42.0131 54.0368 41.5195 55.5922 41.1051 56.8728C40.8676 57.6039 40.6394 58.2698 40.5928 58.5213C40.3972 59.2896 40.197 60.1465 40.0294 61.0219C39.8655 61.8557 39.752 62.6985 39.6894 63.5459C39.6568 64.0675 39.6335 64.5844 39.6196 65.0873C39.6056 65.5902 39.6196 66.0885 39.6196 66.5868C39.6196 66.9546 39.6522 67.3411 39.6754 67.723C39.8058 69.8884 39.9176 71.7977 37.2819 73.6091C36.588 74.1142 35.7713 74.4238 34.917 74.5057C34.0627 74.5876 33.2021 74.4388 32.4249 74.0748C30.9622 73.3724 29.6459 72.3991 28.5458 71.2062C27.9985 70.6787 27.5026 70.1002 27.065 69.4786C26.6158 68.8371 26.2642 68.1324 26.0219 67.3877C25.4766 65.7489 25.3675 63.9964 25.7052 62.3026C25.5655 62.5307 25.3979 62.7682 25.2395 62.9918C25.0712 63.2172 24.9157 63.4519 24.7739 63.6949C22.5573 67.5414 21.0159 71.034 20.9647 74.5405C20.9134 78.047 22.3617 81.5815 26.0452 85.5816C27.5577 87.1406 29.2222 88.5446 31.0139 89.7727C32.9253 91.146 34.9506 92.3534 37.0677 93.3816C37.3331 93.5027 39.1725 94.3642 40.4624 94.9789L41.0957 95.2863C41.4916 95.4818 41.6639 95.7193 41.5288 95.9894L41.4962 96.0593L41.4357 96.1152C41.0771 96.4458 38.2551 95.1838 36.8348 94.5645L36.141 94.2618C33.7778 93.2879 31.5018 92.1148 29.3375 90.7552C27.3385 89.5179 25.4667 88.086 23.7494 86.4804C21.7122 84.6387 20.1376 82.343 19.1532 79.7793C18.2538 77.1956 18.142 74.4031 18.8319 71.7557C19.1951 70.233 20.336 67.7509 21.6771 65.6042C22.818 63.7787 24.1173 62.1722 25.2442 61.5482L26.0638 61.0825C26.1948 60.7064 26.3504 60.3392 26.5295 59.9835C27.7123 57.534 29.873 55.5037 32.4621 54.0648C33.8735 53.347 35.3906 52.8597 36.9559 52.6212C38.4135 52.3512 39.9083 52.3512 41.3658 52.6212Z" fill="#157EB9"/>
<path fill-rule="evenodd" clip-rule="evenodd" d="M92.5248 97.7916C91.2027 98.1761 89.8551 98.4671 88.4921 98.6624L88.3431 97.8195C89.0229 97.6658 89.796 97.4516 90.5457 97.2141C91.4072 96.9394 92.2175 96.646 92.8135 96.3992L93.0044 96.32C96.7624 94.7694 100.981 93.0277 103.878 90.1126C104.869 89.1377 105.792 88.0952 106.639 86.9926C107.475 85.8974 108.141 84.6822 108.614 83.3883C109.055 82.2022 109.394 80.9808 109.629 79.7374C109.831 78.4971 109.886 77.2372 109.792 75.9841C109.792 75.6767 109.736 75.1738 109.69 74.6895C109.643 74.2052 109.606 73.842 109.564 73.5439L109.098 69.8465L108.977 69.6555C108.214 68.4516 107.353 67.313 106.402 66.2515C105.411 65.2447 104.358 64.3006 103.249 63.4248C102.717 63.0129 102.16 62.6335 101.582 62.2886C100.94 61.8841 100.278 61.5126 99.5984 61.1756L98.546 60.7099C98.2433 60.5749 97.9406 60.4445 97.6146 60.3141C97.9012 60.9214 98.1561 61.5431 98.3783 62.1768C99.1519 64.2134 99.4821 66.3915 99.3469 68.5659L99.2119 69.9629L98.5413 68.7102C98.348 68.1368 98.2214 67.5431 98.1641 66.9407C98.1129 66.5961 98.0663 66.2747 98.0244 66.0931C97.7571 64.9179 97.3293 63.785 96.7531 62.7263C96.4574 62.1616 96.0756 61.6463 95.6215 61.1989L95.5843 61.3665C95.2956 62.6239 94.7647 64.9569 93.9032 65.9348L92.7576 67.2247L93.2513 65.1851C93.8985 62.5121 94.2757 60.9428 93.3444 58.1115C92.9551 57.1077 92.3889 56.1818 91.6726 55.378C91.1536 54.7359 90.5225 54.1932 89.8099 53.7761C89.3296 54.607 88.9571 55.4959 88.7016 56.4211C88.5871 56.8377 88.4311 57.2417 88.2359 57.6272L87.3791 59.0242L87.4396 57.3897C87.4651 56.7646 87.5351 56.1421 87.6492 55.527C87.761 54.9309 87.9053 54.3488 88.0636 53.7574C88.1769 53.1589 88.4272 52.5947 88.7948 52.1089C88.9521 51.9241 89.1653 51.7954 89.4023 51.7425C89.6392 51.6896 89.8869 51.7152 90.108 51.8156L90.2849 51.4849C90.7133 50.6886 91.356 49.5058 92.6133 50.1764C92.9054 50.3403 93.1569 50.5679 93.3491 50.8423L93.4841 51.0006C94.4409 52.192 95.2961 53.4615 96.0406 54.7959L96.2968 55.2196L96.7159 55.9182C97.0139 56.3838 97.3119 56.8961 97.6053 57.4083C98.0291 58.1627 98.1455 58.2139 98.5367 58.3676C98.7322 58.4514 99.0023 58.5539 99.319 58.7355L100.027 59.1034C101.343 59.7316 102.591 60.4931 103.752 61.3759C106.613 63.6117 109 66.3946 110.775 69.5624C112.277 72.259 112.978 75.3287 112.796 78.4102L112.367 78.3776L111.939 78.345C111.995 77.5161 111.608 75.9608 111.054 74.3495C110.631 73.1055 110.124 71.892 109.536 70.7173L110.379 73.3716C110.966 75.0866 111.39 76.8531 111.645 78.6477C111.906 80.4926 111.747 82.3726 111.18 84.1473C110.076 87.4443 107.813 90.1173 105.019 92.2221C101.582 94.8159 97.3399 96.5529 93.4841 97.5448L92.5108 97.8055L92.5248 97.7916ZM77.9632 74.9363C78.0494 74.934 78.1352 74.9493 78.2152 74.9814C78.2953 75.0134 78.368 75.0614 78.4288 75.1226C78.4897 75.1838 78.5379 75.2565 78.5707 75.3364C78.6035 75.4163 78.6201 75.5019 78.6198 75.5882C78.6212 75.6747 78.605 75.7606 78.5722 75.8407C78.5393 75.9207 78.4906 75.9933 78.4288 76.0539C78.3698 76.1146 78.2992 76.1628 78.2213 76.1958C78.1433 76.2287 78.0595 76.2457 77.9748 76.2457C77.8902 76.2457 77.8064 76.2287 77.7284 76.1958C77.6504 76.1628 77.5798 76.1146 77.5208 76.0539C77.4597 75.9931 77.4116 75.9204 77.3796 75.8403C77.3476 75.7602 77.3322 75.6745 77.3345 75.5882C77.3339 75.5037 77.3501 75.4198 77.3822 75.3416C77.4142 75.2633 77.4616 75.1922 77.5213 75.1324C77.5811 75.0727 77.6522 75.0253 77.7305 74.9933C77.8087 74.9612 77.8926 74.945 77.9771 74.9456L77.9632 74.9363ZM76.4125 75.0201C76.4989 75.0192 76.5847 75.0357 76.6646 75.0685C76.7446 75.1013 76.8172 75.1497 76.8781 75.211C76.9395 75.272 76.9879 75.3446 77.0207 75.4246C77.0535 75.5045 77.07 75.5903 77.0691 75.6767C77.0708 75.7629 77.0552 75.8485 77.0232 75.9285C76.9912 76.0085 76.9435 76.0812 76.8828 76.1424C76.8222 76.2041 76.7496 76.2529 76.6696 76.2857C76.5895 76.3185 76.5036 76.3347 76.4171 76.3333C76.3308 76.3337 76.2452 76.317 76.1653 76.2842C76.0854 76.2515 76.0127 76.2033 75.9515 76.1424C75.8323 76.0213 75.7655 75.8582 75.7655 75.6884C75.7655 75.5185 75.8323 75.3554 75.9515 75.2343C76.0124 75.173 76.085 75.1245 76.165 75.0917C76.245 75.059 76.3307 75.0425 76.4171 75.0434L76.4125 75.0201ZM75.9468 73.4135C76.0331 73.4107 76.119 73.4258 76.1992 73.4578C76.2793 73.4899 76.352 73.5382 76.4125 73.5998C76.4734 73.6611 76.5216 73.7337 76.5543 73.8136C76.5871 73.8935 76.6038 73.9791 76.6034 74.0655C76.6048 74.152 76.5886 74.2379 76.5558 74.3179C76.523 74.398 76.4742 74.4705 76.4125 74.5312C76.3522 74.5933 76.2797 74.6424 76.1996 74.6753C76.1194 74.7081 76.0334 74.7241 75.9468 74.7221C75.8603 74.7235 75.7744 74.7073 75.6943 74.6745C75.6143 74.6417 75.5417 74.5929 75.4811 74.5312C75.4196 74.4706 75.3712 74.398 75.3391 74.3179C75.3071 74.2377 75.292 74.1518 75.2949 74.0655C75.2936 73.9794 75.3095 73.8939 75.3414 73.814C75.3734 73.7341 75.4209 73.6613 75.4811 73.5998C75.5423 73.5391 75.615 73.4914 75.695 73.4594C75.775 73.4274 75.8607 73.4118 75.9468 73.4135ZM77.6931 73.3111C77.7792 73.3093 77.8648 73.3249 77.9448 73.3569C78.0248 73.3889 78.0976 73.4367 78.1588 73.4974C78.2201 73.5583 78.2685 73.6309 78.3013 73.7109C78.3341 73.7909 78.3506 73.8766 78.3497 73.963C78.3514 74.0492 78.3358 74.1348 78.3038 74.2148C78.2719 74.2948 78.2241 74.3675 78.1634 74.4287C78.1028 74.4904 78.0303 74.5392 77.9502 74.572C77.8701 74.6048 77.7843 74.6211 77.6977 74.6196C77.6114 74.62 77.5258 74.6033 77.4459 74.5706C77.366 74.5378 77.2933 74.4896 77.2321 74.4287C77.1709 74.3679 77.1229 74.2952 77.0909 74.2151C77.0588 74.135 77.0435 74.0492 77.0458 73.963C77.0452 73.8785 77.0614 73.7946 77.0934 73.7164C77.1255 73.6381 77.1728 73.567 77.2326 73.5072C77.2924 73.4474 77.3635 73.4001 77.4418 73.3681C77.52 73.336 77.6039 73.3198 77.6884 73.3204L77.6931 73.3111ZM88.0124 77.4789C88.5584 77.8261 89.025 78.2847 89.3815 78.8247L90.4013 80.72L88.7342 79.3648C88.1084 78.8715 87.4537 78.4159 86.7737 78.0004C86.2199 77.6558 85.639 77.3568 85.0368 77.1063C82.9179 76.2542 82.0844 76.2169 81.3114 76.175C80.9379 76.169 80.5656 76.1316 80.1984 76.0632L78.997 75.0155L79.3229 74.7733C80.3195 74.0469 82.7363 74.0282 84.9995 74.3495C87.2627 74.6709 89.4467 75.3368 89.9217 75.9747L90.853 77.2507L89.4094 76.6407C89.1533 76.5336 88.1382 76.2029 87.0298 75.9002C86.3264 75.7001 85.6129 75.5369 84.8924 75.4113C84.0559 75.268 83.2077 75.2041 82.3591 75.2204C82.578 75.2436 82.7922 75.2762 83.0064 75.3181C83.9038 75.492 84.7787 75.767 85.6142 76.1377C86.4464 76.5088 87.2416 76.9579 87.9891 77.4789H88.0124ZM80.4312 67.8441L78.1029 70.6381L78.3683 69.6742C78.5779 68.9337 78.536 68.8639 78.4894 68.7801C78.3655 68.5628 78.3242 68.3082 78.373 68.0629C78.3933 67.8725 78.4355 67.685 78.4987 67.5041C78.5362 67.3879 78.5672 67.2698 78.5918 67.1502L78.6198 66.9733C78.507 66.8862 78.4135 66.7768 78.345 66.6519L78.0284 66.135L78.6011 66.3399C78.9883 66.5073 79.3593 66.71 79.7094 66.9453C79.9874 67.1114 80.2386 67.3187 80.4545 67.56L80.5523 67.6951L80.4452 67.8254L80.4312 67.8441ZM80.231 73.8978L79.2997 74.2098L79.7374 73.4787C80.303 72.9986 80.986 72.6772 81.7165 72.5474C82.775 72.3114 83.8547 72.1835 84.939 72.1655C85.8523 72.1448 86.766 72.1915 87.6725 72.3052C88.568 72.4186 89.4495 72.623 90.3035 72.9153L93.5959 74.0329L90.1359 73.7488C89.9124 73.7488 89.5864 73.6883 89.2045 73.6371C87.8031 73.4299 86.3882 73.3271 84.9716 73.3297C83.7003 73.353 81.5256 73.4834 80.2636 73.9025L80.231 73.8978ZM77.8188 78.6337C78.2049 78.8372 78.6275 78.9623 79.0622 79.0016C79.2484 79.0016 79.4813 79.0016 79.7327 79.0016C80.3707 79.0016 81.0925 78.9644 81.5396 79.2438L83.3091 79.7094C83.7422 79.7653 84.1334 79.8305 84.5059 79.9004C85.2714 80.0612 86.052 80.1393 86.8343 80.1332C87.3035 80.1678 87.7432 80.3752 88.0683 80.7153C88.1933 80.8207 88.3256 80.9172 88.4641 81.004C89.0054 81.274 89.5735 81.4863 90.1592 81.6373C90.9376 81.8677 91.7312 82.0435 92.5341 82.1636H92.6831C92.794 82.1698 92.9043 82.1822 93.0138 82.2008H93.0603L95.3142 83.2486H93.3584C92.1651 83.2452 90.9773 83.0887 89.8239 82.7829C88.806 82.5158 87.8342 82.0966 86.9414 81.5396C86.6992 81.5396 86.3826 81.5116 86.01 81.5023C84.9529 81.4744 83.6351 81.4324 83.0111 81.1018L81.0972 80.6641L80.3148 80.6082C79.2977 80.6905 78.2747 80.5523 77.3159 80.2031C76.4085 79.8109 75.6534 79.1342 75.1645 78.2752C75.101 78.1594 75.0012 78.0677 74.8804 78.0144C74.7494 77.9429 74.6248 77.8603 74.5079 77.7676C73.5542 77.0646 72.8338 76.0911 72.4403 74.9735C72.3715 74.7687 72.2776 74.5732 72.1609 74.3915C70.396 72.0631 71.765 70.694 73.5905 68.8825C74.6636 67.9048 75.5877 66.7752 76.3333 65.5297C76.6918 64.8896 77.103 64.2806 77.5627 63.7089C77.9614 63.1976 78.4125 62.7294 78.9085 62.3119C79.5744 61.7717 80.0354 61.4131 80.5197 61.0825C81.004 60.7519 81.5116 60.4445 82.28 60.0161C83.2152 59.5277 84.2157 59.1764 85.251 58.973C85.6375 58.8798 86.0147 58.7914 86.3965 58.6703L86.6806 59.4852C86.2429 59.6575 85.8284 59.8112 85.4419 59.9509C84.2246 60.3492 83.0645 60.905 81.9913 61.604C80.9627 62.2753 80.0346 63.0891 79.2345 64.0209C78.4554 64.9255 77.8151 65.9409 77.3345 67.0338C76.9792 67.6157 76.5641 68.1588 76.0958 68.6543C75.2949 69.5857 74.3263 70.5869 73.9817 70.8989L73.9258 70.9455L73.8652 70.9734C73.6414 71.0796 73.4427 71.232 73.2821 71.4206C73.1216 71.6093 73.0029 71.8298 72.9339 72.0677C72.899 72.1726 72.8878 72.284 72.9013 72.3937C72.9061 72.4364 72.9259 72.476 72.9572 72.5055C73.0457 72.5753 73.2459 72.5846 73.5858 72.5055L74.1959 72.3471L74.1214 72.9711C74.0878 73.2716 74.0381 73.5701 73.9723 73.8652C73.8932 74.2145 73.8932 74.2238 74.3728 75.1365C74.5196 75.418 74.7062 75.6768 74.927 75.9049C75.1618 76.1379 75.414 76.3528 75.6814 76.5475C76.6832 77.3051 77.9422 77.6395 79.1879 77.4789C79.5291 77.458 79.8712 77.458 80.2124 77.4789L80.1705 78.3404C79.9169 78.3685 79.6651 78.4104 79.4161 78.4661C79.1274 78.522 78.834 78.5779 78.6431 78.5965C78.3497 78.6291 78.0749 78.6384 77.8048 78.6431L77.8188 78.6337ZM90.7692 52.1974C91.1883 52.5048 91.5609 52.8075 91.9241 53.1288C92.2873 53.4501 92.6319 53.7761 92.9951 54.1393C93.4235 54.5547 93.8307 54.9915 94.2152 55.4478C94.3828 55.6434 94.5784 55.8809 94.9463 56.286L94.9975 56.3373L94.4387 55.3454C93.8923 54.414 93.3149 53.4672 92.7064 52.5048C92.3665 51.9692 92.1243 51.6945 91.9008 51.6526C91.6773 51.6107 91.3699 51.7643 90.8903 52.1183L90.7506 52.216L90.7692 52.1974Z" fill="#157EB9"/>
<path d="M35.5822 36.9885L35.4797 36.9326C35.4316 36.9102 35.3818 36.8915 35.3307 36.8767L35.1165 36.7883L34.8138 36.7138L32.2852 36.0758C31.878 35.9811 31.4661 35.908 31.0512 35.8569C30.7417 35.821 30.4292 35.821 30.1198 35.8569C29.8542 35.8824 29.5937 35.9467 29.3468 36.0478C29.0949 36.1512 28.8545 36.2807 28.6297 36.4343C28.6813 36.2004 28.7063 35.9614 28.7042 35.7219C28.6968 35.4784 28.6561 35.2371 28.5831 35.0047C28.4936 34.7312 28.3733 34.4688 28.2245 34.2224C28.0312 33.898 27.8165 33.5869 27.5819 33.291L26.1849 31.4796C26.0828 31.3483 25.974 31.2224 25.8589 31.1024C25.7889 31.0259 25.7108 30.9572 25.6261 30.8975C25.5746 30.8609 25.5122 30.8428 25.4491 30.8463C25.3737 30.8568 25.3035 30.891 25.2489 30.944C25.1504 31.0289 25.0614 31.1241 24.9834 31.2281C24.8537 31.3909 24.7325 31.5604 24.6202 31.7357C24.4758 31.9592 24.3641 32.1455 24.2849 32.2898C24.218 32.407 24.1663 32.5322 24.1312 32.6624C24.1049 32.7426 24.1049 32.829 24.1312 32.9092C24.1626 32.9859 24.2067 33.0567 24.2616 33.1188L26.0126 35.205C26.2111 35.4372 26.3888 35.6865 26.5434 35.95C26.6699 36.17 26.7595 36.409 26.8089 36.6579C26.8508 36.8837 26.8412 37.1161 26.7809 37.3378C26.7095 37.5848 26.5995 37.8189 26.455 38.0316L26.1895 38.4368L22.3058 35.8895C22.2523 35.8535 22.1886 35.8356 22.1242 35.8383C22.0483 35.8519 21.9776 35.8856 21.9193 35.9361C21.8191 36.0188 21.7285 36.1126 21.6492 36.2155C21.5514 36.3366 21.4303 36.5042 21.2999 36.6812C21.1861 36.8473 21.0819 37.0199 20.9879 37.1981C20.9259 37.3099 20.8775 37.4287 20.8436 37.552C20.8207 37.6247 20.8207 37.7027 20.8436 37.7755C20.8673 37.8354 20.9098 37.8861 20.9647 37.9199L24.8437 40.5137L24.5736 40.9234C24.4361 41.1457 24.2648 41.3452 24.066 41.5149C23.8939 41.6576 23.6917 41.7595 23.4746 41.8129C23.2319 41.8692 22.9809 41.8802 22.7342 41.8455C22.4092 41.8022 22.0884 41.7322 21.7749 41.6359L19.1578 40.8536C19.0797 40.8277 18.998 40.8135 18.9157 40.8117C18.8305 40.8185 18.7493 40.851 18.6829 40.9048C18.5773 40.9882 18.4833 41.0853 18.4034 41.1935C18.2668 41.3609 18.1409 41.5366 18.0263 41.7198C17.8866 41.934 17.7794 42.1156 17.7003 42.2599C17.6388 42.3732 17.5873 42.4916 17.5466 42.6138C17.5237 42.6866 17.5237 42.7646 17.5466 42.8374C17.5706 42.8959 17.6131 42.945 17.6677 42.9771C17.7523 43.0323 17.8429 43.0776 17.9378 43.1121C18.0904 43.1682 18.2458 43.2164 18.4034 43.2565L20.662 43.8572C21.0413 43.9594 21.4271 44.0357 21.8168 44.0854C22.1109 44.1173 22.4076 44.1173 22.7016 44.0854C22.9391 44.0651 23.1717 44.0069 23.3908 43.9131C23.5988 43.8205 23.7931 43.6999 23.9683 43.5545C23.9125 43.8132 23.8829 44.0769 23.8798 44.3415C23.88 44.6054 23.9209 44.8677 24.0009 45.1192C24.0957 45.4182 24.2238 45.7056 24.3827 45.976C24.6024 46.3444 24.8467 46.6976 25.1138 47.0331L26.7018 49.1053C26.7608 49.1926 26.8245 49.2765 26.8927 49.3568L27.037 49.5245C27.0722 49.5653 27.1112 49.6027 27.1535 49.6362L27.2466 49.7061C27.2985 49.7413 27.361 49.7578 27.4236 49.7526C27.5042 49.7396 27.579 49.7022 27.6378 49.6455C27.7466 49.5597 27.8479 49.4647 27.9405 49.3615C28.0429 49.2311 28.1686 49.0541 28.3177 48.8306C28.462 48.6071 28.5738 48.4208 28.6576 48.2671C28.7248 48.1463 28.7779 48.0182 28.8159 47.8853C28.8417 47.7987 28.8417 47.7065 28.8159 47.6198C28.7875 47.5395 28.7466 47.464 28.6948 47.3963L26.8322 45.1238C26.6126 44.8653 26.4162 44.5879 26.2454 44.2949C26.1109 44.0636 26.0149 43.812 25.9613 43.5499C25.9186 43.3083 25.9297 43.0602 25.9939 42.8234C26.0679 42.5558 26.186 42.3025 26.3432 42.0737L26.6133 41.6639L30.7345 44.3601C30.7846 44.396 30.8452 44.4141 30.9068 44.4114C30.9842 44.4011 31.0569 44.3688 31.1164 44.3182C31.2184 44.2394 31.3106 44.1488 31.3911 44.0481C31.4889 43.9224 31.6053 43.7594 31.7404 43.5545C31.8754 43.3496 31.9779 43.182 32.0524 43.0376C32.1132 42.9258 32.1601 42.8069 32.1921 42.6837C32.2131 42.6075 32.2131 42.5271 32.1921 42.4509C32.1731 42.3897 32.1314 42.338 32.0756 42.3065L27.9405 39.5823L28.2105 39.1772C28.3493 38.9531 28.5221 38.752 28.7228 38.5811C28.9003 38.4293 29.1108 38.3208 29.3375 38.2645C29.6028 38.202 29.8764 38.1832 30.1477 38.2086C30.5014 38.2468 30.8507 38.3185 31.1909 38.4228L34.0175 39.2144C34.1008 39.2377 34.1875 39.2456 34.2736 39.2377C34.3625 39.2275 34.4466 39.192 34.5158 39.1353C34.6205 39.046 34.7157 38.9461 34.7998 38.8372C34.9069 38.7022 35.0373 38.5206 35.1817 38.297C35.326 38.0735 35.4378 37.8966 35.517 37.7476C35.5832 37.6279 35.6363 37.5014 35.6753 37.3704C35.6977 37.2928 35.6977 37.2104 35.6753 37.1329C35.6611 37.0757 35.6284 37.025 35.5822 36.9885ZM37.3378 21.0764C37.2974 21.0272 37.2442 20.9901 37.1841 20.9693C37.1124 20.9501 37.0369 20.9501 36.9652 20.9693C36.8504 21.0102 36.7409 21.065 36.6392 21.1323C36.4779 21.2387 36.3225 21.3537 36.1736 21.4769C36.0199 21.598 35.8942 21.7004 35.801 21.7889C35.72 21.8627 35.6495 21.9473 35.5915 22.0404C35.5485 22.1071 35.5185 22.1814 35.503 22.2592C35.4958 22.3336 35.4958 22.4084 35.503 22.4828L36.0618 30.185C36.0618 30.497 36.1037 30.809 36.1363 31.1164C36.1689 31.4237 36.2015 31.6938 36.2341 31.9127C36.113 31.7357 35.9827 31.5541 35.8476 31.3678C35.7126 31.1815 35.5775 31.0092 35.4518 30.8509L31.4144 25.6819C31.3795 25.6332 31.3283 25.5985 31.27 25.5841C31.1909 25.5715 31.1098 25.5828 31.0372 25.6167C30.9165 25.6636 30.801 25.7229 30.6926 25.7937C30.5203 25.9044 30.354 26.0241 30.1943 26.1523C30.0034 26.3013 29.8497 26.4317 29.7286 26.5388C29.6318 26.629 29.5444 26.7288 29.4679 26.8368C29.4177 26.9018 29.3855 26.9789 29.3747 27.0603C29.374 27.1209 29.3937 27.1799 29.4306 27.228L36.602 36.4856C36.6391 36.5383 36.6909 36.5788 36.751 36.602C36.8207 36.6244 36.8956 36.6244 36.9652 36.602C37.0813 36.5641 37.1912 36.5092 37.2912 36.439C37.4528 36.3313 37.6083 36.2147 37.7569 36.0898C37.9152 35.9687 38.0363 35.8616 38.1294 35.7778C38.2099 35.7073 38.2818 35.6275 38.3436 35.5403C38.3902 35.4732 38.422 35.397 38.4368 35.3167C38.444 35.2362 38.444 35.1551 38.4368 35.0746L37.8779 27.3723C37.8779 27.2187 37.8779 27.0603 37.8453 26.9067C37.8127 26.753 37.8174 26.5853 37.7988 26.441C37.7802 26.2966 37.7662 26.1476 37.7476 26.0126C37.7289 25.8775 37.715 25.7564 37.701 25.654C37.8034 25.803 37.9245 25.98 38.0689 26.1709C38.2132 26.3618 38.3576 26.5574 38.5345 26.753L42.5487 31.8754C42.5836 31.9242 42.6348 31.9589 42.693 31.9732C42.7702 31.9856 42.8493 31.9759 42.9212 31.9453C43.0439 31.8995 43.161 31.8402 43.2704 31.7683C43.4055 31.6798 43.5731 31.5634 43.7641 31.4144C43.926 31.2906 44.0815 31.1585 44.2297 31.0186C44.3265 30.93 44.4139 30.8317 44.4905 30.7252C44.5383 30.661 44.5688 30.5857 44.579 30.5063C44.5837 30.4445 44.5655 30.3832 44.5278 30.334L37.3378 21.0764ZM46.1297 28.9929C46.1639 29.0965 46.2199 29.1916 46.2937 29.2719C46.3676 29.3522 46.4577 29.4158 46.5581 29.4586C46.7436 29.5173 46.9441 29.5057 47.1216 29.426L50.1578 28.164C50.5764 27.9904 50.9825 27.7881 51.3732 27.5586C51.7053 27.3562 52.0172 27.1223 52.3045 26.8601C52.5757 26.6134 52.8165 26.3351 53.0217 26.0312C53.2143 25.7456 53.3605 25.4312 53.4547 25.0998C53.549 24.7528 53.5821 24.3919 53.5525 24.0334C53.5219 23.629 53.4243 23.2324 53.2638 22.8599C53.1179 22.5004 52.9098 22.1694 52.6491 21.882C52.4141 21.6307 52.1367 21.4226 51.8295 21.2673C51.5376 21.1226 51.2222 21.0312 50.8982 20.9973C50.5556 20.9644 50.21 20.9849 49.8737 21.0578C50.081 20.8712 50.2571 20.6527 50.3953 20.4105C50.5275 20.1803 50.6219 19.9303 50.6747 19.6701C50.7253 19.4093 50.7363 19.1425 50.7073 18.8784C50.6733 18.5933 50.5996 18.3143 50.4884 18.0495C50.3129 17.6018 50.0392 17.1992 49.6874 16.8714C49.3616 16.5843 48.9696 16.3827 48.5465 16.2846C48.0682 16.1928 47.5767 16.1928 47.0983 16.2846C46.4578 16.4002 45.8328 16.5893 45.2356 16.8481L42.3764 18.0076C42.1965 18.0776 42.0478 18.2098 41.9572 18.3802C41.9168 18.4844 41.8992 18.5962 41.9057 18.7078C41.9121 18.8195 41.9424 18.9285 41.9945 19.0275L46.1297 28.9929ZM49.0774 22.8693C49.3408 22.8341 49.6086 22.8531 49.8644 22.9251C50.094 22.9953 50.3033 23.1199 50.4744 23.2884C50.6585 23.4773 50.8041 23.7003 50.9028 23.945C51.0016 24.1758 51.0492 24.4252 51.0426 24.6761C51.0379 24.904 50.9788 25.1276 50.8703 25.328C50.7513 25.5364 50.5931 25.7198 50.4046 25.8682C50.1685 26.0494 49.9084 26.1967 49.6316 26.3059L47.9644 27.0091L46.614 23.7494L48.011 23.1766C48.3501 23.0211 48.7089 22.913 49.0774 22.8553V22.8693ZM45.8549 18.6083C46.1404 18.4786 46.4431 18.3908 46.7537 18.3476C46.9726 18.3221 47.1943 18.3411 47.4056 18.4034C47.5992 18.466 47.7738 18.5766 47.9132 18.7248C48.0669 18.893 48.1898 19.0868 48.2764 19.2975C48.3596 19.4975 48.4084 19.71 48.4208 19.9262C48.4347 20.1339 48.4029 20.3421 48.3277 20.5362C48.2465 20.7388 48.1226 20.9214 47.9644 21.0718C47.7426 21.2705 47.4872 21.4282 47.2101 21.5374L45.9155 22.0497L44.7047 19.0926L45.8549 18.6083ZM65.1944 23.2837C65.6412 22.6269 65.9428 21.8823 66.0792 21.0997C66.2397 20.1765 66.257 19.2341 66.1304 18.3057C66.0373 17.3679 65.8034 16.4495 65.4365 15.5815C65.1395 14.886 64.6889 14.2667 64.1187 13.77C63.5658 13.3059 62.9067 12.986 62.2001 12.8386C61.3732 12.6759 60.5252 12.6507 59.6901 12.7641C58.8112 12.8518 57.9575 13.1079 57.1755 13.5185C56.5014 13.8834 55.92 14.398 55.4758 15.0227C55.0297 15.6713 54.728 16.4082 54.591 17.1834C54.4315 18.0846 54.4111 19.0049 54.5304 19.9122C54.6284 20.8627 54.862 21.7942 55.2243 22.6783C55.5107 23.3801 55.9572 24.0053 56.5282 24.5038C57.0789 24.9684 57.7367 25.2885 58.4421 25.4351C59.281 25.6029 60.1421 25.6281 60.9894 25.5096C61.8648 25.4228 62.7154 25.1683 63.4947 24.7599C64.168 24.4062 64.7498 23.9008 65.1944 23.2837ZM63.5692 20.4524C63.5377 20.9509 63.4129 21.4389 63.2013 21.8913C62.9954 22.307 62.6918 22.6665 62.3165 22.9391C61.8686 23.2371 61.353 23.418 60.8171 23.4653C60.2934 23.5459 59.7583 23.506 59.2524 23.3489C58.8318 23.205 58.4605 22.9451 58.1813 22.5992C57.8761 22.2075 57.647 21.7621 57.5061 21.286C57.3265 20.7031 57.2033 20.1043 57.1382 19.4978C57.069 18.948 57.055 18.3926 57.0963 17.84C57.1316 17.355 57.258 16.8811 57.4689 16.443C57.6704 16.0182 57.9725 15.6489 58.349 15.3673C58.7936 15.0618 59.3107 14.8787 59.8485 14.8364C60.3695 14.7543 60.9027 14.7974 61.4038 14.9621C61.8229 15.1138 62.1941 15.3742 62.4795 15.7165C62.787 16.1005 63.0178 16.54 63.1594 17.0111C63.3379 17.5797 63.4596 18.1647 63.5226 18.7574C63.5915 19.3134 63.6055 19.875 63.5645 20.4338L63.5692 20.4524ZM68.1514 14.4825C68.1914 14.5265 68.246 14.5546 68.3051 14.5616L71.3785 14.9575L70.1026 24.8437C70.0936 24.9067 70.1068 24.9709 70.1398 25.0253C70.1886 25.0789 70.2492 25.1204 70.3168 25.1464C70.4371 25.199 70.5618 25.2411 70.6893 25.2721C70.8477 25.3094 71.0479 25.3466 71.2901 25.3792C71.4908 25.4061 71.6929 25.4216 71.8954 25.4258C72.0255 25.4395 72.1566 25.4395 72.2866 25.4258C72.3664 25.4113 72.4415 25.3778 72.5055 25.328C72.5537 25.2868 72.5838 25.2282 72.5893 25.165L73.8652 15.2741L76.9387 15.6746C76.9957 15.6808 77.0531 15.6676 77.1017 15.6373C77.1619 15.5964 77.2101 15.5401 77.2414 15.4744C77.2918 15.3788 77.3294 15.2771 77.3531 15.1717C77.3857 15.0459 77.4137 14.8876 77.4416 14.706C77.4696 14.5244 77.4742 14.3521 77.4789 14.2403C77.4823 14.1292 77.4713 14.018 77.4463 13.9097C77.4326 13.8403 77.4004 13.776 77.3531 13.7234C77.3106 13.6872 77.2591 13.6631 77.2041 13.6536L68.5566 12.536C68.4986 12.5269 68.4393 12.5385 68.3889 12.5685C68.3304 12.6062 68.2837 12.6594 68.2539 12.7222C68.2044 12.8214 68.1669 12.9262 68.1421 13.0342C68.1032 13.1875 68.0737 13.343 68.0536 13.4999C68.0318 13.6542 68.0193 13.8097 68.0164 13.9656C68.0126 14.0737 68.0236 14.1818 68.049 14.2869C68.067 14.3528 68.1005 14.4135 68.1468 14.4638L68.1514 14.4825ZM90.0986 18.3289C90.0667 18.2533 90.0153 18.1874 89.9496 18.138C89.8491 18.055 89.7398 17.9831 89.6237 17.9238C89.4455 17.8308 89.262 17.7483 89.0742 17.677C88.8845 17.5968 88.6901 17.5284 88.4921 17.4721C88.3675 17.436 88.2395 17.4126 88.1102 17.4022C88.0302 17.3941 87.9495 17.4086 87.8774 17.4442C87.8233 17.4747 87.7808 17.5222 87.7563 17.5792L86.0752 21.7982L81.7724 20.0706L83.4535 15.8329C83.4721 15.7738 83.4721 15.7104 83.4535 15.6513C83.4248 15.5776 83.3765 15.5132 83.3138 15.465C83.2114 15.3822 83.1006 15.3103 82.9831 15.2508C82.8045 15.1542 82.6193 15.0702 82.429 14.9994C82.2409 14.9205 82.0481 14.8536 81.8516 14.7991C81.7255 14.7626 81.5959 14.7392 81.465 14.7293C81.3839 14.7171 81.301 14.7301 81.2275 14.7665C81.1723 14.7977 81.1295 14.8471 81.1065 14.9062L76.7897 25.7564C76.7687 25.8152 76.7687 25.8793 76.7897 25.9381C76.8209 26.0154 76.8724 26.083 76.9387 26.1336C77.0414 26.2161 77.1521 26.2878 77.2693 26.3478C77.4137 26.4224 77.5953 26.5062 77.8235 26.5993C78.0118 26.6762 78.2046 26.7415 78.4009 26.7949C78.5254 26.8314 78.6534 26.8548 78.7828 26.8647C78.8624 26.8772 78.9439 26.8642 79.0156 26.8275C79.0696 26.7961 79.1109 26.7466 79.132 26.6878L80.9947 22.031L85.2929 23.7447L83.4302 28.4015C83.4092 28.4602 83.4092 28.5244 83.4302 28.5831C83.4575 28.6588 83.506 28.7251 83.5699 28.774C83.6726 28.8564 83.7833 28.9282 83.9005 28.9882C84.0817 29.0828 84.2683 29.1668 84.4593 29.2397C84.645 29.3193 84.8365 29.3847 85.0321 29.4353C85.1571 29.4707 85.2848 29.4956 85.414 29.5098C85.4955 29.5186 85.5779 29.504 85.6515 29.4679C85.7055 29.4373 85.748 29.3899 85.7725 29.3328L90.0893 18.478C90.1086 18.424 90.1103 18.3653 90.094 18.3103L90.0986 18.3289ZM96.7438 32.9232C97.0961 32.518 97.3566 32.0414 97.5075 31.5261C97.642 31.0469 97.6612 30.5427 97.5634 30.0546C97.4564 29.5358 97.244 29.0444 96.9394 28.611C96.4984 28.01 95.9784 27.4712 95.3934 27.0091L94.1966 26.0126L96.9347 22.7528C96.973 22.707 96.9943 22.6495 96.9953 22.5899C96.9923 22.5098 96.9665 22.4322 96.9208 22.3663C96.8454 22.2601 96.7613 22.1604 96.6693 22.0683C96.5219 21.9231 96.3664 21.7863 96.2036 21.6585C96.0556 21.5284 95.9002 21.4071 95.738 21.2953C95.6304 21.218 95.5149 21.1525 95.3934 21.0997C95.3183 21.0627 95.2346 21.0466 95.1512 21.0531C95.0919 21.0655 95.038 21.0965 94.9975 21.1416L87.7982 29.7426C87.715 29.8316 87.6529 29.9383 87.6166 30.0546C87.5856 30.1507 87.5746 30.2521 87.584 30.3526C87.5937 30.4487 87.6256 30.5411 87.6771 30.6227C87.7352 30.706 87.8041 30.7812 87.882 30.8463L90.1219 32.709C90.7679 33.2896 91.504 33.7614 92.3013 34.106C92.8489 34.33 93.4375 34.4363 94.0289 34.418C94.5478 34.3892 95.0529 34.2409 95.5051 33.9849C95.9788 33.7088 96.3985 33.349 96.7438 32.9232ZM95.0488 30.7345C94.953 30.9977 94.8093 31.2408 94.625 31.4516C94.4797 31.6345 94.305 31.7918 94.1081 31.9173C93.9033 32.0479 93.6732 32.1336 93.4329 32.1688C93.1534 32.2038 92.8697 32.1735 92.604 32.0803C92.1898 31.91 91.8085 31.6689 91.477 31.3678L90.4572 30.5156L92.9718 27.4981L93.9637 28.327C94.3035 28.5915 94.6017 28.9054 94.8485 29.2583C94.9967 29.4897 95.0935 29.7501 95.1326 30.022C95.1604 30.2628 95.1317 30.5067 95.0488 30.7345ZM104.996 29.235C104.986 29.1548 104.958 29.078 104.912 29.0115C104.84 28.9014 104.755 28.7999 104.66 28.7088C104.513 28.5652 104.357 28.4299 104.195 28.3037C104.046 28.1726 103.891 28.0498 103.729 27.9358C103.618 27.8608 103.501 27.7954 103.38 27.7402C103.305 27.7066 103.224 27.6922 103.142 27.6983C103.082 27.7077 103.027 27.7393 102.989 27.7868L95.4911 36.7883C95.4504 36.8344 95.4287 36.8944 95.4306 36.9559C95.4379 37.038 95.4668 37.1168 95.5144 37.1841C95.5896 37.2919 95.6737 37.3932 95.7659 37.4868C95.8777 37.5985 96.0267 37.7336 96.2316 37.8873C96.3806 38.019 96.536 38.1433 96.6972 38.2598C96.8032 38.3357 96.9172 38.3998 97.0372 38.4507C97.1113 38.4853 97.1932 38.4998 97.2747 38.4926C97.3347 38.482 97.389 38.4507 97.4284 38.4042L104.935 29.384C104.976 29.3379 104.997 29.2779 104.996 29.2164V29.235ZM113.741 41.6359C113.676 41.5009 113.578 41.3286 113.452 41.1237C113.326 40.9188 113.257 40.821 113.177 40.7186C113.112 40.6297 113.035 40.5498 112.949 40.4811C112.888 40.4297 112.817 40.3916 112.74 40.3693C112.67 40.3509 112.598 40.34 112.526 40.3367L104.805 40.048C104.493 40.048 104.181 40.048 103.873 40.048C103.566 40.048 103.291 40.048 103.072 40.048C103.263 39.9455 103.459 39.8384 103.659 39.722L104.213 39.3867L109.801 35.9268C109.855 35.8954 109.897 35.8459 109.918 35.7871C109.939 35.7109 109.939 35.6304 109.918 35.5542C109.882 35.4286 109.834 35.3069 109.773 35.191C109.682 35.0087 109.581 34.8314 109.471 34.6601C109.368 34.4882 109.256 34.3219 109.135 34.1619C109.057 34.0565 108.968 33.9598 108.87 33.8731C108.811 33.8144 108.737 33.774 108.656 33.7567C108.596 33.7461 108.535 33.7577 108.483 33.7893L98.4994 39.9362C98.446 39.969 98.4025 40.0157 98.3737 40.0713C98.3492 40.1422 98.3492 40.2192 98.3737 40.2901C98.4029 40.4084 98.4467 40.5226 98.5041 40.6301C98.5926 40.8105 98.6906 40.9861 98.7974 41.1563C98.9045 41.3239 98.993 41.4543 99.0675 41.5568C99.1282 41.645 99.2003 41.7248 99.2817 41.7943C99.3427 41.8497 99.4162 41.8897 99.4959 41.9107C99.5736 41.9313 99.6532 41.9438 99.7334 41.9479L107.45 42.218H107.915H108.381H108.814H109.173C109.01 42.3018 108.828 42.409 108.618 42.53L107.994 42.9072L102.458 46.3439C102.405 46.3752 102.365 46.4249 102.346 46.4836C102.322 46.5578 102.322 46.6375 102.346 46.7118C102.38 46.8371 102.427 46.9588 102.486 47.075C102.56 47.2194 102.658 47.3963 102.788 47.6012C102.89 47.7765 103.003 47.9445 103.128 48.1041C103.205 48.2118 103.294 48.3102 103.394 48.3975C103.451 48.454 103.524 48.4928 103.603 48.5093C103.663 48.5181 103.724 48.5048 103.775 48.472L113.722 42.2972C113.778 42.2654 113.822 42.2164 113.848 42.1575C113.869 42.0845 113.869 42.007 113.848 41.934C113.824 41.8247 113.788 41.7185 113.741 41.6173V41.6359ZM116.27 38.7627C116.248 38.6413 116.209 38.5236 116.153 38.4135C116.068 38.2443 115.975 38.0796 115.874 37.9199C115.791 37.7849 115.699 37.6557 115.599 37.5333C115.533 37.4532 115.454 37.3841 115.366 37.3284C115.309 37.2891 115.24 37.271 115.171 37.2772C115.102 37.2876 115.037 37.313 114.98 37.3517C114.846 37.4322 114.7 37.4874 114.547 37.5147C114.398 37.5334 114.247 37.5191 114.104 37.4728C113.948 37.4195 113.803 37.3391 113.676 37.2353C113.527 37.1174 113.401 36.9739 113.303 36.8115C113.2 36.6469 113.126 36.4658 113.084 36.276C113.047 36.1127 113.039 35.9439 113.061 35.7778C113.082 35.6316 113.134 35.4918 113.215 35.368C113.299 35.2441 113.409 35.1393 113.536 35.0606C113.599 35.0235 113.653 34.9725 113.694 34.9116C113.732 34.8503 113.748 34.7783 113.741 34.7067C113.73 34.6013 113.7 34.4988 113.652 34.404C113.585 34.2424 113.504 34.0866 113.41 33.9383C113.294 33.7567 113.196 33.6077 113.103 33.4727C113.035 33.3781 112.952 33.2962 112.856 33.2305C112.792 33.1839 112.716 33.1579 112.637 33.156C112.557 33.1627 112.48 33.1899 112.414 33.2352C112.095 33.4328 111.819 33.6906 111.599 33.9942C111.392 34.2671 111.256 34.5871 111.203 34.9256C111.155 35.3288 111.189 35.7378 111.305 36.127C111.455 36.6452 111.681 37.1381 111.976 37.5892C112.257 38.0652 112.61 38.4942 113.024 38.8605C113.332 39.1387 113.695 39.3483 114.09 39.4752C114.425 39.5775 114.78 39.5951 115.124 39.5264C115.455 39.4586 115.771 39.3308 116.055 39.1492C116.125 39.107 116.184 39.0497 116.228 38.9816C116.269 38.9098 116.284 38.8257 116.27 38.7441V38.7627ZM61.6366 106.141C61.5126 106.055 61.3737 105.991 61.2268 105.955L59.597 105.489C59.3977 105.428 59.1908 105.395 58.9823 105.391C58.8054 105.385 58.6297 105.422 58.4701 105.498C58.2953 105.582 58.1374 105.697 58.0044 105.838C57.8304 106.017 57.6744 106.212 57.5387 106.421L52.882 112.749H52.8447L52.258 104.93C52.2591 104.688 52.2326 104.445 52.1788 104.209C52.136 104.017 52.0517 103.838 51.932 103.682C51.804 103.526 51.6455 103.398 51.4663 103.305C51.2408 103.189 51.0035 103.097 50.7585 103.03L49.1752 102.588C49.0553 102.549 48.9286 102.534 48.803 102.546C48.6773 102.557 48.5552 102.593 48.4441 102.653C48.3263 102.723 48.2241 102.817 48.144 102.929C48.0639 103.04 48.0076 103.166 47.9784 103.301L45.0028 113.913C44.9864 113.971 44.9864 114.032 45.0028 114.09C45.0344 114.162 45.0883 114.223 45.1564 114.262C45.2608 114.33 45.3715 114.388 45.4871 114.435C45.6653 114.506 45.8472 114.568 46.0319 114.621C46.2175 114.672 46.4056 114.714 46.5954 114.747C46.7199 114.768 46.8462 114.778 46.9726 114.775C47.0527 114.777 47.1313 114.752 47.1961 114.705C47.2431 114.666 47.2772 114.614 47.2939 114.556L50.0088 104.861L50.7073 115.487C50.7035 115.56 50.7248 115.633 50.7678 115.692C50.8179 115.768 50.8829 115.833 50.9587 115.883C51.0657 115.954 51.1796 116.013 51.2987 116.06C51.443 116.116 51.62 116.172 51.8295 116.232C52.0391 116.293 52.216 116.335 52.3651 116.367C52.4901 116.397 52.6184 116.411 52.7469 116.409C52.8369 116.406 52.9255 116.386 53.0077 116.349C53.0788 116.309 53.1382 116.251 53.18 116.181L59.3455 107.468L56.6306 117.159C56.6097 117.218 56.6097 117.282 56.6306 117.341C56.6619 117.412 56.7138 117.472 56.7797 117.513C56.8835 117.582 56.9943 117.64 57.1103 117.685C57.25 117.741 57.4316 117.802 57.6551 117.867C57.842 117.92 58.0317 117.964 58.2232 117.997C58.3464 118.017 58.4711 118.025 58.5958 118.02C58.6745 118.023 58.7517 117.998 58.8147 117.951C58.8617 117.912 58.8958 117.86 58.9124 117.802L61.9347 107.189C61.9755 107.052 61.9928 106.908 61.9859 106.765C61.9849 106.642 61.9546 106.52 61.8974 106.411C61.8366 106.299 61.7464 106.206 61.6366 106.141ZM73.8047 105.461C73.7538 105.407 73.687 105.369 73.6138 105.354C73.4951 105.324 73.3731 105.308 73.2506 105.308C73.0953 105.308 72.8997 105.308 72.6638 105.308C72.5077 105.318 72.3523 105.337 72.1981 105.363C72.091 105.381 71.9863 105.41 71.8861 105.452C71.8123 105.483 71.7457 105.529 71.6905 105.587C71.6383 105.64 71.5929 105.699 71.5555 105.764L67.7137 112.46C67.5554 112.726 67.4017 113 67.248 113.28L66.8848 113.992C66.8848 113.774 66.8848 113.527 66.8848 113.322C66.8848 113.117 66.8848 112.856 66.8522 112.67L66.3865 106.15C66.3838 106.089 66.359 106.031 66.3167 105.987C66.2579 105.933 66.1854 105.896 66.1071 105.88C65.9799 105.854 65.8505 105.84 65.7206 105.838C65.5174 105.828 65.3138 105.828 65.1106 105.838C64.9092 105.849 64.7087 105.87 64.5098 105.904C64.3798 105.924 64.252 105.957 64.128 106.001C64.0497 106.026 63.9802 106.073 63.9278 106.136C63.8903 106.184 63.8721 106.244 63.8765 106.304L64.6915 117.979C64.6952 118.042 64.7161 118.103 64.752 118.156C64.8016 118.21 64.8665 118.249 64.9383 118.267C65.0568 118.299 65.1789 118.314 65.3015 118.314C65.5016 118.324 65.7021 118.324 65.9022 118.314C66.0978 118.314 66.2608 118.286 66.3679 118.267C66.4745 118.253 66.5792 118.226 66.6799 118.188C66.7553 118.158 66.8236 118.112 66.8801 118.053C66.933 117.993 66.9813 117.929 67.0245 117.862L70.871 111.161C70.9501 111.031 71.0293 110.891 71.1085 110.747C71.1876 110.602 71.2621 110.467 71.332 110.328C71.4018 110.188 71.4717 110.067 71.5322 109.941C71.5928 109.815 71.6486 109.713 71.6905 109.62C71.6905 109.801 71.6905 110.016 71.6905 110.253C71.6905 110.491 71.6905 110.719 71.7325 110.984L72.1981 117.504C72.2024 117.564 72.227 117.622 72.268 117.667C72.3267 117.717 72.3971 117.752 72.4729 117.769C72.5993 117.8 72.7291 117.816 72.8594 117.816C73.061 117.826 73.2631 117.826 73.4648 117.816C73.7069 117.816 73.9072 117.774 74.0701 117.75C74.2003 117.73 74.3282 117.697 74.452 117.653C74.5278 117.625 74.5952 117.579 74.6476 117.518C74.6853 117.468 74.7035 117.407 74.6988 117.345L73.8792 105.666C73.8823 105.629 73.8773 105.591 73.8644 105.556C73.8515 105.52 73.8312 105.488 73.8047 105.461ZM84.1985 104.278C83.9407 103.957 83.6248 103.687 83.2672 103.482C82.9058 103.285 82.5112 103.155 82.103 103.1C81.7062 103.042 81.303 103.042 80.9062 103.1C80.5337 103.156 80.2217 103.217 79.9749 103.282C79.7281 103.347 79.4533 103.431 79.1786 103.529L76.4264 104.502C76.319 104.535 76.2192 104.589 76.1329 104.661C76.0465 104.733 75.9754 104.821 75.9235 104.921C75.8736 105.033 75.8478 105.155 75.8478 105.277C75.8478 105.4 75.8736 105.521 75.9235 105.634L79.6489 116.121C79.6663 116.181 79.7063 116.233 79.7607 116.265C79.8298 116.305 79.9094 116.322 79.9889 116.316C80.1207 116.31 80.2517 116.291 80.38 116.26C80.5383 116.223 80.7339 116.162 80.9621 116.083C81.1903 116.004 81.3859 115.925 81.5302 115.855C81.6474 115.798 81.7596 115.731 81.8655 115.655C81.9322 115.607 81.9852 115.543 82.0192 115.469C82.0379 115.408 82.0379 115.343 82.0192 115.282L80.7013 111.557L81.6746 111.212C82.3581 110.988 83.0023 110.658 83.5839 110.234C84.0576 109.89 84.4528 109.449 84.7434 108.94C85.0235 108.454 85.1831 107.908 85.2091 107.347C85.2302 106.712 85.1257 106.079 84.9017 105.485C84.7364 105.046 84.4987 104.638 84.1985 104.278ZM82.4616 108.209C82.3597 108.458 82.2001 108.68 81.9959 108.856C81.7321 109.076 81.4286 109.244 81.1018 109.35L80.0354 109.722L78.6384 105.769L79.6489 105.41C79.889 105.325 80.1349 105.256 80.3847 105.205C80.6306 105.156 80.8838 105.156 81.1298 105.205C81.4069 105.269 81.6614 105.408 81.8655 105.606C82.1345 105.862 82.3333 106.182 82.443 106.537C82.5422 106.82 82.5987 107.117 82.6106 107.417C82.6155 107.688 82.5648 107.958 82.4616 108.209Z" fill="#157EB9"/>
</svg>
