<svg width="52" height="52" viewBox="0 0 52 52" fill="none" xmlns="http://www.w3.org/2000/svg">
<path d="M26 4C17.7294 4 11 10.7427 11 19.0273C11 22.9728 12.7166 28.2196 16.1019 34.6224C18.8206 39.7631 21.9659 44.4118 23.6019 46.7248C23.8783 47.12 24.2397 47.4414 24.6569 47.663C25.074 47.8845 25.5351 48 26.0028 48C26.4705 48 26.9316 47.8845 27.3487 47.663C27.7659 47.4414 28.1273 47.12 28.4038 46.7248C30.0369 44.4118 33.185 39.7631 35.9037 34.6224C39.2834 28.2215 41 22.9747 41 19.0273C41 10.7427 34.2706 4 26 4Z" fill="#157EB9"/>
</svg>
