<svg width="40" height="40" viewBox="0 0 40 40" fill="none" xmlns="http://www.w3.org/2000/svg">
<path fill-rule="evenodd" clip-rule="evenodd" d="M19.5 9C17.0147 9 15 11.0147 15 13.5C15 15.9853 17.0147 18 19.5 18C21.9853 18 24 15.9853 24 13.5C24 11.0147 21.9853 9 19.5 9ZM13 13.5C13 9.91015 15.9101 7 19.5 7C23.0899 7 26 9.91015 26 13.5C26 17.0899 23.0899 20 19.5 20C15.9101 20 13 17.0899 13 13.5ZM17.2727 23C13.8084 23 11 25.8084 11 29.2727C11 30.2267 11.7733 31 12.7273 31H27.2727C28.2267 31 29 30.2267 29 29.2727C29 25.8084 26.1916 23 22.7273 23H17.2727ZM9 29.2727C9 24.7038 12.7038 21 17.2727 21H22.7273C27.2962 21 31 24.7038 31 29.2727C31 31.3312 29.3312 33 27.2727 33H12.7273C10.6688 33 9 31.3312 9 29.2727Z" fill="black"/>
</svg>
