<svg width="40" height="40" viewBox="0 0 40 40" fill="none" xmlns="http://www.w3.org/2000/svg">
<path d="M23.7474 11.6644C24.1144 11.2516 24.0772 10.6195 23.6644 10.2526C23.2516 9.88567 22.6195 9.92285 22.2526 10.3356L14.2618 19.3253C14.1884 19.4054 14.1304 19.4949 14.0877 19.5899C14.0333 19.7109 14.0043 19.8401 14.0005 19.9696C13.9955 20.1332 14.0304 20.2982 14.1061 20.4488C14.1462 20.5288 14.1977 20.6043 14.2602 20.6729L22.2526 29.6644C22.6195 30.0771 23.2516 30.1143 23.6644 29.7474C24.0772 29.3805 24.1143 28.7484 23.7474 28.3356L16.338 20L23.7474 11.6644Z" fill="#141515"/>
</svg>
