<svg width="40" height="40" viewBox="0 0 40 40" fill="none" xmlns="http://www.w3.org/2000/svg">
<path fill-rule="evenodd" clip-rule="evenodd" d="M20 8C18.2868 8 17.3636 9.18797 17.3636 10.1111V12.2222H22.6364V10.1111C22.6364 9.18797 21.7132 8 20 8ZM24.6364 12.2222V10.1111C24.6364 7.92315 22.6504 6 20 6C17.3496 6 15.3636 7.92315 15.3636 10.1111V12.2222H13.1742M16.3636 14.2222H13.174C12.893 14.2222 12.5991 14.3398 12.3571 14.5903C12.112 14.844 11.9437 15.2126 11.9139 15.6301L11.0047 28.3285C10.9884 28.5558 11.0145 28.7833 11.0798 28.9951C11.145 29.2069 11.2465 29.3941 11.3724 29.5472C11.4982 29.7001 11.6441 29.814 11.7967 29.889C11.9487 29.9637 12.1073 29.9999 12.2637 30M16.3636 14.2222H26.826C27.107 14.2222 27.4009 14.3398 27.6429 14.5903C27.888 14.844 28.0563 15.2126 28.0861 15.6301L28.9953 28.3285C29.0116 28.5559 28.9855 28.7833 28.9202 28.9951C28.855 29.2069 28.7535 29.3941 28.6276 29.5472C28.5018 29.7001 28.3559 29.814 28.2033 29.889C28.0513 29.9637 27.8927 29.9999 27.7363 30H12.2637M24.6364 12.2222H26.8258C27.6832 12.2221 28.4866 12.5851 29.0812 13.2006C29.6729 13.8129 30.0198 14.632 30.081 15.4874L30.9902 28.1857C31.0239 28.6573 30.9705 29.1329 30.8316 29.5837C30.6928 30.0347 30.4701 30.4556 30.1721 30.8179C29.8739 31.1803 29.5053 31.4776 29.0854 31.684C28.6648 31.8907 28.2052 31.9998 27.7366 32H12.2637C11.7951 31.9998 11.3352 31.8907 10.9146 31.684C10.4947 31.4776 10.1261 31.1803 9.82793 30.8179C9.52993 30.4556 9.30722 30.0347 9.16836 29.5837C9.02951 29.1329 8.97606 28.6573 9.00981 28.1858L9.91896 15.4874C9.98017 14.632 10.3271 13.8129 10.9188 13.2006C11.5134 12.5851 12.3168 12.2221 13.1742 12.2222M16.3636 15.7778C16.9159 15.7778 17.3636 16.2255 17.3636 16.7778C17.3636 18.0476 18.4138 19.3333 20 19.3333C21.5862 19.3333 22.6364 18.0476 22.6364 16.7778C22.6364 16.2255 23.0841 15.7778 23.6364 15.7778C24.1887 15.7778 24.6364 16.2255 24.6364 16.7778C24.6364 19.0635 22.7774 21.3333 20 21.3333C17.2226 21.3333 15.3636 19.0635 15.3636 16.7778C15.3636 16.2255 15.8114 15.7778 16.3636 15.7778Z" fill="black"/>
<circle cx="30" cy="10" r="10" fill="#FFD540"/>
<path d="M28.4582 13H26.9494V8.86914C26.9494 8.75521 26.951 8.61523 26.9543 8.44922C26.9576 8.27995 26.9624 8.10742 26.9689 7.93164C26.9755 7.7526 26.982 7.59147 26.9885 7.44824C26.9527 7.49056 26.8794 7.5638 26.7688 7.66797C26.6613 7.76888 26.5604 7.86003 26.466 7.94141L25.6457 8.60059L24.9182 7.69238L27.218 5.86133H28.4582V13ZM32.948 8.43945C33.3842 8.43945 33.7716 8.52246 34.1102 8.68848C34.452 8.85449 34.7205 9.09863 34.9158 9.4209C35.1111 9.74316 35.2088 10.1403 35.2088 10.6123C35.2088 11.1266 35.1014 11.571 34.8865 11.9453C34.6749 12.3164 34.3576 12.6012 33.9344 12.7998C33.5145 12.9984 32.9904 13.0977 32.3621 13.0977C31.9878 13.0977 31.6346 13.0651 31.3025 13C30.9738 12.9382 30.6857 12.8421 30.4383 12.7119V11.4082C30.6857 11.5384 30.9819 11.6491 31.327 11.7402C31.6753 11.8281 32.0024 11.8721 32.3084 11.8721C32.6079 11.8721 32.8602 11.833 33.0652 11.7549C33.2703 11.6735 33.4249 11.5498 33.5291 11.3838C33.6365 11.2145 33.6902 10.9997 33.6902 10.7393C33.6902 10.391 33.573 10.124 33.3387 9.93848C33.1043 9.75293 32.7446 9.66016 32.2596 9.66016C32.074 9.66016 31.8803 9.67806 31.6785 9.71387C31.4799 9.74967 31.3139 9.78548 31.1805 9.82129L30.5799 9.49902L30.8484 5.86133H34.7205V7.14062H32.1717L32.0398 8.54199C32.1505 8.51921 32.271 8.49642 32.4012 8.47363C32.5314 8.45085 32.7137 8.43945 32.948 8.43945Z" fill="black"/>
</svg>
