<svg width="40" height="40" viewBox="0 0 40 40" fill="none" xmlns="http://www.w3.org/2000/svg">
<path fill-rule="evenodd" clip-rule="evenodd" d="M17.3636 10.1111C17.3636 9.18797 18.2868 8 20 8C21.7132 8 22.6364 9.18797 22.6364 10.1111V12.2222H17.3636V10.1111ZM24.6364 10.1111V12.2222H26.8258C27.6832 12.2221 28.4866 12.5851 29.0812 13.2006C29.6729 13.8129 30.0198 14.632 30.081 15.4874L30.9902 28.1857C31.0239 28.6573 30.9705 29.1329 30.8316 29.5837C30.6928 30.0347 30.4701 30.4556 30.1721 30.8179C29.8739 31.1803 29.5053 31.4776 29.0854 31.684C28.6648 31.8907 28.2052 31.9998 27.7366 32H12.2637C11.7951 31.9998 11.3352 31.8907 10.9146 31.684C10.4947 31.4776 10.1261 31.1803 9.82793 30.8179C9.52993 30.4556 9.30722 30.0347 9.16836 29.5837C9.02951 29.1329 8.97606 28.6573 9.00981 28.1858L9.91896 15.4874C9.98017 14.632 10.3271 13.8129 10.9188 13.2006C11.5134 12.5851 12.3168 12.2221 13.1742 12.2222H15.3636V10.1111C15.3636 7.92315 17.3496 6 20 6C22.6504 6 24.6364 7.92315 24.6364 10.1111ZM13.174 14.2222C12.893 14.2222 12.5991 14.3398 12.3571 14.5903C12.112 14.844 11.9437 15.2126 11.9139 15.6301L11.0047 28.3285C10.9884 28.5558 11.0145 28.7833 11.0798 28.9951C11.145 29.2069 11.2465 29.3941 11.3724 29.5472C11.4982 29.7001 11.6441 29.814 11.7967 29.889C11.9487 29.9637 12.1073 29.9999 12.2637 30H27.7363C27.8927 29.9999 28.0513 29.9637 28.2033 29.889C28.3559 29.814 28.5018 29.7001 28.6276 29.5472C28.7535 29.3941 28.855 29.2069 28.9202 28.9951C28.9855 28.7833 29.0116 28.5559 28.9953 28.3285L28.0861 15.6301C28.0563 15.2126 27.888 14.844 27.6429 14.5903C27.4009 14.3398 27.107 14.2222 26.826 14.2222H13.174Z" fill="black"/>
<path d="M17.3636 16.7778C17.3636 16.2255 16.9159 15.7778 16.3636 15.7778C15.8114 15.7778 15.3636 16.2255 15.3636 16.7778C15.3636 19.0635 17.2226 21.3333 20 21.3333C22.7774 21.3333 24.6364 19.0635 24.6364 16.7778C24.6364 16.2255 24.1887 15.7778 23.6364 15.7778C23.0841 15.7778 22.6364 16.2255 22.6364 16.7778C22.6364 18.0476 21.5862 19.3333 20 19.3333C18.4138 19.3333 17.3636 18.0476 17.3636 16.7778Z" fill="black"/>
</svg>
