<svg width="40" height="40" viewBox="0 0 40 40" fill="none" xmlns="http://www.w3.org/2000/svg">
<path fill-rule="evenodd" clip-rule="evenodd" d="M16 10C16 9.44772 16.4477 9 17 9H23C23.5523 9 24 9.44772 24 10V11C24 11.5523 24.4477 12 25 12C25.5523 12 26 11.5523 26 11V10C26 8.34315 24.6569 7 23 7H17C15.3431 7 14 8.34315 14 10V11C14 11.5523 14.4477 12 15 12C15.5523 12 16 11.5523 16 11V10ZM7 16C7 14.3431 8.34315 13 10 13H30C31.6569 13 33 14.3431 33 16V18.7C33 20.1031 32.0274 21.3188 30.6585 21.6268L20.6585 23.8768C20.2249 23.9744 19.7751 23.9744 19.3415 23.8768L9.34147 21.6268C7.97257 21.3188 7 20.1031 7 18.7V16ZM10 15C9.44771 15 9 15.4477 9 16V18.7C9 19.1677 9.32419 19.5729 9.78049 19.6756L19.7805 21.9256C19.925 21.9581 20.075 21.9581 20.2195 21.9256L30.2195 19.6756C30.6758 19.5729 31 19.1677 31 18.7V16C31 15.4477 30.5523 15 30 15H10ZM8 22C8.55228 22 9 22.4477 9 23V29C9 29.5523 9.44772 30 10 30H30C30.5523 30 31 29.5523 31 29V23C31 22.4477 31.4477 22 32 22C32.5523 22 33 22.4477 33 23V29C33 30.6569 31.6569 32 30 32H10C8.34315 32 7 30.6569 7 29V23C7 22.4477 7.44772 22 8 22Z" fill="#157EB9"/>
</svg>
