<svg width="40" height="40" viewBox="0 0 40 40" fill="none" xmlns="http://www.w3.org/2000/svg">
<path fill-rule="evenodd" clip-rule="evenodd" d="M11 7C9.34315 7 8 8.34315 8 10V30C8 31.6569 9.34315 33 11 33H17C17.5523 33 18 32.5523 18 32C18 31.4477 17.5523 31 17 31H11C10.4477 31 10 30.5523 10 30V10C10 9.44772 10.4477 9 11 9H17C17.5523 9 18 8.55228 18 8C18 7.44772 17.5523 7 17 7H11ZM31.9173 20.3988C31.8687 20.5107 31.7986 20.6156 31.7071 20.7071L26.7071 25.7071C26.3166 26.0976 25.6834 26.0976 25.2929 25.7071C24.9024 25.3166 24.9024 24.6834 25.2929 24.2929L28.5858 21H17C16.4477 21 16 20.5523 16 20C16 19.4477 16.4477 19 17 19H28.5858L25.2929 15.7071C24.9024 15.3166 24.9024 14.6834 25.2929 14.2929C25.6834 13.9024 26.3166 13.9024 26.7071 14.2929L31.7061 19.2919C31.899 19.4848 31.9976 19.7379 32 19.9908L32 20.0001L32 20.0092C31.9988 20.1415 31.9719 20.2676 31.9241 20.3828L31.9173 20.3988Z" fill="#157EB9"/>
</svg>
