<svg width="40" height="40" viewBox="0 0 40 40" fill="none" xmlns="http://www.w3.org/2000/svg">
<path fill-rule="evenodd" clip-rule="evenodd" d="M25 8C25 7.44772 25.4477 7 26 7H32C32.5523 7 33 7.44772 33 8V14C33 14.5523 32.5523 15 32 15C31.4477 15 31 14.5523 31 14V10.4142L24.7071 16.7071C24.3166 17.0976 23.6834 17.0976 23.2929 16.7071C22.9024 16.3166 22.9024 15.6834 23.2929 15.2929L29.5858 9H26C25.4477 9 25 8.55228 25 8Z" fill="black"/>
<path fill-rule="evenodd" clip-rule="evenodd" d="M15 32C15 32.5523 14.5523 33 14 33L8.00001 33C7.44772 33 7.00001 32.5523 7.00001 32L7.00001 26C7.00001 25.4477 7.44772 25 8.00001 25C8.55229 25 9.00001 25.4477 9.00001 26L9.00001 29.5858L15.2929 23.2929C15.6834 22.9024 16.3166 22.9024 16.7071 23.2929C17.0976 23.6834 17.0976 24.3166 16.7071 24.7071L10.4142 31L14 31C14.5523 31 15 31.4477 15 32Z" fill="black"/>
</svg>
