<svg width="40" height="40" viewBox="0 0 40 40" fill="none" xmlns="http://www.w3.org/2000/svg">
<path fill-rule="evenodd" clip-rule="evenodd" d="M16.3277 11.2081C15.4662 10.9653 14.66 10.9289 14.0109 11.1313C10.6036 12.1921 9.26679 15.8057 10.3798 19.1645C11.1541 21.4932 13.0663 23.6571 15.1088 25.4088C17.0995 27.1161 19.1067 28.3417 20 28.8547C20.8973 28.3365 22.9187 27.0972 24.9162 25.3836C26.9672 23.6242 28.8734 21.4652 29.6203 19.17L29.6219 19.1652C30.7334 15.8085 29.3906 12.1933 25.9816 11.1316C25.3331 10.9307 24.5284 10.9674 23.6692 11.2097C22.8172 11.4499 21.99 11.871 21.3469 12.3346C20.552 12.9076 19.4518 12.9085 18.656 12.3354C18.0111 11.8709 17.1817 11.4487 16.3277 11.2081ZM16.8702 9.28304C17.9663 9.59195 19.0056 10.1225 19.8248 10.7125C19.9217 10.7822 20.08 10.7824 20.1774 10.7121C20.9953 10.1226 22.0325 9.59317 23.1264 9.28474C24.213 8.9784 25.4356 8.86834 26.5745 9.22153L26.5756 9.22186C31.311 10.6962 32.8914 15.65 31.5214 19.7913C30.6017 22.6151 28.3553 25.0685 26.2184 26.9016C24.0584 28.7546 21.8877 30.0764 20.9561 30.6121C20.3621 30.9536 19.6438 30.955 19.0484 30.6145C18.1193 30.0833 15.9615 28.7749 13.8068 26.927C11.6727 25.0967 9.42828 22.6421 8.48173 19.795C7.10977 15.6553 8.67748 10.6974 13.4155 9.222M16.8702 9.28304C15.7818 8.97629 14.5562 8.86637 13.4155 9.222Z" fill="#141515"/>
</svg>
