<svg width="40" height="40" viewBox="0 0 40 40" fill="none" xmlns="http://www.w3.org/2000/svg">
<path fill-rule="evenodd" clip-rule="evenodd" d="M20 4C15.054 4 11 7.95519 11 12.8552C11 15.1709 12.0128 18.0931 13.8409 21.482C15.3193 24.2218 17.0236 26.69 17.9086 27.9165C18.1463 28.2489 18.4586 28.5217 18.8219 28.7109C19.1862 28.9005 19.5904 29 20.0015 29C20.4126 29 20.8168 28.9005 21.1811 28.7109C21.5445 28.5217 21.8569 28.2487 22.0947 27.9162C22.9774 26.6907 24.6838 24.2216 26.1624 21.4814C27.9874 18.0937 29 15.1717 29 12.8552C29 7.95519 24.946 4 20 4ZM20 6C16.124 6 13 9.09396 13 12.8552C13 14.6643 13.8183 17.2274 15.6011 20.5323C17.0218 23.1653 18.6715 25.5559 19.5319 26.7483L19.535 26.7525C19.5919 26.8323 19.6646 26.8947 19.7454 26.9368C19.8261 26.9788 19.9138 27 20.0015 27C20.0892 27 20.1769 26.9788 20.2576 26.9368C20.3384 26.8947 20.4111 26.8323 20.468 26.7525L20.4706 26.7489C21.3302 25.5556 22.9813 23.1652 24.4019 20.5323C26.1817 17.2285 27 14.6654 27 12.8552C27 9.09396 23.876 6 20 6ZM16.577 28.6939C16.7461 29.2197 16.4569 29.783 15.9311 29.952C15.2006 30.1869 14.6712 30.4644 14.3452 30.7308C14.0134 31.002 14 31.1649 14 31.1921C14 31.2173 14.0086 31.3417 14.2382 31.5595C14.4701 31.7794 14.8591 32.0235 15.4225 32.2495C16.544 32.6994 18.162 33 20 33C21.838 33 23.456 32.6994 24.5775 32.2495C25.1409 32.0235 25.5299 31.7794 25.7618 31.5595C25.9914 31.3417 26 31.2173 26 31.1921C26 31.1649 25.9866 31.002 25.6548 30.7308C25.3288 30.4644 24.7994 30.1869 24.0689 29.952C23.5431 29.783 23.2539 29.2197 23.423 28.6939C23.5921 28.1681 24.1554 27.879 24.6811 28.048C25.5509 28.3277 26.334 28.7029 26.9204 29.1822C27.501 29.6567 28 30.3325 28 31.1921C28 31.9423 27.6169 32.5566 27.138 33.0107C26.6615 33.4626 26.0253 33.8236 25.322 34.1057C23.91 34.6721 22.0279 35 20 35C17.9721 35 16.09 34.6721 14.678 34.1057C13.9747 33.8236 13.3385 33.4626 12.862 33.0107C12.3831 32.5566 12 31.9423 12 31.1921C12 30.3325 12.499 29.6567 13.0796 29.1822C13.666 28.7029 14.4491 28.3277 15.3189 28.048C15.8446 27.879 16.4079 28.1681 16.577 28.6939ZM18 13C18 11.8954 18.8954 11 20 11C21.1046 11 22 11.8954 22 13C22 14.1046 21.1046 15 20 15C18.8954 15 18 14.1046 18 13ZM20 9C17.7909 9 16 10.7909 16 13C16 15.2091 17.7909 17 20 17C22.2091 17 24 15.2091 24 13C24 10.7909 22.2091 9 20 9Z" fill="black"/>
</svg>
