<svg width="40" height="40" viewBox="0 0 40 40" fill="none" xmlns="http://www.w3.org/2000/svg">
<path fill-rule="evenodd" clip-rule="evenodd" d="M20 5C13.9765 5 9 9.69689 9 15.5629C9 18.3335 10.2467 21.8557 12.5265 25.9716C14.3684 29.2959 16.4929 32.2926 17.5963 33.7818C17.8732 34.159 18.235 34.4658 18.6524 34.6775C19.0706 34.8895 19.533 35 20.0019 35C20.4708 35 20.9331 34.8895 21.3513 34.6775C21.7688 34.4658 22.1307 34.1589 22.4076 33.7816C23.5083 32.2935 25.6354 29.2959 27.4776 25.971C29.7534 21.8566 31 18.3346 31 15.5629C31 9.69689 26.0235 5 20 5ZM20 7C14.996 7 11 10.8847 11 15.5629C11 17.8136 12.0421 20.9693 14.276 25.0023C16.0583 28.2192 18.1264 31.1379 19.2047 32.5932L19.2079 32.5974C19.2993 32.7222 19.4188 32.8237 19.5568 32.8936C19.6947 32.9636 19.8472 33 20.0019 33C20.1565 33 20.309 32.9636 20.447 32.8936C20.5849 32.8237 20.7045 32.7222 20.7959 32.5975L20.7985 32.5938C21.8756 31.1377 23.9455 28.2191 25.7276 25.0027C27.9579 20.9707 29 17.815 29 15.5629C29 10.8847 25.004 7 20 7Z" fill="#161616"/>
<path fill-rule="evenodd" clip-rule="evenodd" d="M20 19C21.6569 19 23 17.6569 23 16C23 14.3431 21.6569 13 20 13C18.3431 13 17 14.3431 17 16C17 17.6569 18.3431 19 20 19ZM20 21C22.7614 21 25 18.7614 25 16C25 13.2386 22.7614 11 20 11C17.2386 11 15 13.2386 15 16C15 18.7614 17.2386 21 20 21Z" fill="black"/>
</svg>
