<svg width="40" height="40" viewBox="0 0 40 40" fill="none" xmlns="http://www.w3.org/2000/svg">
<circle cx="20" cy="20" r="15" fill="#FFD540"/>
<path fill-rule="evenodd" clip-rule="evenodd" d="M17 14C16.4477 14 16 14.4477 16 15C16 15.5523 16.4477 16 17 16C17.5523 16 18 15.5523 18 15C18 14.4477 17.5523 14 17 14ZM14 15C14 13.3431 15.3432 12 17 12C18.6569 12 20 13.3431 20 15C20 16.6569 18.6569 18 17 18C15.3432 18 14 16.6569 14 15Z" fill="#161616"/>
<path fill-rule="evenodd" clip-rule="evenodd" d="M23 23C22.4477 23 22 23.4477 22 24C22 24.5523 22.4477 25 23 25C23.5523 25 24 24.5523 24 24C24 23.4477 23.5523 23 23 23ZM20 24C20 22.3431 21.3432 21 23 21C24.6569 21 26 22.3431 26 24C26 25.6569 24.6569 27 23 27C21.3432 27 20 25.6569 20 24Z" fill="#161616"/>
<path fill-rule="evenodd" clip-rule="evenodd" d="M26.7372 13.3243C27.1104 13.7314 27.0828 14.364 26.6757 14.7372L14.6757 25.7372C14.2686 26.1103 13.636 26.0828 13.2629 25.6757C12.8897 25.2686 12.9172 24.636 13.3243 24.2628L25.3243 13.2628C25.7314 12.8897 26.364 12.9172 26.7372 13.3243Z" fill="#161616"/>
</svg>
