<svg width="40" height="40" viewBox="0 0 40 40" fill="none" xmlns="http://www.w3.org/2000/svg">
<path fill-rule="evenodd" clip-rule="evenodd" d="M18 10C13.5817 10 10 13.5817 10 18C10 22.4183 13.5817 26 18 26C20.2024 26 22.1953 25.1113 23.643 23.6706C25.1 22.2207 26 20.2164 26 18C26 13.5817 22.4183 10 18 10ZM8 18C8 12.4772 12.4772 8 18 8C23.5228 8 28 12.4772 28 18C28 20.4009 27.1529 22.6053 25.7429 24.3287L31.7071 30.2929C32.0976 30.6834 32.0976 31.3166 31.7071 31.7071C31.3166 32.0976 30.6834 32.0976 30.2929 31.7071L24.3287 25.7429C22.6053 27.1529 20.4009 28 18 28C12.4772 28 8 23.5228 8 18Z" fill="#161616"/>
</svg>
