<svg width="32" height="32" viewBox="0 0 32 32" fill="none" xmlns="http://www.w3.org/2000/svg">
<path d="M28 16C28 22.6274 22.6274 28 16 28C9.37258 28 4 22.6274 4 16C4 9.37258 9.37258 4 16 4C22.6274 4 28 9.37258 28 16Z" fill="white"/>
<path fill-rule="evenodd" clip-rule="evenodd" d="M11.3229 11.3229C11.7534 10.8924 12.4514 10.8924 12.8819 11.3229L16 14.441L19.1181 11.3229C19.5486 10.8924 20.2466 10.8924 20.6771 11.3229C21.1076 11.7534 21.1076 12.4514 20.6771 12.8819L17.559 16L20.6771 19.1181C21.1076 19.5486 21.1076 20.2466 20.6771 20.6771C20.2466 21.1076 19.5486 21.1076 19.1181 20.6771L16 17.559L12.8819 20.6771C12.4514 21.1076 11.7534 21.1076 11.3229 20.6771C10.8924 20.2466 10.8924 19.5486 11.3229 19.1181L14.441 16L11.3229 12.8819C10.8924 12.4514 10.8924 11.7534 11.3229 11.3229Z" fill="#157EB9"/>
</svg>
