<svg width="32" height="32" viewBox="0 0 32 32" fill="none" xmlns="http://www.w3.org/2000/svg">
<path d="M28 16C28 22.6274 22.6274 28 16 28C9.37258 28 4 22.6274 4 16C4 9.37258 9.37258 4 16 4C22.6274 4 28 9.37258 28 16Z" fill="white"/>
<path d="M14.2561 20.6945L10.8158 21.5773C10.578 21.6383 10.3617 21.4221 10.4227 21.1842L11.3055 17.7439C11.3198 17.6879 11.349 17.6367 11.3899 17.5958L17.8094 11.176C17.9356 11.0499 18.14 11.0499 18.2662 11.176L20.8237 13.7335C20.9498 13.8597 20.9498 14.0642 20.8237 14.1903L14.4042 20.6101C14.3632 20.651 14.3121 20.6801 14.2561 20.6945Z" fill="#157EB9"/>
<path d="M19.3075 9.70711C19.6981 9.31658 20.3312 9.31658 20.7218 9.70711L22.303 11.2884C22.6935 11.6789 22.6935 12.3121 22.303 12.7026L22.0257 12.9798C21.8305 13.1751 21.5139 13.1751 21.3186 12.9798L19.0303 10.6915C18.835 10.4962 18.835 10.1796 19.0303 9.98437L19.3075 9.70711Z" fill="#157EB9"/>
</svg>
