<svg width="80" height="80" viewBox="0 0 80 80" fill="none" xmlns="http://www.w3.org/2000/svg">
<path fill-rule="evenodd" clip-rule="evenodd" d="M33 19.5C32.7239 19.5 32.5 19.7239 32.5 20V23C32.5 23.8284 31.8284 24.5 31 24.5C30.1716 24.5 29.5 23.8284 29.5 23V20C29.5 18.067 31.067 16.5 33 16.5H47C48.933 16.5 50.5 18.067 50.5 20V23C50.5 23.8284 49.8284 24.5 49 24.5C48.1716 24.5 47.5 23.8284 47.5 23V20C47.5 19.7239 47.2761 19.5 47 19.5H33ZM15.5 31C15.5 29.067 17.067 27.5 19 27.5H61C62.933 27.5 64.5 29.067 64.5 31V39.2949C64.5 40.9359 63.3598 42.3566 61.7577 42.7119L40.7577 47.3684C40.2586 47.4791 39.7414 47.4791 39.2423 47.3684L18.2423 42.7119C16.6402 42.3566 15.5 40.9359 15.5 39.2949V31ZM19 30.5C18.7239 30.5 18.5 30.7239 18.5 31V39.2949C18.5 39.5293 18.6629 39.7323 18.8918 39.783L39.8918 44.4396C39.9631 44.4554 40.0369 44.4554 40.1082 44.4396L61.1082 39.783C61.3371 39.7323 61.5 39.5293 61.5 39.2949V31C61.5 30.7239 61.2761 30.5 61 30.5H19ZM17 44.5C17.8284 44.5 18.5 45.1716 18.5 46V59C18.5 59.2761 18.7239 59.5 19 59.5H61C61.2761 59.5 61.5 59.2761 61.5 59V46C61.5 45.1716 62.1716 44.5 63 44.5C63.8284 44.5 64.5 45.1716 64.5 46V59C64.5 60.933 62.933 62.5 61 62.5H19C17.067 62.5 15.5 60.933 15.5 59V46C15.5 45.1716 16.1716 44.5 17 44.5Z" fill="#157EB9"/>
</svg>
