<svg width="80" height="80" viewBox="0 0 80 80" fill="none" xmlns="http://www.w3.org/2000/svg">
<path fill-rule="evenodd" clip-rule="evenodd" d="M64.1077 17.9886C64.6663 18.6004 64.6232 19.5492 64.0114 20.1077L18.0114 62.1077C17.3996 62.6663 16.4509 62.6232 15.8923 62.0114C15.3337 61.3996 15.3768 60.4509 15.9886 59.8923L61.9886 17.8923C62.6004 17.3337 63.5492 17.3768 64.1077 17.9886ZM30 20.5C26.4102 20.5 23.5 23.4102 23.5 27C23.5 30.5899 26.4102 33.5 30 33.5C33.5899 33.5 36.5 30.5899 36.5 27C36.5 23.4102 33.5899 20.5 30 20.5ZM20.5 27C20.5 21.7533 24.7533 17.5 30 17.5C35.2467 17.5 39.5 21.7533 39.5 27C39.5 32.2467 35.2467 36.5 30 36.5C24.7533 36.5 20.5 32.2467 20.5 27ZM50 46.5C46.4102 46.5 43.5 49.4102 43.5 53C43.5 56.5899 46.4102 59.5 50 59.5C53.5899 59.5 56.5 56.5899 56.5 53C56.5 49.4102 53.5899 46.5 50 46.5ZM40.5 53C40.5 47.7533 44.7533 43.5 50 43.5C55.2467 43.5 59.5 47.7533 59.5 53C59.5 58.2467 55.2467 62.5 50 62.5C44.7533 62.5 40.5 58.2467 40.5 53Z" fill="#157EB9"/>
</svg>
