<svg width="80" height="80" viewBox="0 0 80 80" fill="none" xmlns="http://www.w3.org/2000/svg">
<path fill-rule="evenodd" clip-rule="evenodd" d="M42.4664 17.4956C46.915 13.0469 56.7234 10.5188 64.7505 18.5459C72.6826 26.478 71.0557 36.9895 66.508 41.5372L63.1251 44.9201C63.191 45.1163 63.2482 45.3167 63.2953 45.5206C63.6561 47.0842 63.4089 48.8789 61.9221 50.3657C60.6261 51.6617 59.144 52.1104 57.7687 52.0181C57.8745 53.3608 57.4915 54.7964 56.2652 56.0226C54.9693 57.3186 53.4871 57.7673 52.1119 57.6749C52.2177 59.0176 51.8346 60.4532 50.6084 61.6795C49.8395 62.4483 48.9933 62.93 48.1254 63.1668C47.8793 64.0469 47.4102 64.8776 46.7181 65.5698L43.8896 68.3982C41.7417 70.5461 38.2593 70.5461 36.1115 68.3982C35.3935 67.6803 34.9156 66.8133 34.6776 65.8968C32.6187 66.9239 30.0498 66.5792 28.3333 64.8627C27.2189 63.7482 26.6826 62.2746 26.7247 60.8144C25.2645 60.8564 23.7909 60.3203 22.6764 59.2058C21.3767 57.9061 20.8635 56.1177 21.1367 54.432C19.8928 54.3239 18.6787 53.7939 17.7267 52.8419C15.8198 50.935 15.6059 47.9764 17.0847 45.8335L13.4956 42.2443C9.04695 37.7957 6.51884 27.9873 14.546 19.9602C22.4781 12.0281 32.9896 13.655 37.5372 18.2027L39.6482 20.3137L42.4664 17.4956ZM40.7148 23.4897C40.7129 23.4917 40.7109 23.4937 40.7089 23.4957C40.7069 23.4977 40.7049 23.4997 40.703 23.5016L36.1868 28.0178C36.3594 28.1618 36.5445 28.3134 36.7376 28.4674C37.225 28.8563 37.7489 29.2493 38.2434 29.5737C38.7584 29.9116 39.1582 30.1193 39.4122 30.2033C41.1816 30.7885 43.9478 31.5705 46.3658 29.1526C46.6471 28.8713 47.0286 28.7132 47.4264 28.7132C47.8243 28.7132 48.2058 28.8713 48.4871 29.1526L61.2129 41.8784C61.2136 41.8791 61.2143 41.8798 61.215 41.8804C61.2165 41.8819 61.218 41.8834 61.2194 41.8849L61.2631 41.9285C61.2763 41.9418 61.2892 41.9552 61.3018 41.9687C61.387 42.0567 61.4722 42.1491 61.5571 42.2455L64.3867 39.4159C67.7476 36.0549 69.4049 27.443 62.6292 20.6673C55.9485 13.9866 48.0477 16.1569 44.5877 19.6169L40.7148 23.4897ZM59.0972 44.0053C59.096 44.0041 59.0948 44.0029 59.0937 44.0018L47.3444 32.2525C43.8421 34.7879 40.0673 33.5798 38.4701 33.0515C37.8385 32.8426 37.1768 32.462 36.5977 32.082C35.998 31.6886 35.3951 31.2342 34.8666 30.8125C34.3355 30.3887 33.8644 29.9859 33.5265 29.6895C33.3572 29.541 33.2203 29.4182 33.1248 29.3319C33.0771 29.2886 33.0397 29.2545 33.0137 29.2306L32.9834 29.2028L32.9749 29.195L32.9716 29.1919C32.9715 29.1918 32.9711 29.1914 33.9914 28.0919L32.9716 29.1919C32.6729 28.9147 32.4993 28.5273 32.4917 28.1199C32.484 27.7124 32.6426 27.3194 32.9307 27.0312L37.5269 22.435L35.4159 20.324C32.055 16.9631 23.443 15.3058 16.6673 22.0815C9.9866 28.7622 12.157 36.6631 15.6169 40.123L19.1421 43.6482L20.5551 42.2353C22.703 40.0874 26.1854 40.0874 28.3333 42.2353C29.633 43.535 30.1463 45.3234 29.873 47.0091C31.1169 47.1172 32.3311 47.6472 33.283 48.5992C34.3975 49.7136 34.9337 51.1873 34.8917 52.6474C36.3518 52.6054 37.8255 53.1416 38.9399 54.2561C39.6578 54.974 40.1358 55.841 40.3738 56.7574C42.4326 55.7303 45.0015 56.0751 46.7181 57.7916C47.3411 58.4146 47.7834 59.1499 48.0449 59.9323C48.1887 59.832 48.3365 59.7088 48.4871 59.5581C49.1215 58.9237 49.2279 58.2434 49.0584 57.5089C48.8716 56.6992 48.3418 55.8773 47.78 55.3155L40.7089 48.2444C40.1231 47.6586 40.1231 46.7089 40.7089 46.1231C41.2947 45.5373 42.2444 45.5373 42.8302 46.1231L49.9013 53.1942C50.0578 53.3507 50.2154 53.5224 50.3706 53.7075C50.4547 53.7627 50.5344 53.8273 50.6084 53.9013C50.9387 54.2316 51.5285 54.5838 52.1724 54.6678C52.7407 54.7419 53.4221 54.6231 54.1439 53.9013C54.7784 53.2668 54.8848 52.5866 54.7153 51.8521C54.5284 51.0424 53.9986 50.2205 53.4368 49.6586L46.3657 42.5876C45.78 42.0018 45.78 41.052 46.3657 40.4663C46.9515 39.8805 47.9013 39.8805 48.4871 40.4663L55.5581 47.5373C55.7147 47.6939 55.8723 47.8655 56.0275 48.0506C56.1115 48.1059 56.1913 48.1705 56.2652 48.2444C56.5955 48.5747 57.1854 48.9269 57.8293 49.0109C58.3975 49.085 59.079 48.9662 59.8008 48.2444C60.4352 47.6099 60.5416 46.9297 60.3721 46.1952C60.1856 45.3872 59.6577 44.567 59.0972 44.0053ZM36.8199 59.9116C37.7949 58.9352 37.7944 57.3533 36.8186 56.3774C35.8422 55.4011 34.2593 55.4011 33.283 56.3774L30.4546 59.2058C29.4783 60.1821 29.4783 61.765 30.4546 62.7413C31.4309 63.7177 33.0138 63.7177 33.9901 62.7413L36.8186 59.9129C36.819 59.9125 36.8194 59.912 36.8199 59.9116ZM28.3333 57.0845L31.1617 54.2561C32.138 53.2797 32.138 51.6968 31.1617 50.7205C30.1856 49.7445 28.6032 49.7442 27.6268 50.7199C27.6266 50.7201 27.6271 50.7197 27.6268 50.7199L24.7978 53.549C23.8215 54.5253 23.8215 56.1082 24.7978 57.0845C25.7741 58.0608 27.357 58.0608 28.3333 57.0845ZM25.5068 48.5973L26.212 47.8921C27.1883 46.9158 27.1883 45.3329 26.212 44.3566C25.2357 43.3803 23.6528 43.3803 22.6764 44.3566L20.2078 46.8253C20.2061 46.8269 20.2045 46.8286 20.2028 46.8302C20.2012 46.8319 20.1995 46.8335 20.1978 46.8352L19.848 47.185C18.8717 48.1613 18.8717 49.7442 19.848 50.7205C20.8243 51.6969 22.4072 51.6969 23.3835 50.7205L25.5049 48.5992C25.5055 48.5986 25.5062 48.5979 25.5068 48.5973ZM44.5967 59.9129C43.6204 58.9366 42.0375 58.9366 41.0612 59.9129L38.2328 62.7413C37.2565 63.7177 37.2565 65.3006 38.2328 66.2769C39.2091 67.2532 40.792 67.2532 41.7683 66.2769L44.5967 63.4484C45.573 62.4721 45.573 60.8892 44.5967 59.9129Z" fill="#157EB9"/>
</svg>
