<svg width="80" height="80" viewBox="0 0 80 80" fill="none" xmlns="http://www.w3.org/2000/svg">
<path fill-rule="evenodd" clip-rule="evenodd" d="M11.5002 30C11.5002 20.8873 18.8875 13.5 28.0002 13.5H53.0002C62.1129 13.5 69.5002 20.8873 69.5002 30V40C69.5002 49.1127 62.1129 56.5 53.0002 56.5H29.7502C27.5343 56.5 25.3525 57.0455 23.3972 58.0882L15.6798 62.2042C13.003 63.6318 9.90146 61.2102 10.6372 58.2671L11.0971 56.4276C11.3648 55.3568 11.5002 54.2572 11.5002 53.1534V30ZM28.0002 16.5C20.5443 16.5 14.5002 22.5442 14.5002 30V53.1534C14.5002 54.5025 14.3347 55.8465 14.0075 57.1553L13.5477 58.9947C13.4426 59.4151 13.8856 59.7611 14.268 59.5571L21.9855 55.4412C24.3752 54.1667 27.0419 53.5 29.7502 53.5H53.0002C60.456 53.5 66.5002 47.4558 66.5002 40V30C66.5002 22.5442 60.456 16.5 53.0002 16.5H28.0002ZM26.5002 31C26.5002 30.1716 27.1718 29.5 28.0002 29.5H53.0002C53.8286 29.5 54.5002 30.1716 54.5002 31C54.5002 31.8284 53.8286 32.5 53.0002 32.5H28.0002C27.1718 32.5 26.5002 31.8284 26.5002 31ZM26.5002 40C26.5002 39.1716 27.1718 38.5 28.0002 38.5H43.0002C43.8286 38.5 44.5002 39.1716 44.5002 40C44.5002 40.8284 43.8286 41.5 43.0002 41.5H28.0002C27.1718 41.5 26.5002 40.8284 26.5002 40Z" fill="#157EB9"/>
</svg>
