<svg width="32" height="32" viewBox="0 0 32 32" fill="none" xmlns="http://www.w3.org/2000/svg">
<path fill-rule="evenodd" clip-rule="evenodd" d="M16 4.25006C14.2131 4.25006 13.25 5.51519 13.25 6.50007V8.75006H18.75V6.50007C18.75 5.51519 17.7869 4.25006 16 4.25006ZM21.25 8.75006V6.50007C21.25 3.98494 19.0131 1.75006 16 1.75006C12.9869 1.75006 10.75 3.98494 10.75 6.50007V8.75006H9.17428M12 11.2501H9.174C8.94638 11.25 8.71035 11.3411 8.51721 11.5323C8.32163 11.7259 8.18687 12.0076 8.16292 12.3276L7.25377 24.4705C7.24074 24.6447 7.26167 24.819 7.31389 24.9812C7.36609 25.1432 7.44723 25.2863 7.54777 25.4031C7.64813 25.5198 7.76479 25.607 7.88729 25.6646C8.00932 25.7219 8.13719 25.75 8.26372 25.7501M12 11.2501H22.826C23.0536 11.25 23.2896 11.3411 23.4828 11.5323C23.6784 11.7259 23.8131 12.0076 23.8371 12.3276L24.7462 24.4705C24.7593 24.6447 24.7383 24.819 24.6861 24.9812C24.6339 25.1432 24.5528 25.2863 24.4522 25.4031C24.3519 25.5198 24.2352 25.607 24.1127 25.6646C23.9907 25.7219 23.8628 25.75 23.7363 25.7501H8.26372M21.25 8.75006H22.8257C23.7365 8.74993 24.5978 9.11849 25.2414 9.75538C25.8825 10.3899 26.263 11.2439 26.3301 12.141L27.2393 24.2839C27.2762 24.7779 27.2176 25.2759 27.0658 25.7475C26.9139 26.2192 26.6708 26.6577 26.3474 27.0336C26.0238 27.4097 25.626 27.7157 25.1759 27.9272C24.7255 28.1389 24.2352 28.2499 23.7367 28.2501H8.26372C7.76523 28.2499 7.2745 28.1389 6.82407 27.9272C6.37396 27.7157 5.97617 27.4097 5.65259 27.0336C5.32921 26.6577 5.08614 26.2192 4.93424 25.7475C4.78238 25.2759 4.72377 24.778 4.76074 24.2839L5.66989 12.1411C5.73704 11.2439 6.1175 10.3899 6.75864 9.75538C7.40218 9.11849 8.26346 8.74994 9.17428 8.75006M12 11.7501C12.6904 11.7501 13.25 12.3097 13.25 13.0001C13.25 14.3923 14.3702 15.7501 16 15.7501C17.6298 15.7501 18.75 14.3923 18.75 13.0001C18.75 12.3097 19.3096 11.7501 20 11.7501C20.6904 11.7501 21.25 12.3097 21.25 13.0001C21.25 15.6078 19.1702 18.2501 16 18.2501C12.8298 18.2501 10.75 15.6078 10.75 13.0001C10.75 12.3097 11.3096 11.7501 12 11.7501Z" fill="black"/>
</svg>
