<svg width="32" height="32" viewBox="0 0 32 32" fill="none" xmlns="http://www.w3.org/2000/svg">
<path fill-rule="evenodd" clip-rule="evenodd" d="M3.75 7C3.75 6.30964 4.30964 5.75 5 5.75H25C25.6904 5.75 26.25 6.30964 26.25 7C26.25 7.69036 25.6904 8.25 25 8.25H5C4.30964 8.25 3.75 7.69036 3.75 7ZM3.75 14C3.75 13.3096 4.30964 12.75 5 12.75H13C13.6904 12.75 14.25 13.3096 14.25 14C14.25 14.6904 13.6904 15.25 13 15.25H5C4.30964 15.25 3.75 14.6904 3.75 14ZM20.8 15.25C18.8394 15.25 17.25 16.8394 17.25 18.8C17.25 20.7606 18.8394 22.35 20.8 22.35C21.7778 22.35 22.6602 21.9571 23.3041 21.3164C23.9521 20.6715 24.35 19.784 24.35 18.8C24.35 16.8394 22.7606 15.25 20.8 15.25ZM14.75 18.8C14.75 15.4587 17.4587 12.75 20.8 12.75C24.1413 12.75 26.85 15.4587 26.85 18.8C26.85 20.0215 26.4875 21.1591 25.8648 22.1102L28.882 25.1142C29.3712 25.6013 29.3729 26.3927 28.8858 26.882C28.3987 27.3712 27.6073 27.3729 27.118 26.8858L24.0943 23.8752C23.1464 24.4916 22.0147 24.85 20.8 24.85C17.4587 24.85 14.75 22.1413 14.75 18.8ZM3.75 21C3.75 20.3096 4.30964 19.75 5 19.75H11C11.6904 19.75 12.25 20.3096 12.25 21C12.25 21.6904 11.6904 22.25 11 22.25H5C4.30964 22.25 3.75 21.6904 3.75 21Z" fill="black"/>
</svg>
