<svg width="32" height="32" viewBox="0 0 32 32" fill="none" xmlns="http://www.w3.org/2000/svg">
<path fill-rule="evenodd" clip-rule="evenodd" d="M8 4.75C6.20507 4.75 4.75 6.20507 4.75 8V12C4.75 13.7949 6.20507 15.25 8 15.25H12C13.7949 15.25 15.25 13.7949 15.25 12V8C15.25 6.20507 13.7949 4.75 12 4.75H8ZM7.25 8C7.25 7.58579 7.58579 7.25 8 7.25H12C12.4142 7.25 12.75 7.58579 12.75 8V12C12.75 12.4142 12.4142 12.75 12 12.75H8C7.58579 12.75 7.25 12.4142 7.25 12V8ZM8 16.75C6.20507 16.75 4.75 18.2051 4.75 20V24C4.75 25.7949 6.20507 27.25 8 27.25H12C13.7949 27.25 15.25 25.7949 15.25 24V20C15.25 18.2051 13.7949 16.75 12 16.75H8ZM7.25 20C7.25 19.5858 7.58579 19.25 8 19.25H12C12.4142 19.25 12.75 19.5858 12.75 20V24C12.75 24.4142 12.4142 24.75 12 24.75H8C7.58579 24.75 7.25 24.4142 7.25 24V20ZM16.75 8C16.75 6.20507 18.2051 4.75 20 4.75H24C25.7949 4.75 27.25 6.20507 27.25 8V12C27.25 13.7949 25.7949 15.25 24 15.25H20C18.2051 15.25 16.75 13.7949 16.75 12V8ZM20 7.25C19.5858 7.25 19.25 7.58579 19.25 8V12C19.25 12.4142 19.5858 12.75 20 12.75H24C24.4142 12.75 24.75 12.4142 24.75 12V8C24.75 7.58579 24.4142 7.25 24 7.25H20ZM20 16.75C18.2051 16.75 16.75 18.2051 16.75 20V24C16.75 25.7949 18.2051 27.25 20 27.25H24C25.7949 27.25 27.25 25.7949 27.25 24V20C27.25 18.2051 25.7949 16.75 24 16.75H20ZM19.25 20C19.25 19.5858 19.5858 19.25 20 19.25H24C24.4142 19.25 24.75 19.5858 24.75 20V24C24.75 24.4142 24.4142 24.75 24 24.75H20C19.5858 24.75 19.25 24.4142 19.25 24V20Z" fill="black"/>
</svg>
