<svg width="32" height="32" viewBox="0 0 32 32" fill="none" xmlns="http://www.w3.org/2000/svg">
<path fill-rule="evenodd" clip-rule="evenodd" d="M24.8839 7.11612C25.372 7.60427 25.372 8.39573 24.8839 8.88388L17.7678 16L24.8839 23.1161C25.372 23.6043 25.372 24.3957 24.8839 24.8839C24.3957 25.372 23.6043 25.372 23.1161 24.8839L16 17.7678L8.88388 24.8839C8.39573 25.372 7.60427 25.372 7.11612 24.8839C6.62796 24.3957 6.62796 23.6043 7.11612 23.1161L14.2322 16L7.11612 8.88388C6.62796 8.39573 6.62796 7.60427 7.11612 7.11612C7.60427 6.62796 8.39573 6.62796 8.88388 7.11612L16 14.2322L23.1161 7.11612C23.6043 6.62796 24.3957 6.62796 24.8839 7.11612Z" fill="black"/>
</svg>
