<svg width="32" height="32" viewBox="0 0 32 32" fill="none" xmlns="http://www.w3.org/2000/svg">
<path fill-rule="evenodd" clip-rule="evenodd" d="M9.71918 5.25349C11.0447 4.8424 12.4019 4.98552 13.5186 5.29867C14.4146 5.54993 15.2663 5.94036 16.0004 6.39144C16.7333 5.94077 17.5835 5.5511 18.4778 5.30023C19.5927 4.98744 20.9467 4.84431 22.27 5.25265L22.2722 5.25334C27.3441 6.82457 28.905 12.0753 27.5172 16.254C26.5842 19.1017 24.3571 21.4749 22.3844 23.1588C20.3626 24.8846 18.3398 26.1096 17.4684 26.6082C16.5585 27.1289 15.4502 27.1311 14.5377 26.6119C13.6676 26.1168 11.6557 24.9034 9.63787 23.1815C7.66418 21.4972 5.44314 19.1247 4.48658 16.2617L4.48622 16.2606C3.09573 12.0859 4.64152 6.82708 9.71918 5.25349ZM12.8557 7.65192C12.0162 7.4165 11.1708 7.36305 10.4462 7.58783C7.00861 8.653 5.73602 12.2608 6.81109 15.4893C7.55591 17.718 9.36871 19.7352 11.2304 21.3239C13.0854 22.9069 14.9517 24.0334 15.7514 24.4885C15.9091 24.5782 16.0919 24.5779 16.2496 24.4877C17.0525 24.0283 18.9311 22.8895 20.7917 21.3013C22.659 19.7074 24.4686 17.6938 25.1891 15.4925L25.1909 15.4871C26.2638 12.26 24.9841 8.65324 21.546 7.58794M21.546 7.58794C20.8224 7.36466 19.9788 7.41835 19.141 7.65341C18.3058 7.88772 17.5022 8.2952 16.8743 8.74559C16.5842 8.95365 16.2636 9.02243 16.001 9.02252C15.7386 9.0226 15.4179 8.95417 15.1277 8.7462C14.4982 8.29514 13.6927 7.88665 12.8557 7.65192" fill="black"/>
</svg>
