<svg width="32" height="32" viewBox="0 0 32 32" fill="none" xmlns="http://www.w3.org/2000/svg">
<path fill-rule="evenodd" clip-rule="evenodd" d="M14.1833 4.49078C15.191 3.50307 16.8091 3.50307 17.8169 4.49078L28.4753 14.9369C30.1437 16.5721 28.9482 19.3478 26.6585 19.3478H26.4312V25.6741C26.4312 27.1083 25.2605 28.25 23.8423 28.25H17.0454V22.6436C17.0454 22.6132 17.0172 22.5677 16.9565 22.5677H15.0437C14.983 22.5677 14.9548 22.6132 14.9548 22.6436V28.25H8.15771C6.73947 28.25 5.56879 27.1083 5.56879 25.6741V19.3478H5.34168C3.05189 19.3478 1.85642 16.5721 3.52486 14.9369L14.1833 4.49078ZM16.0001 6.25C15.9718 6.25 15.9499 6.25984 15.9331 6.27624L5.27476 16.7223C5.25945 16.7373 5.25417 16.7468 5.25284 16.7493C5.25135 16.7521 5.25058 16.7556 5.25058 16.7556C5.24976 16.7602 5.24888 16.7754 5.25779 16.7968C5.26669 16.8182 5.27923 16.831 5.28712 16.8365C5.29055 16.8389 5.29443 16.841 5.30009 16.8428C5.30542 16.8445 5.31826 16.8478 5.34168 16.8478H8.06879V25.6741C8.06879 25.7045 8.09702 25.75 8.15771 25.75H12.4548V22.6436C12.4548 21.2094 13.6255 20.0677 15.0437 20.0677H16.9565C18.3747 20.0677 19.5454 21.2094 19.5454 22.6436V25.75H23.8423C23.903 25.75 23.9312 25.7045 23.9312 25.6741V16.8478H26.6585C26.6819 16.8478 26.6947 16.8445 26.7 16.8428C26.7057 16.841 26.7096 16.8389 26.713 16.8365C26.7209 16.831 26.7335 16.8182 26.7424 16.7968C26.7513 16.7754 26.7504 16.7602 26.7496 16.7556C26.7496 16.7556 26.7488 16.7521 26.7473 16.7493C26.746 16.7468 26.7407 16.7373 26.7254 16.7223L16.067 6.27624C16.0503 6.25984 16.0284 6.25 16.0001 6.25Z" fill="black"/>
</svg>
