<svg width="32" height="32" viewBox="0 0 32 32" fill="none" xmlns="http://www.w3.org/2000/svg">
<path fill-rule="evenodd" clip-rule="evenodd" d="M4.75 8C4.75 7.30964 5.30964 6.75 6 6.75H26C26.6904 6.75 27.25 7.30964 27.25 8C27.25 8.69036 26.6904 9.25 26 9.25H6C5.30964 9.25 4.75 8.69036 4.75 8ZM4.75 16C4.75 15.3096 5.30964 14.75 6 14.75H26C26.6904 14.75 27.25 15.3096 27.25 16C27.25 16.6904 26.6904 17.25 26 17.25H6C5.30964 17.25 4.75 16.6904 4.75 16ZM4.75 24C4.75 23.3096 5.30964 22.75 6 22.75H26C26.6904 22.75 27.25 23.3096 27.25 24C27.25 24.6904 26.6904 25.25 26 25.25H6C5.30964 25.25 4.75 24.6904 4.75 24Z" fill="black"/>
</svg>
