<svg width="32" height="32" viewBox="0 0 32 32" fill="none" xmlns="http://www.w3.org/2000/svg">
<path fill-rule="evenodd" clip-rule="evenodd" d="M16 13.5C16.8284 13.5 17.5 12.8284 17.5 12C17.5 11.1716 16.8284 10.5 16 10.5C15.1716 10.5 14.5 11.1716 14.5 12C14.5 12.8284 15.1716 13.5 16 13.5ZM16 16C18.2091 16 20 14.2091 20 12C20 9.79086 18.2091 8 16 8C13.7909 8 12 9.79086 12 12C12 14.2091 13.7909 16 16 16Z" fill="black"/>
<path fill-rule="evenodd" clip-rule="evenodd" d="M16 3C11.0575 3 7 6.98318 7 11.9267C7 14.259 8.00907 17.1679 9.79334 20.5007C11.2388 23.2 12.9038 25.6294 13.7678 26.836C14.021 27.1925 14.3539 27.4855 14.7415 27.6888C15.1303 27.8928 15.5621 28 16.0015 28C16.4408 28 16.8726 27.8928 17.2615 27.6888C17.6492 27.4855 17.9821 27.1923 18.2354 26.8356C19.097 25.6303 20.7642 23.1998 22.21 20.5C23.9911 17.1685 25 14.2598 25 11.9267C25 6.98318 20.9425 3 16 3ZM9.43243 11.9267C9.43243 8.37873 12.3589 5.45098 16 5.45098C19.6411 5.45098 22.5676 8.37873 22.5676 11.9267C22.5676 13.6394 21.7949 16.1085 20.0685 19.3376C18.6934 21.9052 17.0941 24.2388 16.2605 25.4047L16.2574 25.4091C16.224 25.4563 16.1825 25.4916 16.1383 25.5148C16.0943 25.5379 16.0475 25.549 16.0015 25.549C15.9554 25.549 15.9087 25.5379 15.8646 25.5148C15.8204 25.4916 15.7789 25.4563 15.7455 25.4091L15.7418 25.4039C14.9076 24.239 13.3093 21.905 11.934 19.3368C10.2049 16.1071 9.43243 13.6382 9.43243 11.9267Z" fill="black"/>
</svg>
