<svg width="32" height="32" viewBox="0 0 32 32" fill="none" xmlns="http://www.w3.org/2000/svg">
<path fill-rule="evenodd" clip-rule="evenodd" d="M12.25 10C12.25 7.92893 13.9289 6.25 16 6.25C18.0711 6.25 19.75 7.92893 19.75 10C19.75 12.0711 18.0711 13.75 16 13.75C13.9289 13.75 12.25 12.0711 12.25 10ZM16 3.75C12.5482 3.75 9.75 6.54822 9.75 10C9.75 13.4518 12.5482 16.25 16 16.25C19.4518 16.25 22.25 13.4518 22.25 10C22.25 6.54822 19.4518 3.75 16 3.75ZM8.25 24.8182C8.25 22.2952 10.2952 20.25 12.8182 20.25H19.1818C21.7048 20.25 23.75 22.2952 23.75 24.8182C23.75 25.3328 23.3328 25.75 22.8182 25.75H9.18182C8.66719 25.75 8.25 25.3328 8.25 24.8182ZM12.8182 17.75C8.91453 17.75 5.75 20.9145 5.75 24.8182C5.75 26.7135 7.28648 28.25 9.18182 28.25H22.8182C24.7135 28.25 26.25 26.7135 26.25 24.8182C26.25 20.9145 23.0855 17.75 19.1818 17.75H12.8182Z" fill="#161616"/>
</svg>
