<svg width="32" height="32" viewBox="0 0 32 32" fill="none" xmlns="http://www.w3.org/2000/svg">
<path fill-rule="evenodd" clip-rule="evenodd" d="M14 7.25C10.2721 7.25 7.25 10.2721 7.25 14C7.25 17.7279 10.2721 20.75 14 20.75C15.8588 20.75 17.5384 20.0016 18.7613 18.7846C19.9921 17.5598 20.75 15.8706 20.75 14C20.75 10.2721 17.7279 7.25 14 7.25ZM4.75 14C4.75 8.89137 8.89137 4.75 14 4.75C19.1086 4.75 23.25 8.89137 23.25 14C23.25 16.1096 22.5436 18.0546 21.3546 19.6108L26.882 25.1142C27.3712 25.6013 27.3729 26.3927 26.8858 26.882C26.3987 27.3712 25.6073 27.3729 25.118 26.8858L19.5835 21.3753C18.0319 22.5518 16.0973 23.25 14 23.25C8.89137 23.25 4.75 19.1086 4.75 14Z" fill="black"/>
</svg>
