<svg width="20" height="20" viewBox="0 0 20 20" fill="none" xmlns="http://www.w3.org/2000/svg">
<path fill-rule="evenodd" clip-rule="evenodd" d="M5.75725 5.75736C6.14777 5.36683 6.78094 5.36683 7.17146 5.75736L9.99989 8.58578L12.8283 5.75736C13.2188 5.36683 13.852 5.36683 14.2425 5.75736C14.6331 6.14788 14.6331 6.78105 14.2425 7.17157L11.4141 10L14.2425 12.8284C14.6331 13.2189 14.6331 13.8521 14.2425 14.2426C13.852 14.6332 13.2188 14.6332 12.8283 14.2426L9.99989 11.4142L7.17146 14.2426C6.78094 14.6332 6.14777 14.6332 5.75725 14.2426C5.36672 13.8521 5.36672 13.2189 5.75725 12.8284L8.58568 10L5.75725 7.17157C5.36672 6.78104 5.36672 6.14788 5.75725 5.75736Z" fill="#141515"/>
</svg>
