<svg width="20" height="20" viewBox="0 0 20 20" fill="none" xmlns="http://www.w3.org/2000/svg">
<path fill-rule="evenodd" clip-rule="evenodd" d="M5.19134 3.53806C5.37818 3.61545 5.5 3.79777 5.5 4V12C5.5 12.2761 5.27614 12.5 5 12.5C4.72386 12.5 4.5 12.2761 4.5 12V5.20711L3.35355 6.35355C3.15829 6.54881 2.84171 6.54881 2.64645 6.35355C2.45118 6.15829 2.45118 5.84171 2.64645 5.64645L4.64645 3.64645C4.78945 3.50345 5.0045 3.46067 5.19134 3.53806Z" fill="black"/>
<path fill-rule="evenodd" clip-rule="evenodd" d="M9 4.5C8.10807 4.5 7.5 5.24309 7.5 6C7.5 6.27614 7.27614 6.5 7 6.5C6.72386 6.5 6.5 6.27614 6.5 6C6.5 4.75691 7.49193 3.5 9 3.5C9.42713 3.5 10.0334 3.65626 10.5432 4.03682C11.0745 4.4334 11.5 5.07575 11.5 6C11.5 6.67426 11.162 7.2434 10.7544 7.71817C10.3712 8.16447 9.87351 8.58645 9.40813 8.98103C9.37981 9.00504 9.35162 9.02895 9.32357 9.05276C8.81785 9.48204 8.35434 9.88388 8.01352 10.3046C7.67586 10.7215 7.5 11.1075 7.5 11.5H11C11.2761 11.5 11.5 11.7239 11.5 12C11.5 12.2761 11.2761 12.5 11 12.5H7C6.72386 12.5 6.5 12.2761 6.5 12V11.5C6.5 10.7879 6.82414 10.1842 7.23648 9.67517C7.64566 9.17005 8.18215 8.70996 8.67643 8.29039C8.69692 8.27299 8.71735 8.25566 8.73769 8.2384C9.22455 7.8253 9.66589 7.45083 9.99563 7.06676C10.338 6.66796 10.5 6.32574 10.5 6C10.5 5.42425 10.251 5.0666 9.94501 4.83818C9.61756 4.59374 9.22382 4.5 9 4.5Z" fill="black"/>
<path fill-rule="evenodd" clip-rule="evenodd" d="M13.7976 4.89988C13.5757 5.14259 13.5 5.40219 13.5 5.5C13.5 5.77614 13.2761 6 13 6C12.7239 6 12.5 5.77614 12.5 5.5C12.5 5.09781 12.71 4.60741 13.0596 4.22512C13.426 3.82427 13.9831 3.5 14.7143 3.5C16.2268 3.5 17 4.82774 17 6C17 6.62652 16.791 7.12754 16.3944 7.53589C16.3127 7.62 16.2239 7.69915 16.1291 7.77417C16.287 7.84441 16.4385 7.93013 16.5803 8.0335C17.1492 8.4483 17.5 9.10467 17.5 10C17.5 10.6771 17.1424 11.3039 16.6457 11.7478C16.1446 12.1956 15.4574 12.5 14.7143 12.5C13.9542 12.5 13.3925 12.1811 13.0275 11.769C12.679 11.3756 12.5 10.8855 12.5 10.5C12.5 10.2239 12.7239 10 13 10C13.2761 10 13.5 10.2239 13.5 10.5C13.5 10.6145 13.571 10.8744 13.7761 11.106C13.9647 11.3189 14.2601 11.5 14.7143 11.5C15.1855 11.5 15.6411 11.3044 15.9793 11.0022C16.3219 10.6961 16.5 10.3229 16.5 10C16.5 9.39533 16.2794 9.0517 15.9911 8.8415C15.6782 8.61331 15.2243 8.5 14.7143 8.5C14.4776 8.5 14.2733 8.33404 14.2249 8.10237C14.1764 7.8707 14.297 7.63679 14.5139 7.54192C15.0731 7.29727 15.4443 7.07874 15.6771 6.83911C15.8875 6.62246 16 6.37348 16 6C16 5.17226 15.4875 4.5 14.7143 4.5C14.3027 4.5 14.0025 4.67573 13.7976 4.89988Z" fill="black"/>
<rect x="2" y="16" width="16" height="1" rx="0.5" fill="black"/>
</svg>
