<svg width="20" height="20" viewBox="0 0 20 20" fill="none" xmlns="http://www.w3.org/2000/svg">
<circle cx="10" cy="10" r="8" fill="#FC4E4E"/>
<path fill-rule="evenodd" clip-rule="evenodd" d="M9.99991 12C9.44762 12 8.99991 12.4477 8.99991 13C8.99991 13.5523 9.44762 14 9.99991 14C10.5522 14 10.9999 13.5523 10.9999 13C10.9999 12.4477 10.5522 12 9.99991 12ZM8.91679 10.0035L8.6244 6.49482C8.55734 5.69014 9.19236 5 9.99983 5C10.8073 5 11.4423 5.69014 11.3753 6.49482L11.0829 10.0035C11.0359 10.5667 10.5651 11 9.99983 11C9.4346 11 8.96373 10.5667 8.91679 10.0035Z" fill="white"/>
</svg>
