<svg width="20" height="20" viewBox="0 0 20 20" fill="none" xmlns="http://www.w3.org/2000/svg">
<path fill-rule="evenodd" clip-rule="evenodd" d="M3.33958 9C4.90791 10.5839 7.49223 12 10 12C12.5078 12 15.0921 10.5839 16.6604 9C15.0921 7.41612 12.5078 6 10 6C7.49223 6 4.90791 7.41612 3.33958 9ZM1.21913 8.37531C2.96661 6.19095 6.43442 4 10 4C13.5656 4 17.0334 6.19095 18.7809 8.37531C19.073 8.74052 19.073 9.25948 18.7809 9.62469C17.0334 11.809 13.5656 14 10 14C6.43442 14 2.96661 11.809 1.21913 9.62469C0.926956 9.25948 0.926956 8.74052 1.21913 8.37531ZM4.84303 13.211C5.27881 13.5503 5.35702 14.1786 5.01773 14.6143L3.78904 16.1924C3.44975 16.6282 2.82143 16.7064 2.38566 16.3671C1.94988 16.0278 1.87167 15.3995 2.21096 14.9637L3.43965 13.3857C3.77894 12.9499 4.40726 12.8717 4.84303 13.211ZM15.3857 13.211C15.8215 12.8717 16.4498 12.9499 16.7891 13.3857L18.0178 14.9637C18.3571 15.3995 18.2789 16.0278 17.8431 16.3671C17.4073 16.7064 16.779 16.6282 16.4397 16.1924L15.211 14.6143C14.8717 14.1786 14.95 13.5503 15.3857 13.211ZM10 14.5781C10.5523 14.5781 11 15.0258 11 15.5781V17.5781C11 18.1304 10.5523 18.5781 10 18.5781C9.44772 18.5781 9 18.1304 9 17.5781V15.5781C9 15.0258 9.44772 14.5781 10 14.5781Z" fill="black"/>
</svg>
