<svg width="20" height="20" viewBox="0 0 20 20" fill="none" xmlns="http://www.w3.org/2000/svg">
<path fill-rule="evenodd" clip-rule="evenodd" d="M11 2C11 1.44772 10.5523 1 10 1C9.44772 1 9 1.44772 9 2V4C9 4.55228 9.44772 5 10 5C10.5523 5 11 4.55228 11 4V2ZM3.78904 3.38566C3.44975 2.94988 2.82143 2.87167 2.38566 3.21096C1.94988 3.55025 1.87167 4.17857 2.21096 4.61434L3.43965 6.19242C3.77894 6.62819 4.40726 6.70641 4.84303 6.36712C5.27881 6.02782 5.35702 5.39951 5.01773 4.96373L3.78904 3.38566ZM18.0178 4.61434C18.3571 4.17857 18.2789 3.55025 17.8431 3.21096C17.4073 2.87167 16.779 2.94988 16.4397 3.38566L15.211 4.96373C14.8717 5.39951 14.95 6.02782 15.3857 6.36712C15.8215 6.70641 16.4498 6.62819 16.7891 6.19242L18.0178 4.61434ZM10 14C7.49223 14 4.90791 12.5839 3.33958 11C4.90791 9.41612 7.49223 8 10 8C8.34315 8 7 9.34315 7 11C7 12.6569 8.34315 14 10 14ZM10 14C11.6569 14 13 12.6569 13 11C13 9.34315 11.6569 8 10 8C12.5078 8 15.0921 9.41612 16.6604 11C15.0921 12.5839 12.5078 14 10 14ZM10 6C6.43442 6 2.96661 8.19095 1.21913 10.3753C0.926956 10.7405 0.926956 11.2595 1.21913 11.6247C2.96661 13.809 6.43442 16 10 16C13.5656 16 17.0334 13.809 18.7809 11.6247C19.073 11.2595 19.073 10.7405 18.7809 10.3753C17.0334 8.19095 13.5656 6 10 6Z" fill="#141515"/>
</svg>
