<svg width="20" height="20" viewBox="0 0 20 20" fill="none" xmlns="http://www.w3.org/2000/svg">
<path d="M5.56987 11.8562C5.62714 11.5372 5.51694 11.2125 5.27485 10.9865M5.56987 11.8562L4.98937 15.0997C4.84533 15.9021 5.72519 16.5142 6.4775 16.1346L5.27485 10.9865M5.56987 11.8562L6.06205 11.9443L6.062 11.9445M5.56987 11.8562L6.062 11.9445M5.27485 10.9865L2.8114 8.68907M5.27485 10.9865L2.8114 8.68907M6.062 11.9445L5.48155 15.1878L5.4815 15.1881C5.41891 15.5367 5.824 15.9043 6.25227 15.6882L6.25272 15.688L9.29753 14.1555L9.29793 14.1553C9.73824 13.9342 10.2623 13.9339 10.7025 14.1555M6.062 11.9445L10.7025 14.1555M10.7025 14.1555L10.4777 14.6022L10.7026 14.1556L13.7473 15.688L13.7477 15.6882C14.1755 15.9041 14.5813 15.5372 14.5193 15.1879L10.7025 14.1555ZM2.8114 8.68907C2.20226 8.12176 2.5372 7.13168 3.37889 7.01373L2.8114 8.68907ZM13.938 11.9445L14.5193 15.1875L9.52422 3.27666C9.71464 2.90774 10.2855 2.90778 10.4758 3.27679L11.9985 6.22926C11.9986 6.22937 11.9986 6.22947 11.9987 6.22957C12.2251 6.6692 12.6565 6.96485 13.1453 7.03299C13.1454 7.033 13.1454 7.03301 13.1455 7.03302L16.5517 7.50889C17.0092 7.573 17.1251 8.06493 16.8478 8.32318L16.8476 8.32341L14.3841 10.6209L14.384 10.621C14.0211 10.9597 13.8499 11.454 13.938 11.9445Z" fill="white" stroke="#DFF1FF" stroke-linecap="round" stroke-linejoin="round"/>
<path fill-rule="evenodd" clip-rule="evenodd" d="M12.4431 6.00039L10.9202 3.04758C10.5436 2.31747 9.45638 2.31747 9.07979 3.04758L7.55781 6.00039C7.40856 6.29027 7.11961 6.49128 6.78554 6.53779L3.37889 7.01373C2.5372 7.13168 2.20226 8.12176 2.8114 8.68907L5.27485 10.9865C5.51694 11.2125 5.62714 11.5372 5.56987 11.8562L4.98937 15.0997C4.84533 15.9021 5.72519 16.5142 6.4775 16.1346L9.52232 14.6022C9.82168 14.4518 10.1792 14.4518 10.4777 14.6022L13.2145 15.9796V6.53779C12.8804 6.49128 12.5923 6.29027 12.4431 6.00039Z" fill="#FFD540"/>
</svg>
