<svg width="20" height="20" viewBox="0 0 20 20" fill="none" xmlns="http://www.w3.org/2000/svg">
<path fill-rule="evenodd" clip-rule="evenodd" d="M8.14043 3.31235C7.73159 3.82341 7.5 4.57626 7.5 5.5V7.5H12.5V5.5C12.5 4.57626 12.2684 3.82341 11.8596 3.31235C11.4627 2.8163 10.8619 2.5 10 2.5C9.13813 2.5 8.53727 2.8163 8.14043 3.31235ZM13.5 7.5V5.5C13.5 4.42374 13.2316 3.42659 12.6404 2.68765C12.0373 1.9337 11.1381 1.5 10 1.5C8.86187 1.5 7.96273 1.9337 7.35957 2.68765C6.76841 3.42659 6.5 4.42374 6.5 5.5V7.5H6C4.61929 7.5 3.5 8.61929 3.5 10V16C3.5 17.3807 4.61929 18.5 6 18.5H14C15.3807 18.5 16.5 17.3807 16.5 16V10C16.5 8.61929 15.3807 7.5 14 7.5H13.5ZM6 8.5C5.17157 8.5 4.5 9.17157 4.5 10V16C4.5 16.8284 5.17157 17.5 6 17.5H14C14.8284 17.5 15.5 16.8284 15.5 16V10C15.5 9.17157 14.8284 8.5 14 8.5H6ZM9.5 11.5C9.5 11.2239 9.72386 11 10 11C10.2761 11 10.5 11.2239 10.5 11.5C10.5 11.7761 10.2761 12 10 12C9.72386 12 9.5 11.7761 9.5 11.5ZM10 13C9.72386 13 9.5 13.2239 9.5 13.5V15.5C9.5 15.7761 9.72386 16 10 16C10.2761 16 10.5 15.7761 10.5 15.5V13.5C10.5 13.2239 10.2761 13 10 13Z" fill="black"/>
</svg>
