<svg width="20" height="20" viewBox="0 0 20 20" fill="none" xmlns="http://www.w3.org/2000/svg">
<path fill-rule="evenodd" clip-rule="evenodd" d="M10.9202 3.04758L12.4431 6.00039C12.5923 6.29027 12.8804 6.49128 13.2145 6.53779L16.6211 7.01373C17.4628 7.13168 17.7977 8.12176 17.1886 8.68907L14.7252 10.9865C14.4831 11.2125 14.3729 11.5372 14.4301 11.8562L15.0115 15.0997C15.1547 15.9021 14.2748 16.5142 13.5225 16.1346L10.4777 14.6022C10.1792 14.4518 9.82168 14.4518 9.52232 14.6022L6.4775 16.1346C5.72519 16.5142 4.84533 15.9021 4.98937 15.0997L5.56987 11.8562C5.62714 11.5372 5.51694 11.2125 5.27485 10.9865L2.8114 8.68907C2.20226 8.12176 2.5372 7.13168 3.37889 7.01373L6.78554 6.53779C7.11961 6.49128 7.40856 6.29027 7.55781 6.00039L9.07979 3.04758C9.45638 2.31747 10.5436 2.31747 10.9202 3.04758Z" fill="#FFD540"/>
</svg>
