<svg width="48" height="48" viewBox="0 0 48 48" fill="none" xmlns="http://www.w3.org/2000/svg">
<path fill-rule="evenodd" clip-rule="evenodd" d="M24.7 9C16.1396 9 9.20001 15.9396 9.20001 24.5C9.20001 28.0729 10.4077 31.3609 12.4377 33.9821C12.4448 33.9909 12.4518 33.9999 12.4586 34.009L12.4686 34.0219C12.7426 34.4004 12.7205 34.932 12.3907 35.2877C11.2222 36.5478 9.81555 38.137 8.69743 39.4155C8.51923 39.6193 8.34851 39.815 8.18743 40H24.7C33.2604 40 40.2 33.0604 40.2 24.5C40.2 15.9396 33.2604 9 24.7 9ZM6.00001 41L5.24076 40.3492C4.9866 40.6457 4.92832 41.0631 5.0915 41.4179C5.25469 41.7727 5.60948 42 6.00001 42H24.7C34.365 42 42.2 34.165 42.2 24.5C42.2 14.835 34.365 7 24.7 7C15.035 7 7.20001 14.835 7.20001 24.5C7.20001 28.2334 8.37015 31.6959 10.3632 34.5377C9.30656 35.6947 8.1414 37.0133 7.19195 38.0989C6.63053 38.7408 6.14303 39.3031 5.79582 39.7049C5.6222 39.9058 5.48361 40.0667 5.38834 40.1774L5.24143 40.3484L6.00001 41ZM19.2998 23.3C19.2998 22.1954 20.1952 21.3 21.2998 21.3H26.9998C28.1044 21.3 28.9998 22.1954 28.9998 23.3V34.5C28.9998 35.6046 28.1044 36.5 26.9998 36.5H24.4704C23.3658 36.5 22.4704 35.6046 22.4704 34.5V27.0714H21.2998C20.1952 27.0714 19.2998 26.176 19.2998 25.0714V23.3ZM21.2998 23.3V25.0714H22.4704C23.575 25.0714 24.4704 25.9668 24.4704 27.0714V34.5H26.9998V23.3H21.2998ZM22.3999 16.25C22.3999 15.2835 23.1834 14.5 24.1499 14.5C25.1164 14.5 25.8999 15.2835 25.8999 16.25C25.8999 17.2165 25.1164 18 24.1499 18C23.1834 18 22.3999 17.2165 22.3999 16.25ZM24.1499 12.5C22.0788 12.5 20.3999 14.1789 20.3999 16.25C20.3999 18.3211 22.0788 20 24.1499 20C26.221 20 27.8999 18.3211 27.8999 16.25C27.8999 14.1789 26.221 12.5 24.1499 12.5Z" fill="#D741BF"/>
</svg>
