<svg width="48" height="48" viewBox="0 0 48 48" fill="none" xmlns="http://www.w3.org/2000/svg">
<path fill-rule="evenodd" clip-rule="evenodd" d="M25.1413 15.1636C25.5679 14.1398 26.3203 12.6466 27.4409 11.4241C28.5534 10.2105 29.9621 9.33005 31.742 9.33005C33.2072 9.33005 34.9403 9.78337 36.1795 10.6988C35.2483 11.2819 34.2735 12.2352 33.5418 13.6427C32.953 14.7755 32.5273 16.1906 32.3965 17.9284L32.3952 17.9481L32.3934 17.9803L32.3888 18.0673C32.3851 18.1406 32.38 18.2424 32.3749 18.3564C32.3651 18.5787 32.3542 18.8671 32.3542 19.0783C32.3542 22.6043 32.3512 25.197 32.0311 27.1818C31.7177 29.1248 31.1224 30.3314 30.0425 31.1954C29.2784 31.8066 28.2481 32.4548 27.0336 32.9815C27.0104 32.9897 26.9874 32.9989 26.9646 33.0089C26.9487 33.016 26.933 33.0234 26.9176 33.0312C24.1139 34.2174 20.3603 34.7421 16.6359 32.7106C16.2821 32.5176 15.847 32.5558 15.5323 32.8076C14.4842 33.6461 12.9424 34.7478 11.4122 35.837L11.1882 35.9965C10.1353 36.7457 9.09728 37.4844 8.27249 38.102C8.19624 37.9818 8.12015 37.85 8.04978 37.7093C7.72682 37.0633 7.58874 36.3743 7.88028 35.7222C8.61916 34.7497 9.35257 34.0183 9.9022 33.5298C10.184 33.2793 10.4162 33.0937 10.5744 32.9732C10.6535 32.913 10.7139 32.8691 10.7526 32.8416C10.7719 32.8278 10.7858 32.8182 10.7939 32.8126L10.8005 32.808L10.802 32.8071C11.26 32.5003 11.3835 31.8805 11.0775 31.4215C10.7712 30.962 10.1495 30.8384 9.68996 31.1447L9.6866 31.147L9.68006 31.1514L9.66008 31.165C9.64375 31.1763 9.62143 31.1918 9.59354 31.2117C9.53776 31.2513 9.45963 31.3082 9.36234 31.3823C9.16785 31.5305 8.89629 31.748 8.57347 32.0349C7.92862 32.6081 7.07444 33.4628 6.22101 34.6007C6.18502 34.6487 6.15341 34.6998 6.12658 34.7535C5.38868 36.2293 5.79006 37.6619 6.26093 38.6037C6.5006 39.083 6.77663 39.4763 6.99043 39.7484C7.09823 39.8856 7.19261 39.995 7.26227 40.0724C7.29717 40.1112 7.32605 40.1421 7.34754 40.1647L7.37413 40.1923L7.38299 40.2013L7.38626 40.2046L7.38873 40.2071C7.74904 40.5674 8.32264 40.5992 8.72053 40.2809C9.55258 39.6152 10.9178 38.6437 12.3824 37.6014L12.572 37.4664C13.8657 36.5456 15.2164 35.5816 16.2693 34.7709C18.5798 35.8924 20.8686 36.2059 22.9737 36.044L23.7847 37.9626H18.8441C18.2918 37.9626 17.8441 38.4103 17.8441 38.9626C17.8441 39.5149 18.2918 39.9626 18.8441 39.9626H25.2709C25.286 39.9629 25.301 39.9629 25.3161 39.9626H29.5706C29.5854 39.9629 29.6003 39.9629 29.6153 39.9626H33.8917C34.444 39.9626 34.8917 39.5149 34.8917 38.9626C34.8917 38.4103 34.444 37.9626 33.8917 37.9626H30.2441L28.678 34.4144C29.721 33.8894 30.6084 33.3039 31.2919 32.7571C32.899 31.4714 33.6472 29.7222 34.0056 27.5003C34.3543 25.3384 34.3543 22.5853 34.3542 19.1654V19.1653V19.0783C34.3542 19.0223 34.3553 18.9559 34.3571 18.8839C35.1195 18.7101 35.8812 18.3775 36.456 18.0946C36.6466 18.0008 36.8268 17.9071 36.9921 17.8181C36.9977 17.8657 37.0001 17.9223 37.0001 18C37.0001 18.4581 37.3114 18.8577 37.7556 18.9697C38.1998 19.0817 38.6634 18.8775 38.8806 18.4741C39.8039 16.7593 40.1338 15.2115 40.0287 13.83C39.9237 12.4487 39.3901 11.315 38.7189 10.418C37.0507 8.18869 33.9739 7.33005 31.742 7.33005C29.2226 7.33005 27.3173 8.59922 25.9666 10.0727C24.624 11.5373 23.7642 13.2686 23.2951 14.3944C23.0827 14.9042 23.3238 15.4897 23.8336 15.7021C24.3434 15.9145 24.9289 15.6734 25.1413 15.1636ZM37.5163 12.2362C37.0242 12.4924 36.4249 12.9439 35.8804 13.6665C36.7483 14.1339 37.4609 14.7117 37.9464 15.3263C38.0435 14.8321 38.0651 14.3849 38.0345 13.9817C37.9847 13.3272 37.7942 12.7486 37.5163 12.2362ZM35.9386 16.1134C35.6757 15.8836 35.3417 15.6477 34.9368 15.4293C34.793 15.8214 34.669 16.255 34.5728 16.7338C34.8936 16.6161 35.2343 16.4668 35.5728 16.3002C35.7003 16.2374 35.8228 16.1746 35.9386 16.1134ZM26.8401 35.2034C26.2601 35.4113 25.6497 35.5923 25.0146 35.7353L25.956 37.9626H28.0579L26.8401 35.2034ZM24.2814 18.5823C22.8023 18.7767 20.939 19.5018 18.8879 20.9668C17.5539 21.9197 16.5653 23.2542 15.6263 24.8844C15.1592 25.6953 14.7156 26.5586 14.2457 27.4733L14.2457 27.4734L14.2385 27.4873C13.9594 28.0307 13.6715 28.5907 13.3682 29.1581C18.4269 30.1813 22.4047 28.8144 24.1309 27.4334C25.5568 26.2927 26.6703 24.4612 27.229 22.7108C27.5067 21.8407 27.631 21.0401 27.6104 20.402C27.5891 19.7409 27.4199 19.3949 27.273 19.248C26.7625 18.7375 25.7773 18.3857 24.2814 18.5823ZM24.0207 16.5993C25.8836 16.3545 27.5855 16.7321 28.6872 17.8338C29.3465 18.493 29.5803 19.4368 29.6094 20.3375C29.6392 21.2613 29.4612 22.2946 29.1343 23.3189C28.4838 25.3572 27.1789 27.5563 25.3803 28.9952C22.9468 30.9419 17.7695 32.4754 11.5946 30.7913C11.2962 30.7099 11.0522 30.495 10.9338 30.2092C10.8155 29.9235 10.836 29.599 10.9895 29.3304C11.5142 28.4122 11.9881 27.4911 12.4596 26.5734L12.4781 26.5373C12.9398 25.6386 13.4019 24.739 13.8932 23.8861C14.8889 22.1575 16.0499 20.5362 17.7254 19.3394C19.9737 17.7335 22.141 16.8464 24.0207 16.5993ZM31.2046 13.7042C31.7982 13.7042 32.2794 13.223 32.2794 12.6294C32.2794 12.0358 31.7982 11.5545 31.2046 11.5545C30.611 11.5545 30.1298 12.0358 30.1298 12.6294C30.1298 13.223 30.611 13.7042 31.2046 13.7042Z" fill="#157EB9"/>
</svg>
