<svg width="48" height="48" viewBox="0 0 48 48" fill="none" xmlns="http://www.w3.org/2000/svg">
<path fill-rule="evenodd" clip-rule="evenodd" d="M19.1304 12C19.1304 11.4477 19.5781 11 20.1304 11H27.8695C28.4218 11 28.8695 11.4477 28.8695 12V13.2558C28.8695 13.8081 29.3172 14.2558 29.8695 14.2558C30.4218 14.2558 30.8695 13.8081 30.8695 13.2558V12C30.8695 10.3431 29.5264 9 27.8695 9H20.1304C18.4735 9 17.1304 10.3431 17.1304 12V13.2558C17.1304 13.8081 17.5781 14.2558 18.1304 14.2558C18.6827 14.2558 19.1304 13.8081 19.1304 13.2558V12ZM8 19.1628C8 17.506 9.34315 16.1628 11 16.1628H37C38.6569 16.1628 40 17.506 40 19.1628V23.306C40 24.713 39.0222 25.9309 37.6485 26.2351L24.6485 29.1132C24.2213 29.2078 23.7787 29.2078 23.3515 29.1132L10.3515 26.2351C8.9778 25.9309 8 24.713 8 23.306V19.1628ZM11 18.1628C10.4477 18.1628 10 18.6105 10 19.1628V23.306C10 23.775 10.3259 24.181 10.7838 24.2824L23.7838 27.1605C23.9262 27.192 24.0738 27.192 24.2162 27.1605L37.2162 24.2824C37.6741 24.181 38 23.775 38 23.306V19.1628C38 18.6105 37.5523 18.1628 37 18.1628H11ZM9 27.2326C9.55228 27.2326 10 27.6803 10 28.2326V36C10 36.5523 10.4477 37 11 37H37C37.5523 37 38 36.5523 38 36V28.2326C38 27.6803 38.4477 27.2326 39 27.2326C39.5523 27.2326 40 27.6803 40 28.2326V36C40 37.6569 38.6569 39 37 39H11C9.34315 39 8 37.6569 8 36V28.2326C8 27.6803 8.44772 27.2326 9 27.2326Z" fill="#157EB9"/>
</svg>
