<svg width="48" height="48" viewBox="0 0 48 48" fill="none" xmlns="http://www.w3.org/2000/svg">
<path fill-rule="evenodd" clip-rule="evenodd" d="M24.4479 6.29288C24.1109 5.95582 23.5828 5.90352 23.1861 6.16794C22.0357 6.93491 20.2812 8.32275 18.6932 10.0336C17.2271 11.6131 15.8141 13.5622 15.2303 15.6251C12.3169 17.3562 10.3823 20.3737 9.12962 23.4043C7.81498 26.5849 7.19237 29.9208 7.00346 32.1878C6.98312 32.4319 7.05305 32.6749 7.2 32.8709C8.30544 34.3448 10.0565 36.5995 12.8642 38.3573C15.6922 40.1277 19.5349 41.3604 24.7749 40.9047C25.2917 40.8598 25.6883 40.4272 25.6883 39.9085C25.6883 39.0062 25.7371 37.1801 27.118 35.9819C27.973 36.2773 28.9391 36.5158 29.867 36.6498C30.9597 36.8076 32.1482 36.8433 33.0523 36.5419C33.8027 36.2918 34.47 35.7878 35.0406 35.2228C35.619 34.65 36.1531 33.9591 36.629 33.254C37.5806 31.8445 38.3613 30.2857 38.8432 29.278C38.9953 28.9599 38.9687 28.5852 38.7731 28.2918C38.2918 27.5699 37.6426 26.1588 36.958 24.4472C36.2843 22.7631 35.6083 20.8707 35.0666 19.2455C34.4224 17.3129 32.9922 15.9202 31.4356 14.9566C30.1225 14.1438 28.6678 13.6024 27.3729 13.2784C26.8166 9.56099 25.3071 7.15199 24.4479 6.29288ZM30.1529 34.6703C29.1753 34.5292 28.1435 34.2515 27.3211 33.9249C26.6632 33.6625 25.8131 33.3672 25.1395 33.141C24.7999 33.027 24.5004 32.9289 24.2856 32.8594C24.1782 32.8245 24.0918 32.7968 24.0322 32.7777L23.9633 32.7557L23.9385 32.7479C23.4119 32.5813 22.85 32.8731 22.6834 33.3996C22.5168 33.9262 22.8086 34.4881 23.3351 34.6547L23.3363 34.6551L23.3571 34.6617L23.4228 34.6826C23.4804 34.701 23.5643 34.728 23.6691 34.7619C23.8787 34.8299 24.1714 34.9257 24.5028 35.037C24.686 35.0985 24.8796 35.1643 25.0766 35.2323C24.0745 36.4966 23.7957 37.9668 23.7182 38.9727C19.3708 39.1879 16.23 38.1048 13.9255 36.6621C11.6191 35.2182 10.1007 33.3846 9.03127 31.9774C9.24181 29.8888 9.82733 26.952 10.978 24.1682C12.2064 21.1961 14.0206 18.5373 16.5687 17.1652C16.8245 17.0275 17.0077 16.7853 17.0707 16.5017C17.4499 14.7953 18.6711 12.9973 20.1591 11.3942C21.3103 10.1539 22.5602 9.09506 23.545 8.36288C24.2144 9.37335 25.1593 11.3446 25.4778 14.2105C25.5259 14.6433 25.8485 14.9953 26.2755 15.0807C27.5532 15.3362 29.0732 15.8464 30.3829 16.6571C31.6937 17.4686 32.7211 18.5336 33.1692 19.878C33.7199 21.5298 34.4092 23.4605 35.101 25.1899C35.6709 26.6147 36.2657 27.963 36.8028 28.9021C36.339 29.8446 35.7041 31.0496 34.9714 32.135C34.5384 32.7764 34.0866 33.3528 33.6333 33.8017C33.1721 34.2584 32.7618 34.5306 32.4199 34.6446C31.9716 34.794 31.1655 34.8166 30.1529 34.6703ZM30.0656 7.2465C29.8781 7.05896 29.6237 6.9536 29.3585 6.9536C29.0933 6.9536 28.839 7.05896 28.6514 7.2465L27.221 8.67692C26.8305 9.06745 26.8305 9.70061 27.221 10.0911C27.6115 10.4817 28.2447 10.4817 28.6352 10.0911L29.2179 9.50842C29.3421 9.76125 29.4637 10.0575 29.5805 10.3991C29.8656 11.2323 30.0931 12.2455 30.2794 13.3629C30.3702 13.9077 30.8854 14.2757 31.4302 14.1849C31.9749 14.0941 32.343 13.5789 32.2522 13.0341C32.0569 11.8628 31.8077 10.7304 31.4729 9.75171C31.1442 8.79089 30.7016 7.8825 30.0656 7.2465ZM32.5026 28.2806C31.4412 27.601 29.6665 26.7846 27.7138 26.5078C25.751 26.2295 23.4858 26.4855 21.6522 28.1351C21.2416 28.5045 21.2081 29.1367 21.5775 29.5473C21.9469 29.9579 22.5791 29.9914 22.9897 29.622C24.2251 28.5107 25.7979 28.2649 27.3881 28.4817C26.6682 28.6992 26.0111 29.0483 25.3656 29.6082C24.9484 29.9701 24.9036 30.6017 25.2655 31.0189C25.6274 31.4361 26.259 31.4809 26.6761 31.119C27.7732 30.1673 28.7839 30.1228 31.9633 30.1228C32.4074 30.1228 32.7983 29.8299 32.9231 29.4037C33.0478 28.9775 32.8766 28.5201 32.5026 28.2806ZM22.4792 12.5313C21.8602 13.8171 21.2755 15.3968 20.8377 16.7139C20.5894 17.4607 21.2836 18.157 22.0393 17.9372L24.1599 17.3203C24.6687 17.1723 24.9747 16.6519 24.8561 16.1356C24.4613 14.417 24.299 13.7373 24.0211 12.7296C23.8025 11.937 22.8359 11.7905 22.4792 12.5313ZM31.3871 22.9427C31.3871 23.8477 30.6535 24.5812 29.7486 24.5812C28.8437 24.5812 28.1101 23.8477 28.1101 22.9427C28.1101 22.0378 28.8437 21.3043 29.7486 21.3043C30.6535 21.3043 31.3871 22.0378 31.3871 22.9427Z" fill="#157EB9"/>
</svg>
