<svg width="48" height="48" viewBox="0 0 48 48" fill="none" xmlns="http://www.w3.org/2000/svg">
<path fill-rule="evenodd" clip-rule="evenodd" d="M5 11.2157C5 9.97486 6.01933 9 7.2381 9H35.7143C36.9331 9 37.9524 9.97486 37.9524 11.2157V16.3333H40.0611C40.7446 16.3333 41.3956 16.643 41.8223 17.1818L45.5231 21.8538C45.831 22.2425 46 22.7236 46 23.221V31.3137C46 33.226 44.4264 34.7451 42.5238 34.7451H41.6502C41.4478 37.1423 39.4064 39 36.9524 39C34.4983 39 32.457 37.1423 32.2546 34.7451H21.8407C21.6383 37.1423 19.5969 39 17.1429 39C14.6888 39 12.6475 37.1423 12.445 34.7451H10.9524C9.04983 34.7451 7.47619 33.226 7.47619 31.3137V28.6667H7.2381C6.01933 28.6667 5 27.6918 5 26.451V11.2157ZM9.47619 28.6667V31.3137C9.47619 32.0871 10.1198 32.7451 10.9524 32.7451H12.7185C13.3847 30.9629 15.1221 29.7059 17.1429 29.7059C19.1636 29.7059 20.901 30.9629 21.5673 32.7451H32.528C33.1942 30.9629 34.9316 29.7059 36.9524 29.7059C38.9732 29.7059 40.7106 30.9629 41.3768 32.7451H42.5238C43.3564 32.7451 44 32.0871 44 31.3137V23.221C44 23.1778 43.9855 23.1336 43.9553 23.0956L40.2546 18.4236C40.2122 18.3701 40.1418 18.3333 40.0611 18.3333H37.9524V26.451C37.9524 27.6918 36.9331 28.6667 35.7143 28.6667H9.47619ZM7.2381 11C7.0893 11 7 11.1137 7 11.2157V26.451C7 26.553 7.0893 26.6667 7.2381 26.6667H35.7143C35.8631 26.6667 35.9524 26.553 35.9524 26.451V11.2157C35.9524 11.1137 35.8631 11 35.7143 11H7.2381ZM17.1429 31.7059C15.7847 31.7059 14.6774 32.6739 14.4656 33.9135C14.4413 34.0558 14.4286 34.2026 14.4286 34.353C14.4286 35.7977 15.6265 37 17.1429 37C18.6592 37 19.8571 35.7977 19.8571 34.353C19.8571 34.2026 19.8444 34.0558 19.8201 33.9135C19.6083 32.6739 18.501 31.7059 17.1429 31.7059ZM36.9524 31.7059C35.5942 31.7059 34.487 32.6739 34.2752 33.9135C34.2509 34.0558 34.2381 34.2026 34.2381 34.353C34.2381 35.7977 35.436 37 36.9524 37C38.4687 37 39.6667 35.7977 39.6667 34.353C39.6667 34.2025 39.6539 34.0558 39.6296 33.9135C39.4178 32.6739 38.3105 31.7059 36.9524 31.7059Z" fill="#157EB9"/>
</svg>
