<svg width="48" height="48" viewBox="0 0 48 48" fill="none" xmlns="http://www.w3.org/2000/svg">
<path fill-rule="evenodd" clip-rule="evenodd" d="M16.6953 12.137C16.709 12.1337 16.7226 12.13 16.7362 12.126C17.5972 11.8955 18.4027 11.7843 19.0727 11.7843C19.5874 11.7843 19.9764 11.85 20.2357 11.9443C20.4691 12.0291 20.5238 12.1077 20.5279 12.1139C20.5676 12.194 20.6016 12.3306 20.588 12.5956C20.5743 12.8642 20.5197 13.1639 20.4462 13.5683L20.4461 13.5685L20.4356 13.6261C20.2929 14.411 20.0896 15.5291 20.4729 16.679C20.6266 17.1402 20.8779 17.6575 21.1076 18.1306L21.191 18.3026C21.4581 18.8552 21.7028 19.3821 21.8617 19.8906C22.0213 20.4012 22.0667 20.8107 22.0069 21.1369C21.9537 21.4272 21.8054 21.7245 21.4088 22.022C21.1746 22.1976 20.7353 22.2979 19.9622 22.1007C19.2094 21.9087 18.3222 21.4752 17.418 20.884C16.5221 20.2982 15.6564 19.5884 14.9494 18.8901C14.2281 18.1776 13.7299 17.5338 13.5079 17.0899C13.0068 16.0877 12.9368 15.2012 13.1883 14.497C13.4355 13.8049 14.0598 13.1031 15.3337 12.5936C15.7947 12.4092 16.2521 12.2574 16.6953 12.137ZM21.8637 10.6204C22.0423 10.7851 22.1982 10.9823 22.316 11.2179C22.5696 11.7251 22.6084 12.2491 22.5854 12.698C22.5647 13.1013 22.4876 13.523 22.4216 13.8838V13.8838L22.4054 13.9726C22.2546 14.802 22.1681 15.4402 22.3702 16.0465C22.4799 16.3755 22.6696 16.767 22.9142 17.2722L22.9917 17.4323C23.2568 17.9807 23.5626 18.6282 23.7707 19.2941C23.9781 19.9579 24.1162 20.7228 23.9741 21.4976C23.8255 22.3083 23.3866 23.0386 22.6088 23.622C21.6686 24.3271 20.4931 24.3002 19.4678 24.0387C18.4223 23.772 17.3277 23.2145 16.3235 22.5579C15.311 21.8959 14.3417 21.101 13.5439 20.313C12.7605 19.5391 12.0843 18.7149 11.7191 17.9843C11.701 17.9483 11.6833 17.9121 11.6659 17.8758C11.4878 18.2195 11.3296 18.5488 11.204 18.8418L6.19156 30.5375C8.66509 32.8232 12.0603 34.6518 15.6012 35.9309C19.0127 37.1632 22.4838 37.8581 25.2724 37.9804C25.6359 35.336 26.0047 32.239 26.2177 30.27C24.8576 30.0733 23.5194 29.7855 22.2999 29.379C21.776 29.2043 21.4928 28.638 21.6675 28.1141C21.8421 27.5901 22.4085 27.307 22.9324 27.4816C24.2731 27.9285 25.8228 28.2277 27.4263 28.4092C29.5919 28.6543 31.8121 28.6799 33.6688 28.584C35.5587 28.4863 36.971 28.2676 37.5673 28.0688C38.7859 27.6627 39.6627 26.4439 40.3366 24.8772C38.8766 24.0582 38.1634 22.9106 38.0073 21.686C37.9124 20.9411 38.0315 20.2283 38.2404 19.6196C37.5444 19.3794 36.6781 19.0605 35.8324 18.6781C35.134 18.3622 34.4188 17.9897 33.8069 17.5632C33.212 17.1485 32.6218 16.6197 32.2914 15.959C31.4624 14.301 28.7512 11.0805 22.5449 10.6372C22.3182 10.621 22.0909 10.6157 21.8637 10.6204ZM28.2049 30.4954C30.165 30.6608 32.1087 30.6673 33.772 30.5813C35.686 30.4824 37.3296 30.2562 38.1997 29.9662C40.4172 29.2271 41.6178 27.072 42.3352 25.2785C42.864 23.9565 43.0549 22.4683 42.7302 21.1455C42.3963 19.7849 41.5071 18.6016 39.9613 18.0864C39.8876 18.0618 39.8064 18.035 39.7186 18.006L39.7185 18.006C38.9879 17.7648 37.7991 17.3725 36.6565 16.8557C36.0173 16.5667 35.4234 16.252 34.9505 15.9224C34.4607 15.581 34.1904 15.2847 34.0803 15.0646C32.9519 12.8079 29.6345 9.1385 22.6874 8.64228C20.2179 8.46588 17.828 9.30776 16.0839 10.231C15.5896 10.3686 15.0887 10.5375 14.5909 10.7366C12.9288 11.4015 11.7916 12.4613 11.3048 13.8244C11.1755 14.1863 11.0969 14.5561 11.0641 14.9296C10.4322 15.9107 9.76954 17.1117 9.36573 18.0539L4.08088 30.3852C3.91981 30.7611 4.00378 31.1971 4.29292 31.4863C7.074 34.2673 10.9781 36.3874 14.9217 37.8119C18.8685 39.2376 22.9479 40 26.1394 40C26.6371 40 27.059 39.6341 27.1294 39.1414C27.5331 36.3153 27.9652 32.7114 28.2049 30.4954ZM29.0755 19.0052C30.0484 19.0052 30.8371 18.2165 30.8371 17.2436C30.8371 16.2707 30.0484 15.482 29.0755 15.482C28.1025 15.482 27.3138 16.2707 27.3138 17.2436C27.3138 18.2165 28.1025 19.0052 29.0755 19.0052Z" fill="#1D85BD"/>
</svg>
