<svg width="48" height="48" viewBox="0 0 48 48" fill="none" xmlns="http://www.w3.org/2000/svg">
<path fill-rule="evenodd" clip-rule="evenodd" d="M23.3231 11.3536C24.6633 11.3536 25.4224 10.8302 25.9642 10.4566C25.996 10.4347 26.0271 10.4133 26.0575 10.3925C26.32 10.2131 26.4858 10.1149 26.671 10.0575C26.8404 10.005 27.0873 9.96921 27.499 10.0378C27.9199 10.108 28.1374 10.2179 28.2738 10.3145C28.4258 10.4222 28.5432 10.5566 28.7496 10.8143L28.7795 10.8516C28.9722 11.0927 29.2358 11.4224 29.6178 11.7355C30.0299 12.0732 30.5486 12.3694 31.2535 12.6044C31.9457 12.8351 32.5213 12.9787 32.9955 13.0903C33.084 13.1111 33.1668 13.1304 33.2445 13.1485C33.6022 13.2317 33.8534 13.2902 34.0748 13.3639C34.3159 13.4443 34.4544 13.5232 34.5676 13.6238C34.6872 13.7302 34.8348 13.9113 35.0157 14.2731C35.2814 14.8045 35.2321 16.0201 34.4176 17.2124C33.7205 18.2326 32.5269 19.1112 30.767 19.2518C29.3147 17.3348 27.1776 15.8778 24.8041 15.4462C22.6317 15.0512 20.4578 15.5511 18.6223 16.4688C16.7903 17.3849 15.2186 18.7543 14.2444 20.2158C13.9429 20.6679 13.6045 21.3821 13.2518 22.2353C12.4544 21.5998 11.616 20.8065 10.9948 19.9413C10.0908 18.6822 9.7967 17.5066 10.3284 16.4433C10.6061 15.8877 10.8317 15.6693 10.9856 15.5667C11.1389 15.4645 11.3213 15.4077 11.682 15.3597C11.7758 15.3471 11.8771 15.336 11.9855 15.324C12.7452 15.2403 13.856 15.1179 15.1971 14.2239C15.9455 13.725 16.447 13.2098 16.8029 12.6911C17.1438 12.1943 17.328 11.7244 17.4615 11.3837L17.4723 11.3562C17.619 10.982 17.6854 10.842 17.7757 10.7388C17.8343 10.6717 17.9616 10.5546 18.3572 10.4557C19.1558 10.256 19.6876 10.3974 20.3677 10.6524C20.4519 10.684 20.5399 10.7182 20.6317 10.7539C21.2996 11.0136 22.1741 11.3536 23.3231 11.3536ZM36.0689 18.3406C35.1926 19.6233 33.7895 20.7085 31.8884 21.1076C32.0132 21.3754 32.126 21.6487 32.2257 21.9267C33.3758 21.9519 34.8231 22.181 36.1309 22.8098C37.8116 23.6177 39.3015 25.1187 39.5109 27.632C39.5341 27.9106 39.4396 28.1863 39.2502 28.3921C39.0609 28.5979 38.794 28.715 38.5144 28.715H32.8181C33.7937 30.6883 34.5501 32.9435 34.7355 34.8903C34.8519 36.1126 34.7579 37.3598 34.2033 38.3396C33.5985 39.4082 32.5377 39.9999 31.1357 39.9999C30.4131 39.9999 29.7565 39.8447 29.1969 39.5098C28.9734 39.376 28.775 39.2192 28.6002 39.0441L27.3288 39.8458C26.9881 40.0606 26.5519 40.0501 26.2219 39.8192L22.4286 37.1639L18.2175 39.8436C17.8462 40.0799 17.364 40.0456 17.0298 39.7592L14.4445 37.5433L9.35888 39.4993C9.00503 39.6354 8.60463 39.5597 8.32491 39.3038C8.04518 39.0478 7.93438 38.6552 8.03853 38.2907C8.0385 38.2908 8.03838 38.2912 8.99991 38.5659L8.03853 38.2907L8.06976 38.1818C8.09026 38.1105 8.12053 38.0054 8.15973 37.8699C8.23812 37.5989 8.35224 37.2062 8.49537 36.7186C8.7816 35.7437 9.18407 34.3888 9.64911 32.8687C10.4954 30.1024 11.5553 26.7676 12.5012 24.1806C11.4754 23.4198 10.2641 22.3527 9.37019 21.1077C8.28663 19.5986 7.51829 17.5912 8.5395 15.5488C8.91278 14.8023 9.33827 14.2612 9.87616 13.9026C10.4146 13.5436 10.9646 13.4376 11.4177 13.3772C11.5414 13.3607 11.662 13.3468 11.7809 13.3331C12.5051 13.2497 13.1671 13.1735 14.0877 12.5598C14.6414 12.1906 14.9537 11.8513 15.1538 11.5595C15.3598 11.2594 15.4734 10.9751 15.6103 10.626L15.6266 10.5845C15.7503 10.2678 15.9278 9.81377 16.2699 9.42247C16.6589 8.97747 17.1827 8.68774 17.8721 8.51537C19.2436 8.1725 20.231 8.46514 21.07 8.77977C21.1739 8.81874 21.2737 8.85702 21.3706 8.89417C22.0406 9.15105 22.5689 9.35359 23.3231 9.35359C24.0364 9.35359 24.3587 9.13248 24.8493 8.79588L24.9291 8.74123C25.2091 8.54986 25.5858 8.29996 26.0788 8.14714C26.5876 7.9894 27.1545 7.95281 27.8279 8.06506C28.4921 8.17577 29.0054 8.38183 29.4297 8.68238C29.8336 8.96842 30.1053 9.30768 30.3035 9.5551L30.3105 9.5639C30.5205 9.82599 30.6693 10.0113 30.8855 10.1886C31.0919 10.3577 31.3904 10.5418 31.886 10.707C32.4959 10.9103 33.0055 11.038 33.4536 11.1434C33.524 11.16 33.5949 11.1764 33.666 11.1929C34.0253 11.2762 34.3887 11.3604 34.7072 11.4666C35.1171 11.6032 35.5212 11.7956 35.8963 12.129C36.265 12.4567 36.5514 12.8724 36.8045 13.3787C37.5094 14.7883 37.1246 16.7954 36.0689 18.3406ZM32.5332 26.715C32.7551 25.7928 32.8006 24.8618 32.6997 23.9536C33.5165 24.0222 34.4439 24.2178 35.2644 24.6123C36.1689 25.0471 36.9176 25.703 37.2871 26.715H32.5332ZM29.8473 33.3151C30.1408 32.1654 30.595 30.9562 31.1358 29.8281C31.9724 31.5734 32.5936 33.496 32.7445 35.0799C32.8451 36.1363 32.722 36.8965 32.4628 37.3544C32.2538 37.7236 31.904 37.9999 31.1357 37.9999C30.7002 37.9999 30.4149 37.9079 30.2242 37.7937C30.0371 37.6817 29.8823 37.5136 29.7599 37.2614C29.3861 36.4909 29.3928 35.0952 29.8473 33.3151ZM30.5283 23.1963C30.8825 24.5358 30.8315 25.9358 30.2475 27.2519C29.2601 28.9091 28.3952 30.9176 27.9094 32.8204C27.5225 34.336 27.3337 35.9468 27.6564 37.2748L26.8243 37.7995L23.0285 35.1425C22.6973 34.9107 22.2592 34.901 21.9182 35.1181L17.7689 37.7585L15.2932 35.6365C15.0141 35.3973 14.6264 35.3305 14.2834 35.4624L10.5244 36.9082C10.7983 35.9791 11.1561 34.7795 11.5616 33.4538C12.4885 30.4242 13.657 26.7619 14.6415 24.163C15.1756 22.7531 15.6175 21.7616 15.9085 21.3252C16.6703 20.1823 17.9633 19.0344 19.5168 18.2577C21.0667 17.4827 22.7992 17.1145 24.4463 17.414C26.4047 17.77 28.2494 19.0712 29.4392 20.8314C29.9361 21.5665 30.3095 22.3691 30.5283 23.1963ZM26.7954 24.2427C27.5145 24.2427 28.0975 23.6598 28.0975 22.9406C28.0975 22.2215 27.5145 21.6385 26.7954 21.6385C26.0763 21.6385 25.4933 22.2215 25.4933 22.9406C25.4933 23.6598 26.0763 24.2427 26.7954 24.2427Z" fill="#157EB9"/>
</svg>
