<svg width="48" height="48" viewBox="0 0 48 48" fill="none" xmlns="http://www.w3.org/2000/svg">
<path fill-rule="evenodd" clip-rule="evenodd" d="M30.2747 11.3108C26.7519 10.3043 19.419 8.69479 13.0528 11.8779C12.6224 12.0931 12.4063 12.5844 12.5385 13.0471C12.7346 13.7334 12.9495 14.3649 13.1431 14.9339L13.216 15.1484C13.4317 15.7843 13.6097 16.3284 13.7267 16.8413C13.9456 17.8012 13.9386 18.5921 13.506 19.4737C13.3912 19.6348 13.277 19.7986 13.1635 19.9652C12.5581 19.6238 12.0713 19.2793 11.6747 18.8466C11.1412 18.2646 10.7107 17.4539 10.4864 16.1079C10.4239 15.7331 10.1543 15.426 9.79069 15.3155C9.42705 15.205 9.03221 15.3103 8.77176 15.587C6.79649 17.6861 5.875 20.8395 5.875 23.8862C5.875 26.9328 6.79648 30.0862 8.77176 32.1853C9.03221 32.4621 9.42705 32.5673 9.7907 32.4568C10.1543 32.3463 10.4239 32.0393 10.4864 31.6644C10.7107 30.3184 11.1412 29.5077 11.6747 28.9257C12.0713 28.493 12.5581 28.1485 13.1635 27.8072C13.277 27.9737 13.3912 28.1376 13.506 28.2987C13.9386 29.1803 13.9456 29.9711 13.7267 30.931C13.6097 31.4439 13.4317 31.988 13.216 32.624L13.1431 32.8384C12.9495 33.4074 12.7346 34.0389 12.5385 34.7253C12.4063 35.188 12.6224 35.6792 13.0528 35.8944C19.419 39.0775 26.7519 37.4681 30.2747 36.4615C32.0897 35.943 33.8867 35.0286 35.5457 33.9484C39.2718 31.5222 42.485 28.1367 43.8396 26.0432C43.9851 25.8183 44.0343 25.5443 43.9761 25.2828C43.9179 25.0213 43.7572 24.794 43.53 24.652C42.8739 24.242 41.9572 23.341 41.0348 22.2804C40.1327 21.243 39.3057 20.1475 38.8321 19.437C37.8306 17.9348 36.6231 16.1828 35.2288 14.6824C33.8427 13.1908 32.1919 11.8586 30.2747 11.3108ZM29.7253 13.2339C26.8717 12.4185 20.4759 13.2288 15.2191 20.5168C14.975 20.9801 14.6597 21.4428 14.2682 21.9125C13.9712 22.269 13.4679 22.3743 13.0528 22.1668C12.039 21.6599 11.0204 21.0926 10.2004 20.1981C9.76482 19.7229 9.40214 19.1751 9.11535 18.5279C8.30493 20.0408 7.875 21.9358 7.875 23.8862C7.875 25.8365 8.30493 27.7315 9.11535 29.2445C9.40214 28.5972 9.76482 28.0494 10.2004 27.5743C11.0204 26.6797 12.039 26.1125 13.0528 25.6056C13.4679 25.398 13.9712 25.5033 14.2682 25.8598C14.6597 26.3296 14.975 26.7922 15.2191 27.2555C20.4759 34.5436 26.8717 35.3538 29.7253 34.5385C31.1083 34.1433 32.5279 33.4659 33.9081 32.6181C33.619 31.1321 32.8138 28.5386 31.2318 26.6402C31.0382 26.4079 30.9601 26.1004 31.0194 25.8039C31.4797 23.5024 32.9527 20.2555 36.3028 19.2723C35.5285 18.1595 34.6836 17.0337 33.7637 16.0438C32.4806 14.6631 31.1315 13.6356 29.7253 13.2339ZM15.6766 31.3758C15.7027 31.2614 15.7266 31.1469 15.7481 31.0322C17.9672 33.3728 20.3146 34.8738 22.5352 35.7553C20.0113 35.8515 17.2759 35.5581 14.7103 34.4593C14.8178 34.1258 14.9276 33.8029 15.0363 33.4833L15.0363 33.4832L15.11 33.2664C15.3238 32.6362 15.5338 32.0018 15.6766 31.3758ZM41.6222 25.7178C40.3957 27.3324 38.2318 29.5553 35.688 31.4188C35.2817 29.7999 34.4759 27.5897 33.0807 25.7526C33.6068 23.6622 34.9433 21.4627 37.5152 21.0491C38.0412 21.7881 38.7604 22.7128 39.5257 23.5929C40.1845 24.3504 40.9193 25.1241 41.6222 25.7178ZM15.7481 16.7402C17.9672 14.3995 20.3146 12.8985 22.5352 12.017C20.0113 11.9208 17.2759 12.2142 14.7103 13.3131C14.8177 13.6465 14.9276 13.9694 15.0363 14.289L15.0363 14.2891L15.11 14.5059C15.3238 15.1361 15.5338 15.7705 15.6766 16.3966C15.7027 16.5109 15.7266 16.6254 15.7481 16.7402ZM37.0748 25.1497C37.6684 25.1497 38.1497 24.6684 38.1497 24.0748C38.1497 23.4812 37.6684 23 37.0748 23C36.4812 23 36 23.4812 36 24.0748C36 24.6684 36.4812 25.1497 37.0748 25.1497Z" fill="#157EB9"/>
</svg>
