<svg width="48" height="48" viewBox="0 0 48 48" fill="none" xmlns="http://www.w3.org/2000/svg">
<path fill-rule="evenodd" clip-rule="evenodd" d="M35.2645 15.0518C37.0433 15.2092 38.9648 15.9019 40.745 16.8317C42.7922 17.9009 44.7507 19.335 46.2266 20.8109C46.463 21.0474 46.5657 21.3863 46.5001 21.7142C45.9036 24.6965 43.3978 26.5102 41.0195 27.6673C39.8057 28.2578 38.5551 28.7113 37.4706 29.0754C37.0821 29.2059 36.7246 29.322 36.3987 29.4278L36.3986 29.4278C35.7815 29.6282 35.2776 29.7918 34.8909 29.9465C34.466 30.1165 34.2428 30.3425 34.1032 30.5921C33.9495 30.8669 33.8577 31.243 33.8306 31.7581C33.8034 32.2746 33.8437 32.8514 33.8988 33.5043L33.9165 33.7116L33.9165 33.7117C33.9657 34.286 34.0195 34.914 34.0195 35.518C34.0195 35.9 33.802 36.2486 33.4589 36.4164C33.1158 36.5842 32.7071 36.5419 32.4056 36.3074C30.3 34.6697 26.9389 33.2136 23.4948 32.2296C20.042 31.2431 16.6892 30.7831 14.6299 31.0119C13.1856 31.1724 12.0241 32.0474 11.1237 33.1226C10.2266 34.1938 9.67204 35.3674 9.43866 35.912C9.30795 36.217 9.03446 36.4372 8.70862 36.5C8.38278 36.5627 8.04704 36.4598 7.81241 36.2251C5.45963 33.8724 3.83953 31.2061 3.22823 28.2854C2.65202 25.5324 2.9882 22.628 4.34685 19.6525C2.97306 19.0193 2.01953 17.63 2.01953 16.018C2.01953 13.8089 3.81039 12.018 6.01953 12.018C7.56652 12.018 8.9084 12.8962 9.57382 14.1813C13.2561 12.2767 17.5799 12.1809 19.6839 12.5316C21.2068 12.7854 23.1081 13.1656 24.8871 13.6103C26.0003 13.8886 27.0983 14.2 28.0348 14.5317L28.0357 14.5267C28.2013 13.6155 28.7579 12.4277 30.277 12.0479C31.6003 11.7171 32.7969 12.0552 33.7153 12.8065C34.4172 13.3808 34.9349 14.1748 35.2645 15.0518ZM6.01953 14.018C4.91496 14.018 4.01953 14.9134 4.01953 16.018C4.01953 17.1226 4.91496 18.018 6.01953 18.018C7.1241 18.018 8.01953 17.1226 8.01953 16.018C8.01953 14.9134 7.1241 14.018 6.01953 14.018ZM5.18581 27.8757C4.67664 25.443 5.0005 22.8087 6.39638 20.0005C8.36274 19.8167 9.91567 18.2096 10.0145 16.2198C13.2921 14.3177 17.4506 14.187 19.3551 14.5044C20.8323 14.7506 22.681 15.1204 24.402 15.5506C26.1463 15.9867 27.6783 16.4654 28.5723 16.9124C28.9139 17.0832 29.2335 17.1074 29.6265 16.8127C30.0195 16.518 30.0195 16.018 30.0195 16.018L30.0184 16.0005C30.0047 15.7883 29.9612 15.1169 30.0034 14.8844C30.0877 14.4206 30.2812 14.1084 30.7621 13.9882C31.4388 13.819 31.9921 13.9808 32.4488 14.3545C32.9329 14.7506 33.3387 15.4179 33.5494 16.2606C33.6607 16.7057 34.0606 17.018 34.5195 17.018C36.0419 17.018 37.9259 17.6156 39.8191 18.6044C41.5106 19.4879 43.1321 20.6433 44.405 21.8317C43.8305 23.585 42.1972 24.8702 40.1445 25.8688C39.0459 26.4033 37.8902 26.8248 36.834 27.1794C36.5093 27.2885 36.1852 27.3938 35.8729 27.4953L35.8727 27.4954C35.2757 27.6894 34.722 27.8694 34.2906 28.034C33.5774 28.0841 32.4202 28.005 31.2249 27.5867C29.9672 27.1465 28.7191 26.3506 27.8675 24.988C27.5748 24.5197 26.9578 24.3773 26.4895 24.67C26.0212 24.9627 25.8788 25.5797 26.1715 26.048C27.3199 27.8855 28.9885 28.9229 30.5642 29.4744C31.1278 29.6717 31.6861 29.8093 32.2152 29.9001C31.961 30.4692 31.8637 31.0777 31.8334 31.653C31.8002 32.283 31.8453 32.9424 31.8959 33.5536C29.6498 32.2157 26.8217 31.1001 24.0442 30.3065C20.497 29.293 16.8499 28.753 14.4091 29.0242C12.2535 29.2637 10.6649 30.5553 9.59035 31.8385C9.03697 32.4993 8.59756 33.1836 8.26488 33.7773C6.66418 31.9217 5.61818 29.9414 5.18581 27.8757ZM34.5001 22C35.3285 22 36.0001 21.3284 36.0001 20.5C36.0001 19.6716 35.3285 19 34.5001 19C33.6717 19 33.0001 19.6716 33.0001 20.5C33.0001 21.3284 33.6717 22 34.5001 22Z" fill="#1D85BD"/>
</svg>
