<svg width="48" height="48" viewBox="0 0 48 48" fill="none" xmlns="http://www.w3.org/2000/svg">
<path fill-rule="evenodd" clip-rule="evenodd" d="M10.0075 20.1443L14.7133 18.3038C15.3945 18.0374 15.8759 17.4204 15.9686 16.6948L16.8568 9.74768C17.0218 8.45648 18.3568 7.66455 19.5691 8.13869L23.2715 9.58675C23.7399 9.76994 24.2601 9.76994 24.7285 9.58675L28.4309 8.13869C29.6432 7.66455 30.9782 8.45648 31.1432 9.74768L32.0314 16.6948C32.1241 17.4204 32.6055 18.0374 33.2867 18.3038L37.9925 20.1443C38.6001 20.3819 39 20.9677 39 21.6202C39 22.4955 38.2905 23.205 37.4152 23.205H10.5848C9.70954 23.205 9 22.4955 9 21.6202C9 20.9677 9.39989 20.3819 10.0075 20.1443ZM13 31.705C13 29.806 14.607 28.205 16.6667 28.205C18.7263 28.205 20.3333 29.806 20.3333 31.705C20.3333 33.604 18.7263 35.205 16.6667 35.205C14.607 35.205 13 33.604 13 31.705ZM16.6667 26.205C13.5716 26.205 11 28.6335 11 31.705C11 34.7765 13.5716 37.205 16.6667 37.205C19.3452 37.205 21.6318 35.3861 22.1986 32.9056C22.6358 32.5018 23.2152 32.0621 24 32.0621C24.7848 32.0621 25.3642 32.5018 25.8014 32.9056C26.3682 35.3861 28.6548 37.205 31.3333 37.205C34.4284 37.205 37 34.7765 37 31.705C37 28.6335 34.4284 26.205 31.3333 26.205C28.6622 26.205 26.381 28.0138 25.8061 30.4836C25.3053 30.2412 24.7013 30.0621 24 30.0621C23.2987 30.0621 22.6947 30.2412 22.1939 30.4836C21.619 28.0138 19.3378 26.205 16.6667 26.205ZM27.6667 31.705C27.6667 29.806 29.2737 28.205 31.3333 28.205C33.393 28.205 35 29.806 35 31.705C35 33.604 33.393 35.205 31.3333 35.205C29.2737 35.205 27.6667 33.604 27.6667 31.705Z" fill="#157EB9"/>
</svg>
