<svg width="48" height="48" viewBox="0 0 48 48" fill="none" xmlns="http://www.w3.org/2000/svg">
<path fill-rule="evenodd" clip-rule="evenodd" d="M17 11.1476C17 7.22916 20.1167 4 24 4C27.8833 4 31 7.22916 31 11.1476C31 13.0052 30.2239 15.325 28.8501 17.9861C27.7354 20.1417 26.45 22.0823 25.7855 23.045C25.5885 23.3323 25.3267 23.5725 25.0168 23.7409C24.7057 23.9098 24.3575 24 24.0011 24C23.6447 24 23.2965 23.9098 22.9854 23.7409C22.6757 23.5726 22.414 23.3325 22.217 23.0453C21.5507 22.0817 20.2669 20.1418 19.1525 17.9867C17.7762 15.3245 17 13.0045 17 11.1476ZM19 11.1476C19 8.28756 21.2668 6 24 6C26.7332 6 29 8.28756 29 11.1476C29 12.5195 28.4029 14.4924 27.0732 17.068C26.0135 19.1174 24.7808 20.9799 24.1386 21.9102L24.1361 21.9138C24.1121 21.9489 24.0853 21.9709 24.0622 21.9834C24.0395 21.9957 24.0189 22 24.0011 22C23.9834 22 23.9627 21.9957 23.9401 21.9834C23.917 21.9709 23.8902 21.9489 23.8662 21.9138L23.8632 21.9095C23.2205 20.9802 21.9889 19.1176 20.929 17.068C19.5971 14.4915 19 12.5186 19 11.1476ZM14.3714 14.0715C14.0882 13.9582 13.7687 13.9804 13.5039 14.1318L6.50387 18.1318C6.22159 18.2931 6.03534 18.5815 6.00452 18.9052L4.00452 39.9052C3.97005 40.2671 4.13469 40.6192 4.4345 40.8247C4.73432 41.0303 5.12208 41.057 5.44723 40.8944L13.0625 37.0868L23.6583 40.9398C23.879 41.0201 24.121 41.0201 24.3418 40.9398L34.9375 37.0868L42.5528 40.8944C42.8779 41.057 43.2657 41.0303 43.5655 40.8247C43.8653 40.6192 44.03 40.2671 43.9955 39.9052L41.9955 18.9052C41.9647 18.5815 41.7784 18.2931 41.4962 18.1318L34.4962 14.1318C34.2313 13.9804 33.9118 13.9582 33.6286 14.0715L31.6286 14.8715C31.1158 15.0766 30.8664 15.6586 31.0715 16.1714C31.2766 16.6842 31.8586 16.9336 32.3714 16.7285L33.0679 16.4499L33.9661 35.3119L25 38.5723V26.5C25 25.9477 24.5523 25.5 24 25.5C23.4477 25.5 23 25.9477 23 26.5V38.5723L14.0339 35.3119L14.9321 16.4499L15.6286 16.7285C16.1414 16.9336 16.7234 16.6842 16.9285 16.1714C17.1336 15.6586 16.8842 15.0766 16.3714 14.8715L14.3714 14.0715ZM12.9145 16.772L12.029 35.3675L6.16657 38.2987L7.94635 19.611L12.9145 16.772ZM41.8335 38.2987L35.971 35.3675L35.0855 16.772L40.0537 19.611L41.8335 38.2987Z" fill="#157EB9"/>
</svg>
