<svg width="48" height="48" viewBox="0 0 48 48" fill="none" xmlns="http://www.w3.org/2000/svg">
<path fill-rule="evenodd" clip-rule="evenodd" d="M11 11C11 9.34315 12.3431 8 14 8H21.2657C22.2665 8 23.2014 8.49905 23.7583 9.33058L24.8664 10.985C25.052 11.2622 25.3637 11.4286 25.6973 11.4286H41C42.6569 11.4286 44 12.7717 44 14.4286V31C44 32.6569 42.6569 34 41 34H40.7037C40.1514 34 39.7037 33.5523 39.7037 33C39.7037 32.4477 40.1514 32 40.7037 32H41C41.5523 32 42 31.5523 42 31V14.4286C42 13.8763 41.5523 13.4286 41 13.4286H25.6973C24.6965 13.4286 23.7616 12.9295 23.2047 12.098L22.0966 10.4435C21.9109 10.1664 21.5993 10 21.2657 10H14C13.4477 10 13 10.4477 13 11V12.4286C13 12.9809 12.5523 13.4286 12 13.4286C11.4477 13.4286 11 12.9809 11 12.4286V11ZM5 18C5 16.3431 6.34314 15 8 15H15.2657C16.2665 15 17.2014 15.4991 17.7583 16.3306L18.8664 17.985C19.052 18.2622 19.3637 18.4286 19.6973 18.4286H35C36.6569 18.4286 38 19.7717 38 21.4286V38C38 39.6569 36.6569 41 35 41H8C6.34315 41 5 39.6569 5 38V19.4286V18ZM8 17C7.44771 17 7 17.4477 7 18V19.4286V38C7 38.5523 7.44772 39 8 39H35C35.5523 39 36 38.5523 36 38V21.4286C36 20.8763 35.5523 20.4286 35 20.4286H19.6973C18.6965 20.4286 17.7616 19.9295 17.2047 19.098L16.0966 17.4435C15.9109 17.1664 15.5993 17 15.2657 17H8ZM12 22C10.8954 22 10 22.8954 10 24V26C10 27.1046 10.8954 28 12 28H18C19.1046 28 20 27.1046 20 26V24C20 22.8954 19.1046 22 18 22H12ZM12 24H18V26H12V24Z" fill="#157EB9"/>
</svg>
