<svg width="48" height="48" viewBox="0 0 48 48" fill="none" xmlns="http://www.w3.org/2000/svg">
<path fill-rule="evenodd" clip-rule="evenodd" d="M25.1094 6.53774C24.4376 6.08988 23.5624 6.08988 22.8906 6.53774L21.0537 7.76234L19.7494 6.71888C19.019 6.13453 17.981 6.13453 17.2506 6.71888L15.8749 7.81942L14.8944 7.32917C13.5646 6.66427 12 7.63126 12 9.11803V38.382C12 39.1395 12.428 39.832 13.1056 40.1708L14.9805 41.1083C15.6782 41.4571 16.5152 41.3685 17.1243 40.8812L18.5 39.7806L19.8043 40.8241C20.4844 41.3682 21.4384 41.4096 22.1631 40.9264L24 39.7018L25.8369 40.9264C26.5616 41.4096 27.5156 41.3682 28.1957 40.8241L29.5 39.7806L30.8757 40.8812C31.4848 41.3685 32.3218 41.4571 33.0195 41.1083L34.8944 40.1708C35.572 39.832 36 39.1395 36 38.382V9.11803C36 7.63126 34.4354 6.66427 33.1056 7.32917L32.1251 7.81942L30.7494 6.71888C30.019 6.13453 28.981 6.13453 28.2506 6.71888L26.9463 7.76234L25.1094 6.53774ZM22.1631 9.42644L24 8.20184L25.8369 9.42644C26.5616 9.90956 27.5156 9.86815 28.1957 9.32407L29.5 8.28062L30.8757 9.38116C31.4848 9.86849 32.3218 9.95715 33.0195 9.60828L34 9.11803V38.382L32.1251 39.3194L30.7494 38.2189C30.019 37.6345 28.981 37.6345 28.2506 38.2189L26.9463 39.2623L25.1094 38.0377C24.4376 37.5899 23.5624 37.5899 22.8906 38.0377L21.0537 39.2623L19.7494 38.2189C19.019 37.6345 17.981 37.6345 17.2506 38.2189L15.8749 39.3194L14 38.382V9.11803L14.9805 9.60828C15.6782 9.95715 16.5152 9.86849 17.1243 9.38116L18.5 8.28062L19.8043 9.32407C20.4844 9.86815 21.4384 9.90956 22.1631 9.42644ZM20 13C18.8954 13 18 13.8954 18 15V20C18 21.1046 18.8954 22 20 22H28C29.1046 22 30 21.1046 30 20V15C30 13.8954 29.1046 13 28 13H20ZM20 15H22V16C22 16.5523 22.4477 17 23 17H25C25.5523 17 26 16.5523 26 16V15H28V20H20V15ZM17 27C17 26.4477 17.4477 26 18 26H30C30.5523 26 31 26.4477 31 27C31 27.5523 30.5523 28 30 28H18C17.4477 28 17 27.5523 17 27ZM18 31C17.4477 31 17 31.4477 17 32C17 32.5523 17.4477 33 18 33H30C30.5523 33 31 32.5523 31 32C31 31.4477 30.5523 31 30 31H18Z" fill="#157EB9"/>
</svg>
