<svg width="48" height="48" viewBox="0 0 48 48" fill="none" xmlns="http://www.w3.org/2000/svg">
<path fill-rule="evenodd" clip-rule="evenodd" d="M24 4C15.8011 4 9 10.2009 9 17.9782C9 21.6535 10.7107 26.3725 13.8935 31.9427L13.8935 31.9428C16.4615 36.4359 19.4257 40.4891 20.9657 42.5039C21.3191 42.9707 21.7786 43.3475 22.3054 43.6064C22.8328 43.8657 23.4142 44 24.0026 44C24.5911 44 25.1724 43.8657 25.6999 43.6064C26.2267 43.3475 26.6864 42.9705 27.0398 42.5036C28.5763 40.4899 31.5435 36.4363 34.1117 31.9428L34.112 31.9422C37.2894 26.3739 39 21.655 39 17.9782C39 10.2009 32.1989 4 24 4ZM11 17.9782C11 11.4455 16.7604 6 24 6C31.2396 6 37 11.4455 37 17.9782C37 21.1195 35.5063 25.4633 32.375 30.951C29.869 35.3354 26.9608 39.3101 25.4485 41.2921L25.4458 41.2957C25.2834 41.5106 25.0688 41.6881 24.8177 41.8115C24.5666 41.9349 24.2872 42 24.0026 42C23.7181 42 23.4387 41.9349 23.1875 41.8115C22.9364 41.6881 22.7219 41.5106 22.5595 41.2957L22.5562 41.2914C21.042 39.3103 18.1361 35.3353 15.6299 30.9504C12.4935 25.4612 11 21.1176 11 17.9782ZM19 13C17.8954 13 17 13.8954 17 15V23C17 24.1046 17.8954 25 19 25H29C30.1046 25 31 24.1046 31 23V15C31 13.8954 30.1046 13 29 13H19ZM19 15H21V17C21 18.1046 21.8954 19 23 19H25C26.1046 19 27 18.1046 27 17V15H29V23H19V15ZM23 17V15H25V17H23Z" fill="#157EB9"/>
</svg>
