<svg width="48" height="48" viewBox="0 0 48 48" fill="none" xmlns="http://www.w3.org/2000/svg">
<path fill-rule="evenodd" clip-rule="evenodd" d="M31.4846 8.73981L28.151 14H28.5C29.8807 14 31 15.1193 31 16.5C31 17.6004 30.2891 18.5347 29.3016 18.8687C30.6461 20.2902 32.2497 22.1617 34.0058 24.264C35.6147 26.1905 36.8527 27.9731 37.6924 29.5981C38.528 31.2152 39 32.7355 39 34.1202C39 36.6947 38.4723 39.2893 36.1266 41.1753C33.8523 43.0038 30.0612 44 24 44C17.9388 44 14.1477 43.0038 11.8734 41.1753C9.5277 39.2893 9 36.6947 9 34.1202C9 32.735 9.47189 31.2146 10.3068 29.5975C11.1457 27.9726 12.3829 26.1898 13.989 24.2639C15.7459 22.1607 17.3529 20.2897 18.6984 18.8687C17.7109 18.5347 17 17.6003 17 16.5C17 15.1193 18.1193 14 19.5 14H19.849L16.5154 8.73981C16.101 8.08585 16.041 7.08563 16.762 6.40732C17.4326 5.77636 18.607 5 20.1111 5C21.4483 5 22.1701 5.60751 22.6874 6.04289L22.6994 6.05306C23.1536 6.43522 23.4032 6.63636 24 6.63636C24.5968 6.63636 24.8464 6.43522 25.3006 6.05306L25.3126 6.04289C25.8299 5.60751 26.5517 5 27.8889 5C29.393 5 30.5674 5.77636 31.238 6.40732C31.959 7.08563 31.899 8.08585 31.4846 8.73981ZM22.2168 14L18.2572 7.75204C18.718 7.35783 19.3729 7 20.1111 7C20.7079 7 20.9576 7.20114 21.4117 7.5833L21.4238 7.59348C21.941 8.02886 22.6628 8.63636 24 8.63636C25.3372 8.63636 26.059 8.02886 26.5762 7.59348L26.5883 7.5833C27.0424 7.20114 27.2921 7 27.8889 7C28.6271 7 29.282 7.35783 29.7428 7.75204L25.7832 14H22.2168ZM21.3948 19H26.6055L26.8685 19.2457C28.3033 20.6378 30.2275 22.8605 32.4707 25.5459C34.0214 27.4028 35.1643 29.0623 35.9156 30.5162C36.6709 31.9779 37 33.1735 37 34.1202C37 36.4412 36.5277 38.2865 34.8734 39.6166C33.1477 41.004 29.9388 42 24 42C18.0612 42 14.8523 41.004 13.1266 39.6166C11.4723 38.2865 11 36.4412 11 34.1202C11 33.1728 11.3292 31.9768 12.0839 30.515C12.8346 29.0612 13.9765 27.4016 15.5245 25.5454C17.7661 22.862 19.6965 20.6389 21.1314 19.2464L21.3948 19ZM19 16.5C19 16.2239 19.2239 16 19.5 16H28.5C28.7761 16 29 16.2239 29 16.5C29 16.7761 28.7761 17 28.5 17H19.5C19.2239 17 19 16.7761 19 16.5ZM22 25C21.4477 25 21 25.4477 21 26V30H20.5C19.9477 30 19.5 30.4477 19.5 31C19.5 31.5523 19.9477 32 20.5 32H21V33H20.5C19.9477 33 19.5 33.4477 19.5 34C19.5 34.5523 19.9477 35 20.5 35H21V36C21 36.5523 21.4477 37 22 37C22.5523 37 23 36.5523 23 36V35H23.5C24.0523 35 24.5 34.5523 24.5 34C24.5 33.4477 24.0523 33 23.5 33H23V32H25C25.9772 32 26.8693 31.6699 27.5196 31.0196C28.1699 30.3693 28.5 29.4772 28.5 28.5C28.5 26.8267 27.1281 25 25 25H22ZM25 30H23V27H25C25.8719 27 26.5 27.7733 26.5 28.5C26.5 29.0228 26.3301 29.3807 26.1054 29.6054C25.8807 29.8301 25.5228 30 25 30Z" fill="#157EB9"/>
</svg>
