<svg width="48" height="48" viewBox="0 0 48 48" fill="none" xmlns="http://www.w3.org/2000/svg">
<path fill-rule="evenodd" clip-rule="evenodd" d="M18 16.5C18 13.4624 20.4624 11 23.5 11C26.5376 11 29 13.4624 29 16.5C29 19.5376 26.5376 22 23.5 22C20.4624 22 18 19.5376 18 16.5ZM23.5 9C19.3579 9 16 12.3579 16 16.5C16 20.6421 19.3579 24 23.5 24C27.6421 24 31 20.6421 31 16.5C31 12.3579 27.6421 9 23.5 9ZM14 35C14 31.134 17.134 28 21 28H27C30.866 28 34 31.134 34 35V36C34 37.1046 33.1046 38 32 38H16C14.8954 38 14 37.1046 14 36V35ZM21 26C16.0294 26 12 30.0294 12 35V36C12 38.2091 13.7909 40 16 40H32C34.2091 40 36 38.2091 36 36V35C36 30.0294 31.9706 26 27 26H21Z" fill="#157EB9"/>
</svg>
