<svg width="48" height="48" viewBox="0 0 48 48" fill="none" xmlns="http://www.w3.org/2000/svg">
<path fill-rule="evenodd" clip-rule="evenodd" d="M38.7747 11.4615C40.1647 11.0644 41.3407 11.4485 42.2611 12.1643C43.214 12.9055 43.8355 13.9649 44.0299 14.7425C44.2347 15.5619 44.2472 16.9 43.9624 18.1534C43.6658 19.4585 43.1324 20.3158 42.5528 20.6056C42.1476 20.8082 41.5815 20.7707 40.8742 20.4512C40.1865 20.1405 39.5584 19.6442 39.2071 19.2929C38.8327 18.9185 38.2314 18.9008 37.8357 19.2526C37.0667 19.9361 35.8173 21.1059 34.6646 22.5685C33.5212 24.0195 32.4138 25.8322 32.0194 27.8039C31.35 31.1513 31.8881 33.6718 33.4103 37H29.7655C29.2319 36.6538 28.2697 35.7495 27.9806 34.3039C27.927 34.0357 27.7659 33.8012 27.5348 33.655C27.3037 33.5087 27.0228 33.4635 26.7575 33.5298C26.5723 33.5761 26.3686 33.63 26.147 33.6886C23.9361 34.2735 19.9429 35.3299 14.7426 34.0298C14.2879 33.9162 13.8152 34.1335 13.6056 34.5528C13.5653 34.6334 13.4504 34.8006 13.2293 35.0515C13.0207 35.2883 12.759 35.5537 12.4734 35.8254C12.0183 36.2582 11.5272 36.6834 11.1445 37H8.19954L9.87418 33.9856C10.0224 33.7189 10.0407 33.3992 9.92391 33.1173C9.80715 32.8354 9.56811 32.6223 9.27475 32.5385C8.50017 32.3171 6.99757 32.034 5.33159 32.0599C6.15675 31.588 7.05831 31.2107 7.69658 30.9894C9.07448 30.8977 11.2668 30.6705 13.5701 30.2729C15.9341 29.8649 18.4907 29.2651 20.4062 28.4138C22.287 27.5778 24.4932 26.5572 26.5264 25.4277C28.5413 24.3083 30.468 23.0382 31.7317 21.6816C32.1934 21.186 32.9147 20.2496 33.6038 19.3549L33.792 19.1106C34.7614 17.8532 35.3347 16.3867 35.8125 15.1645L35.8125 15.1644C35.9554 14.799 36.0897 14.4554 36.2235 14.1458C36.835 12.7308 37.466 11.8355 38.7747 11.4615ZM13.2299 28.302C11.1223 28.6658 9.11069 28.8818 7.78829 28.9781C7.59895 28.8142 7.45367 28.6129 7.41033 28.4309C7.38159 28.3101 7.32176 27.9232 8.12472 27.2809C8.45188 27.0191 8.5812 26.5812 8.44871 26.1838C7.60211 23.644 8.23032 18.301 14.8364 15.9417C18.0789 14.7837 21.0828 15.1303 23.3989 15.9988C24.5593 16.434 25.5361 16.9965 26.2701 17.5541C27.0257 18.1281 27.4531 18.6422 27.6056 18.9472C27.7242 19.1844 27.9322 19.3648 28.1838 19.4487C28.4354 19.5326 28.71 19.513 28.9472 19.3944C29.157 19.2895 29.3801 19.3075 29.5415 19.4275C29.6773 19.5284 29.9346 19.8295 29.99 20.6028C28.9368 21.6307 27.36 22.6767 25.5551 23.6794C23.6016 24.7647 21.4607 25.7565 19.5939 26.5862C17.9093 27.3349 15.5493 27.9017 13.2299 28.302ZM32.051 18.0933C31.8737 18.3233 31.6999 18.5488 31.5328 18.7644C31.3307 18.3844 31.0641 18.0673 30.7348 17.8225C30.1767 17.4076 29.5331 17.2737 28.933 17.3436C28.5593 16.8723 28.0575 16.4003 27.4799 15.9615C26.5889 15.2847 25.4407 14.6285 24.1012 14.1262C21.4172 13.1197 17.9212 12.7163 14.1637 14.0583C6.88114 16.6592 5.54221 22.5997 6.37123 26.1745C5.54847 27.0212 5.2425 27.9608 5.46472 28.8941C5.52716 29.1564 5.62694 29.3961 5.74997 29.6128C5.20371 29.8559 4.62016 30.149 4.06993 30.4818C3.52455 30.8118 2.98266 31.1982 2.53802 31.6353C2.10233 32.0637 1.69262 32.6065 1.52988 33.2574C1.44136 33.6115 1.55278 33.9857 1.82058 34.2337C2.08837 34.4817 2.47 34.5641 2.81625 34.4487C4.33929 33.941 6.15948 34.0091 7.46606 34.202L5.62587 37.5143C5.4538 37.8241 5.45847 38.2017 5.63816 38.5071C5.81784 38.8125 6.14571 39 6.50003 39H11.5C11.7271 39 11.9474 38.9227 12.1247 38.7808C12.5588 38.4336 13.2311 37.8648 13.8517 37.2746C14.1619 36.9796 14.4689 36.67 14.7301 36.3735C14.7993 36.295 14.869 36.2132 14.937 36.1292C20.058 37.2474 24.0862 36.3 26.3142 35.7138C26.989 37.4682 28.3109 38.5234 29.0528 38.8944C29.1917 38.9638 29.3448 39 29.5 39H35C35.3466 39 35.6685 38.8205 35.8507 38.5257C36.0329 38.2309 36.0494 37.8628 35.8945 37.5528C33.938 33.6397 33.3436 31.3809 33.9806 28.1961C34.2863 26.6678 35.1789 25.1472 36.2355 23.8065C37.01 22.8236 37.841 21.9768 38.5171 21.3395C38.9503 21.6743 39.4766 22.0144 40.0508 22.2738C40.9852 22.696 42.2524 22.9919 43.4472 22.3944C44.8677 21.6842 45.5843 20.0415 45.9127 18.5966C46.2528 17.0999 46.2653 15.438 45.9702 14.2574C45.6646 13.035 44.786 11.5944 43.489 10.5856C42.1594 9.55149 40.3353 8.93562 38.2253 9.53847C36.0341 10.1645 35.0724 11.7679 34.3877 13.3523C34.1998 13.787 34.033 14.212 33.8701 14.6273L33.8701 14.6274C33.4131 15.7921 32.9862 16.8801 32.2081 17.8894L32.0511 18.0931L32.051 18.0933ZM42 16C42.5523 16 43 15.5523 43 15C43 14.4477 42.5523 14 42 14C41.4477 14 41 14.4477 41 15C41 15.5523 41.4477 16 42 16Z" fill="#157EB9"/>
</svg>
