<svg width="48" height="48" viewBox="0 0 48 48" fill="none" xmlns="http://www.w3.org/2000/svg">
<path fill-rule="evenodd" clip-rule="evenodd" d="M24.2642 7C17.5802 7 11.8139 11.3583 9.4233 17.6073C8.91269 18.942 8.55693 20.3621 8.38039 21.8426L13.1822 18.0707C13.6165 17.7296 14.2451 17.8051 14.5863 18.2394C14.9274 18.6737 14.8519 19.3024 14.4176 19.6435L7.87048 24.7864C7.64776 24.9613 7.3613 25.0336 7.08223 24.9854C6.80316 24.9371 6.55766 24.7727 6.40669 24.5331L2.15382 17.7831C1.85941 17.3158 1.99954 16.6983 2.46682 16.4039C2.93409 16.1095 3.55155 16.2497 3.84596 16.7169L6.48946 20.9126C6.70581 19.5163 7.06655 18.1703 7.55533 16.8927C10.2119 9.94851 16.6698 5 24.2642 5C30.9606 5 36.7776 8.85038 39.8773 14.5203C40.1423 15.0049 39.9642 15.6125 39.4796 15.8774C38.995 16.1424 38.3874 15.9643 38.1225 15.4797C35.3395 10.3892 30.1612 7 24.2642 7ZM16.9999 20C16.9999 18.8954 17.8953 18 18.9999 18H28.9999C30.1045 18 30.9999 18.8954 30.9999 20V28C30.9999 29.1046 30.1045 30 28.9999 30H18.9999C17.8953 30 16.9999 29.1046 16.9999 28V20ZM20.9999 20H18.9999V28H28.9999V20H26.9999V22C26.9999 23.1046 26.1045 24 24.9999 24H22.9999C21.8953 24 20.9999 23.1046 20.9999 22V20ZM22.9999 20V22H24.9999V20H22.9999ZM40.9175 23.0147C41.1966 23.0629 41.4421 23.2273 41.5931 23.4669L45.846 30.2169C46.1404 30.6842 46.0002 31.3017 45.533 31.5961C45.0657 31.8905 44.4482 31.7503 44.1538 31.2831L41.5103 27.0874C41.294 28.4837 40.9332 29.8297 40.4444 31.1073C37.7879 38.0515 31.33 43 23.7355 43C17.0392 43 11.2222 39.1496 8.12245 33.4797C7.85752 32.9951 8.0356 32.3875 8.52019 32.1226C9.00479 31.8576 9.6124 32.0357 9.87732 32.5203C12.6603 37.6108 17.8386 41 23.7355 41C30.4196 41 36.1858 36.6417 38.5765 30.3927C39.0871 29.058 39.4428 27.6379 39.6194 26.1574L34.8176 29.9293C34.3833 30.2704 33.7547 30.1949 33.4135 29.7606C33.0723 29.3263 33.1478 28.6976 33.5822 28.3565L40.1293 23.2136C40.352 23.0387 40.6385 22.9664 40.9175 23.0147Z" fill="#157EB9"/>
</svg>
