<svg width="48" height="48" viewBox="0 0 48 48" fill="none" xmlns="http://www.w3.org/2000/svg">
<path fill-rule="evenodd" clip-rule="evenodd" d="M11.1255 26.147C11.5142 25.3764 12.2734 25 12.9999 25C13.7265 25 14.4857 25.3764 14.8744 26.147L16.4988 29.3684C16.5042 29.3792 16.514 29.3911 16.5287 29.4002C16.5398 29.4072 16.5536 29.4126 16.5697 29.4149L20.2039 29.9341C21.0197 30.051 21.6186 30.5969 21.8684 31.2649C22.1363 31.9813 22.007 32.8568 21.358 33.4753L18.7305 35.9814C18.7203 35.9912 18.715 36.0009 18.7122 36.009C18.7095 36.0171 18.7088 36.0252 18.7104 36.0338L19.3305 39.5725C19.4644 40.3399 19.16 41.0333 18.6602 41.4727C18.0595 42.0008 17.1376 42.1955 16.2992 41.763L13.0518 40.0915C13.0373 40.084 13.0195 40.0794 13.0003 40.0794C12.981 40.0794 12.9629 40.0839 12.9483 40.0914L9.70119 41.7628L9.70029 41.7633C8.86197 42.1954 7.94029 42.0007 7.33969 41.4727C6.83991 41.0333 6.53533 40.3407 6.66923 39.5733L7.28949 36.0341C7.291 36.0255 7.29041 36.0171 7.28766 36.009C7.28494 36.0009 7.27959 35.9912 7.26935 35.9814L4.64241 33.4758C3.99342 32.8573 3.86364 31.9813 4.1315 31.2649C4.38125 30.5969 4.97974 30.0511 5.79556 29.9342L9.42975 29.4149C9.44586 29.4126 9.46006 29.4072 9.47124 29.4002C9.48592 29.3911 9.49534 29.3798 9.50081 29.369L11.1255 26.147ZM12.9113 27.0477C12.9175 27.0352 12.9231 27.0285 12.9266 27.0248C12.9303 27.0209 12.9346 27.0174 12.9402 27.0142C12.9523 27.0071 12.973 27 12.9999 27C13.0269 27 13.0476 27.0071 13.0597 27.0142C13.0653 27.0174 13.0696 27.0209 13.0733 27.0248C13.0768 27.0285 13.0823 27.0352 13.0886 27.0476L14.7127 30.2683C14.8872 30.6149 15.1524 30.8992 15.4712 31.0978C15.7164 31.2505 15.9937 31.3529 16.2873 31.3948L19.9206 31.914C19.9388 31.9166 19.9504 31.9207 19.9572 31.9237C19.9641 31.9267 19.9691 31.93 19.9731 31.9334C19.9814 31.9402 19.9897 31.951 19.9951 31.9653C20.001 31.9811 20.0003 31.9929 19.9992 31.9981L19.9981 32.0018L19.9963 32.0058C19.9946 32.0087 19.99 32.0163 19.9781 32.0276L17.3499 34.5344C17.1043 34.7689 16.9226 35.0566 16.8168 35.3708C16.709 35.6908 16.6804 36.0369 16.7404 36.3794L17.3604 39.917C17.3624 39.9285 17.3621 39.9349 17.3618 39.9373C17.3616 39.94 17.3611 39.9419 17.3604 39.9438C17.3588 39.948 17.3536 39.9584 17.3397 39.9706C17.3217 39.9864 17.2995 39.9962 17.2798 39.9991C17.2708 40.0004 17.2623 40.0003 17.2537 39.9989C17.2454 39.9976 17.233 39.9943 17.2158 39.9855L13.9674 38.3134C13.6636 38.1569 13.331 38.0794 13.0003 38.0794M12.9113 27.0477L11.2872 30.2683C11.1127 30.6147 10.8473 30.8994 10.5287 31.0978C10.2835 31.2505 10.0062 31.3529 9.71264 31.3948L6.07929 31.914C6.06109 31.9166 6.04945 31.9207 6.04271 31.9237C6.03579 31.9267 6.03077 31.93 6.02678 31.9334C6.01848 31.9402 6.0102 31.951 6.00484 31.9653C5.99894 31.9811 5.99959 31.9929 6.00067 31.9981C6.00114 32.0003 6.00189 32.0026 6.00363 32.0058C6.00524 32.0087 6.00993 32.0163 6.0218 32.0276L8.64998 34.5344C8.89563 34.7689 9.07733 35.0566 9.18312 35.3708C9.29085 35.6908 9.31953 36.0369 9.25946 36.3794L8.63947 39.917C8.63749 39.9284 8.63782 39.9349 8.63805 39.9373C8.6383 39.94 8.63879 39.9419 8.63952 39.9438C8.64108 39.948 8.64629 39.9584 8.6602 39.9706C8.67815 39.9864 8.70042 39.9962 8.72011 39.9991C8.7291 40.0004 8.73763 40.0003 8.74623 39.9989C8.75446 39.9976 8.76692 39.9943 8.78404 39.9855L12.0325 38.3134C12.3364 38.1568 12.6694 38.0794 13.0003 38.0794" fill="#157EB9"/>
<path fill-rule="evenodd" clip-rule="evenodd" d="M33.125 26.147C33.5137 25.3764 34.2729 25 34.9995 25C35.726 25 36.4852 25.3764 36.8739 26.147L38.4983 29.3684C38.5038 29.3792 38.5135 29.3911 38.5282 29.4002C38.5393 29.4072 38.5531 29.4126 38.5692 29.4149L42.2034 29.9341C43.0192 30.051 43.6182 30.5969 43.8679 31.2649C44.1358 31.9813 44.0065 32.8568 43.3575 33.4753L40.7301 35.9814C40.7198 35.9912 40.7145 36.0009 40.7117 36.009C40.709 36.0171 40.7084 36.0252 40.7099 36.0338L41.33 39.5725C41.4639 40.3399 41.1595 41.0333 40.6597 41.4727C40.059 42.0008 39.1371 42.1955 38.2987 41.763L35.0513 40.0915C35.0368 40.084 35.019 40.0794 34.9998 40.0794C34.9805 40.0794 34.9624 40.0839 34.9479 40.0914L31.7007 41.7628L31.6998 41.7633C30.8615 42.1954 29.9398 42.0007 29.3392 41.4727C28.8394 41.0333 28.5348 40.3407 28.6687 39.5733L29.289 36.0341C29.2905 36.0255 29.2899 36.0171 29.2872 36.009C29.2844 36.0009 29.2791 35.9912 29.2689 35.9814L26.6419 33.4758C25.9929 32.8573 25.8631 31.9813 26.131 31.2649C26.3808 30.5969 26.9793 30.0511 27.7951 29.9342L31.4293 29.4149C31.4454 29.4126 31.4596 29.4072 31.4707 29.4002C31.4854 29.3911 31.4949 29.3798 31.5003 29.369L33.125 26.147ZM34.9108 27.0477C34.917 27.0352 34.9226 27.0285 34.9261 27.0248C34.9298 27.0209 34.9341 27.0174 34.9397 27.0142C34.9518 27.0071 34.9725 27 34.9995 27C35.0264 27 35.0471 27.0071 35.0592 27.0142C35.0648 27.0174 35.0691 27.0209 35.0728 27.0248C35.0763 27.0285 35.0818 27.0352 35.0881 27.0476L36.7122 30.2683C36.8867 30.6149 37.1519 30.8992 37.4707 31.0978C37.7159 31.2505 37.9933 31.3529 38.2868 31.3948L41.9201 31.914C41.9383 31.9166 41.95 31.9207 41.9567 31.9237C41.9636 31.9267 41.9686 31.93 41.9726 31.9334C41.9809 31.9402 41.9892 31.951 41.9946 31.9653C42.0005 31.9811 41.9998 31.9929 41.9987 31.9981L41.9976 32.0018L41.9958 32.0058C41.9942 32.0087 41.9895 32.0163 41.9776 32.0276L39.3494 34.5344C39.1038 34.7689 38.9221 35.0566 38.8163 35.3708C38.7086 35.6908 38.6799 36.0369 38.7399 36.3794L39.3599 39.917C39.3619 39.9285 39.3616 39.9349 39.3614 39.9373C39.3611 39.94 39.3606 39.9419 39.3599 39.9438C39.3583 39.948 39.3531 39.9584 39.3392 39.9706C39.3213 39.9864 39.299 39.9962 39.2793 39.9991C39.2703 40.0004 39.2618 40.0003 39.2532 39.9989C39.2449 39.9976 39.2325 39.9943 39.2154 39.9855L35.9669 38.3134C35.6631 38.1569 35.3306 38.0794 34.9998 38.0794M34.9108 27.0477L33.2867 30.2683C33.1122 30.6147 32.8468 30.8994 32.5282 31.0978C32.283 31.2505 32.0057 31.3529 31.7122 31.3948L28.0788 31.914C28.0606 31.9166 28.049 31.9207 28.0422 31.9237C28.0353 31.9267 28.0303 31.93 28.0263 31.9334C28.018 31.9402 28.0097 31.951 28.0044 31.9653C27.9985 31.9811 27.9991 31.9929 28.0002 31.9981C28.0006 32.0003 28.0014 32.0026 28.0031 32.0058C28.0048 32.0087 28.0094 32.0163 28.0213 32.0276L30.6495 34.5344C30.8951 34.7689 31.0768 35.0566 31.1826 35.3708C31.2904 35.6908 31.319 36.0369 31.259 36.3794L30.639 39.917C30.637 39.9284 30.6373 39.9349 30.6376 39.9373C30.6378 39.94 30.6383 39.9419 30.639 39.9438C30.6406 39.948 30.6458 39.9584 30.6597 39.9706C30.6777 39.9864 30.6999 39.9962 30.7196 39.9991C30.7286 40.0004 30.7371 40.0003 30.7457 39.9989C30.754 39.9976 30.7664 39.9943 30.7836 39.9855L34.032 38.3134C34.3359 38.1568 34.6689 38.0794 34.9998 38.0794" fill="#157EB9"/>
<path fill-rule="evenodd" clip-rule="evenodd" d="M22.125 7.14705C22.5137 6.37636 23.2729 6 23.9995 6C24.726 6 25.4852 6.37636 25.8739 7.14705L27.4983 10.3684C27.5038 10.3792 27.5135 10.3911 27.5282 10.4002C27.5393 10.4072 27.5531 10.4126 27.5692 10.4149L31.2034 10.9341C32.0192 11.051 32.6182 11.5969 32.8679 12.2649C33.1358 12.9813 33.0065 13.8568 32.3575 14.4753L29.7301 16.9814C29.7198 16.9912 29.7145 17.0009 29.7117 17.009C29.709 17.0171 29.7084 17.0252 29.7099 17.0338L30.33 20.5725C30.4639 21.3399 30.1595 22.0333 29.6597 22.4727C29.059 23.0008 28.1371 23.1955 27.2987 22.763L24.0513 21.0915C24.0368 21.084 24.019 21.0794 23.9998 21.0794C23.9805 21.0794 23.9624 21.0839 23.9479 21.0914L20.7007 22.7628L20.6998 22.7633C19.8615 23.1954 18.9398 23.0007 18.3392 22.4727C17.8394 22.0333 17.5348 21.3407 17.6687 20.5733L18.289 17.0341C18.2905 17.0255 18.2899 17.0171 18.2872 17.009C18.2844 17.0009 18.2791 16.9912 18.2689 16.9814L15.6419 14.4758C14.9929 13.8573 14.8631 12.9813 15.131 12.2649C15.3808 11.5969 15.9793 11.0511 16.7951 10.9342L20.4293 10.4149C20.4454 10.4126 20.4596 10.4072 20.4707 10.4002C20.4854 10.3911 20.4949 10.3798 20.5003 10.369L22.125 7.14705ZM23.9108 8.04767C23.917 8.03523 23.9226 8.02845 23.9261 8.02478C23.9298 8.02089 23.9341 8.01742 23.9397 8.01416C23.9518 8.00712 23.9725 8 23.9995 8C24.0264 8 24.0471 8.00712 24.0592 8.01416C24.0648 8.01742 24.0691 8.02089 24.0728 8.02478C24.0763 8.02845 24.0818 8.03518 24.0881 8.04762L25.7122 11.2683C25.8867 11.6149 26.1519 11.8992 26.4707 12.0978C26.7159 12.2505 26.9933 12.3529 27.2868 12.3948L30.9201 12.914C30.9383 12.9166 30.95 12.9207 30.9567 12.9237C30.9636 12.9267 30.9686 12.93 30.9726 12.9334C30.9809 12.9402 30.9892 12.951 30.9946 12.9653C31.0005 12.9811 30.9998 12.9929 30.9987 12.9981L30.9976 13.0018L30.9958 13.0058C30.9942 13.0087 30.9895 13.0163 30.9776 13.0276L28.3494 15.5344C28.1038 15.7689 27.9221 16.0566 27.8163 16.3708C27.7086 16.6908 27.6799 17.0369 27.7399 17.3794L28.3599 20.917C28.3619 20.9285 28.3616 20.9349 28.3614 20.9373C28.3611 20.94 28.3606 20.9419 28.3599 20.9438C28.3583 20.948 28.3531 20.9584 28.3392 20.9706C28.3213 20.9864 28.299 20.9962 28.2793 20.9991C28.2703 21.0004 28.2618 21.0003 28.2532 20.9989C28.2449 20.9976 28.2325 20.9943 28.2154 20.9855L24.9669 19.3134C24.6631 19.1569 24.3306 19.0794 23.9998 19.0794M23.9108 8.04767L22.2867 11.2683C22.1122 11.6147 21.8468 11.8994 21.5282 12.0978C21.283 12.2505 21.0057 12.3529 20.7122 12.3948L17.0788 12.914C17.0606 12.9166 17.049 12.9207 17.0422 12.9237C17.0353 12.9267 17.0303 12.93 17.0263 12.9334C17.018 12.9402 17.0097 12.951 17.0044 12.9653C16.9985 12.9811 16.9991 12.9929 17.0002 12.9981C17.0006 13.0003 17.0014 13.0026 17.0031 13.0058C17.0048 13.0087 17.0094 13.0163 17.0213 13.0276L19.6495 15.5344C19.8951 15.7689 20.0768 16.0566 20.1826 16.3708C20.2904 16.6908 20.319 17.0369 20.259 17.3794L19.639 20.917C19.637 20.9284 19.6373 20.9349 19.6376 20.9373C19.6378 20.94 19.6383 20.9419 19.639 20.9438C19.6406 20.948 19.6458 20.9584 19.6597 20.9706C19.6777 20.9864 19.6999 20.9962 19.7196 20.9991C19.7286 21.0004 19.7371 21.0003 19.7457 20.9989C19.754 20.9976 19.7664 20.9943 19.7836 20.9855L23.032 19.3134C23.3359 19.1568 23.6689 19.0794 23.9998 19.0794" fill="#157EB9"/>
</svg>
